<?xml version="1.0" encoding="UTF-8" standalone="no"?>
<!-- Created with Inkscape (http://www.inkscape.org/) -->

<svg
   width="210.61848mm"
   height="72.760422mm"
   viewBox="0 0 210.61848 72.760422"
   version="1.1"
   id="svg102"
   inkscape:version="1.1.1 (3bf5ae0d25, 2021-09-20)"
   sodipodi:docname="Kalkhauptstadt.ink.svg"
   xmlns:inkscape="http://www.inkscape.org/namespaces/inkscape"
   xmlns:sodipodi="http://sodipodi.sourceforge.net/DTD/sodipodi-0.dtd"
   xmlns="http://www.w3.org/2000/svg"
   xmlns:svg="http://www.w3.org/2000/svg">
  <sodipodi:namedview
     id="namedview104"
     pagecolor="#505050"
     bordercolor="#ffffff"
     borderopacity="1"
     inkscape:pageshadow="0"
     inkscape:pageopacity="0"
     inkscape:pagecheckerboard="1"
     inkscape:document-units="mm"
     showgrid="false"
     inkscape:zoom="1.0607991"
     inkscape:cx="631.12801"
     inkscape:cy="256.88183"
     inkscape:window-width="1920"
     inkscape:window-height="1027"
     inkscape:window-x="1912"
     inkscape:window-y="-8"
     inkscape:window-maximized="1"
     inkscape:current-layer="layer1" />
  <defs
     id="defs99" />
  <g
     inkscape:label="Ebene 1"
     inkscape:groupmode="layer"
     id="layer1"
     transform="translate(95.080027,-49.333567)">
    <path
       style="fill:#161616;stroke:none;stroke-width:0.264583"
       d="m -73.648777,71.558527 -1.5875,-0.52917 c 0.486489,1.33768 0.635687,2.20398 -0.529167,3.175 l 0.264583,-0.79375 -0.557133,2.38125 -1.29495,5.82084 -0.79375,-0.26459 0.529167,0.52917 -0.415661,10.05417 -0.113506,6.35 -0.529167,-0.26459 c 0.351658,0.51224 0.585073,0.72999 1.058334,0.26459 h 0.264583 l -1.517465,3.484563 -0.260932,2.98079 -4.571603,0.41381 0.264583,-2.64583 -1.058333,-0.26458 0.529167,-2.381253 1.322916,0.793753 0.529167,-1.587503 -0.529167,0.79375 h -0.264583 l -0.264583,-1.32292 c 0.638519,0.15055 0.949669,-0.28813 0.264583,-0.26458 l 0.264583,-0.79375 -1.058333,0.26458 -0.264583,-1.32292 c -1.079924,0 -0.891831,-1.29884 0,-1.5875 l -0.264584,-2.91041 c 0.608463,-2.83581 -1.943708,-3.8354 -4.233333,-4.49792 v -2.11667 h -0.264583 v 2.91042 l -0.529167,-0.52917 c -4.696513,1.31578 -4.229444,4.93475 -3.439583,8.73125 -2.321753,0.68157 -2.435865,2.66727 -1.058334,4.233343 l -1.058333,-0.52917 1.852083,1.05833 -0.529166,1.5875 -0.79375,-0.52916 c 0.517472,1.34646 0.976339,2.40876 -0.529167,3.175 v 6.35 h 0.264583 l 0.264584,-0.52917 c 0.487071,2.13069 1.390914,5.90603 -0.264584,7.67292 l 0.264584,0.79375 -0.79375,0.26458 0.264583,1.85208 6.879167,0.26459 -1.058334,-2.38125 0.79375,0.26458 -0.264583,-1.05833 -0.529167,0.52916 h -0.264583 c -0.155734,-1.97617 0.941229,-5.22552 -0.264583,-6.87916 v -0.26459 l 1.058333,-2.11666 c -0.386874,-0.93001 0.912945,-1.63063 1.5875,-2.11667 l 0.264583,3.70417 1.322917,-0.52917 -3.439583,4.23333 0.79375,0.52917 c 0.845052,0.20928 1.023302,0.45455 1.058333,1.32292 1.379829,1.27635 0.791289,3.14166 0.264583,4.7625 l 6.35,-0.26459 -0.264583,-1.32291 0.529167,0.79375 h 0.264583 v -2.11667 l -1.5875,-0.79375 0.529167,1.85208 -1.852084,-2.91041 -0.264583,-1.32292 h -0.264583 l -0.79375,0.79375 c -0.05559,-2.5826 1.431025,-3.45467 2.645833,-5.55625 h 0.264583 l 1.058334,0.79375 c -0.177086,-0.70538 -0.718106,-1.92617 -0.4132,-2.63022 0.462915,-1.06918 2.697506,-1.12342 3.316261,-0.19606 0.489056,0.7329 0.271939,1.98781 0.271939,2.82628 h 0.264583 l 0.264583,-0.52917 c 0.916226,2.85062 -1.495875,6.00313 -2.645833,8.46667 h -0.264583 l 0.264583,-0.79375 -0.529167,1.5875 1.322917,-0.79375 -1.852083,1.5875 v 0.26458 h 5.820833 v -2.38125 h -0.264583 l -0.529167,1.32292 h -0.79375 l 0.79375,-3.70417 c 4.457435,5.3e-4 3.212782,1.40097 3.175,4.7625 l 4.7625,-0.26458 v 0.52917 h 1.5875 0.264583 l -1.5875,-1.5875 0.79375,-1.32292 0.79375,0.79375 c -1.987021,-2.64187 -3.543035,-5.55757 -3.439583,-8.99583 h 0.264583 v 0.79375 h 0.264583 0.264584 v -2.91042 c 3.005137,-0.71543 3.704166,0.3347 3.704166,3.175 l 0.79375,-0.52917 0.264584,7.67292 h -1.058334 l 0.504825,2.29711 3.199343,0.34872 h 8.466667 v -5.02708 h -2.116667 c 1.655763,4.07591 -6.855619,2.75219 -3.96875,-1.05833 v -2.11667 h -0.264583 l -0.264584,0.52917 -0.264583,-0.79375 1.322917,-2.11667 0.79375,0.79375 -0.529167,-3.175 c 1.495425,2.6e-4 4.772554,-0.63897 6.031442,0.0138 1.135062,0.58896 0.465402,1.61951 0.742421,2.55746 1.139825,3.86027 0.426773,6.48123 -0.159279,10.39336 h 6.879166 v -0.52916 c -1.839383,-1.44886 -1.485635,-6.24655 -1.000654,-8.46667 0.18759,-0.8599 1.886215,-2.9427 0.206904,-3.175 l 2.38125,-0.79375 0.264583,0.52917 -0.264583,2.64583 0.79375,-0.26458 -2.333625,3.43958 1.615017,3.175 -0.07514,3.43958 6.614583,-0.52916 v -2.11667 l -1.5875,-1.05833 0.264583,0.79375 h -0.264583 c -0.821267,-3.03583 -3.570552,-3.70047 -0.79375,-6.61459 l -1.058333,1.5875 c 0.890852,-0.62706 2.304521,-1.53114 2.839244,-2.50163 0.734483,-1.33271 -0.03228,-2.00369 1.658672,-2.79003 l 1.5875,3.175 c -0.278341,1.08929 -0.833966,4.26905 0,5.02708 l -1.058333,3.70417 0.79375,0.26458 v 0.52917 l -1.058333,0.79375 6.35,-0.26459 0.264583,-2.64583 -1.322917,0.52917 v -3.175 c 0.801688,0.10715 3.026834,0.3593 3.175,-0.52917 0.812536,1.07236 0.685271,2.50931 -0.264583,3.43958 v 2.38125 h 6.879167 v -2.91041 l -0.79375,1.5875 v -1.05834 -0.26458 l -0.79375,0.26458 0.529166,-1.85208 v -6.08542 l 0.79375,0.26459 v -2.64584 l 3.96875,-0.26458 -0.264583,2.91042 0.79375,-1.32292 h 0.264583 c 0.121973,2.41406 -1.064948,5.44671 -1.976702,7.67186 -0.641879,1.56712 -1.731962,2.14339 -1.198298,3.96981 h 4.497917 l -0.79375,-4.49792 4.2333333,-0.26458 c 0.240771,0.98874 0.270669,1.57585 -0.7937503,1.85208 v 2.91042 h 0.264583 l 0.264584,-0.79375 6.0854163,0.79375 v -3.175 c -2.10476,-0.61225 -3.786452,-6.03092 -3.175,-7.9375 l 0.264584,0.79375 h 0.264583 v -2.64584 l 2.645833,-0.79375 c 1.290373,1.0758 0.858573,2.19155 0.79375,3.70417 l 1.058334,-0.26458 c 0.230452,2.18175 -1.20015,6.61564 1.322916,7.67291 -0.342635,2.67997 2.898775,2.51751 4.7625,2.64584 l -0.264583,-0.52917 0.529167,0.52917 c 2.304788,-0.78344 3.538268,-1.26286 4.233328,-3.70417 -0.69188,-1.34012 -0.35321,-5.72823 1.05834,-6.61458 -0.14605,-1.36049 -0.28469,-2.74241 0.7937497,-3.70417 l -0.5291697,0.79375 1.5874997,0.26458 -0.26458,2.91042 c 2.30531,0.24342 1.32291,5.06016 1.32291,6.87917 l -1.32291,0.26458 0.79375,2.91042 6.61458,-0.26459 h 0.26458 v -2.91041 l -0.79375,1.5875 -0.79375,-0.26459 0.26459,-1.05833 c -0.49292,-0.66437 -0.63897,-1.5449 0.30374,-1.95712 2.46327,-1.07659 5.30754,0.59293 6.84001,-2.5408 l 0.52916,0.52917 0.52917,-1.85208 h -0.26458 l -0.26459,0.79375 h -0.26458 l -0.26458,-2.11667 c 1.59967,-3.11044 -5.08106,-2.35691 -6.25634,-3.21575 -0.98372,-0.71913 -0.22384,-2.67837 -0.0937,-3.66342 l 0.79375,1.05834 h 0.26458 l 0.26459,-3.70417 -1.05834,0.52917 h -0.26458 v -3.175003 c 1.34832,0.158223 2.64822,-1.21973 3.92959,-0.84958 1.48749,0.42942 0.83265,6.112403 0.83291,7.464163 l 1.05833,-0.26458 0.26459,2.64583 h 0.26458 v -0.79375 l 0.79375,0.52917 v -1.05834 h 0.26458 l 1.32292,1.32292 -0.26458,5.55625 h 2.64583 c -0.77602,-1.09538 -1.76398,-1.06415 -1.5875,-2.64583 h 1.85208 v -0.26459 h -0.79375 v -0.26458 h 2.11667 l -0.26458,8.46667 -0.79375,-1.05834 h -0.26459 v 3.43959 l 7.14375,-0.26459 0.26459,-2.91041 h -1.05834 l 0.79375,1.5875 -1.05833,0.26458 -0.52917,-5.82083 0.52917,-3.175 c 1.66211,0.37226 1.84626,1.00568 1.85208,2.64583 h 2.11667 l -0.52917,-0.52917 0.26459,-4.49791 -0.79375,0.52916 -2.11667,-3.43958 c 1.38033,-0.22252 3.64358,0.15081 4.49792,-1.05833 -1.19433,0.21854 -2.60668,0.37729 -3.63035,-0.4572 -1.17131,-0.95462 -0.92419,-4.36933 0.25268,-5.272623 2.33733,-1.79361 4.99533,-0.0704 7.08183,0.967323 -0.32649,2.58603 0.63077,4.6691 -0.5244,7.29482 -0.61833,1.40573 -2.12937,1.98676 -2.65853,3.55309 -0.37412,1.10755 -0.19632,2.2815 0.80168,2.91042 l 0.79375,1.32292 -0.26458,-1.05834 h 0.26458 c 0.71358,1.58406 4.23175,2.39316 4.08491,4.10581 -0.15558,1.81398 -3.23903,0.6858 -3.29116,-0.93081 l -0.52916,0.52917 -2.11667,-0.52917 0.26458,3.96875 c 0.5252,-0.17939 1.75842,-0.53155 1.05834,-1.05833 v -0.26458 l 1.05833,0.52916 c 1.43642,0.0431 2.87338,0.98849 4.23307,0.92869 3.58352,-0.15716 4.55613,-4.24286 2.404,-6.63893 -1.28534,-1.43086 -3.5552,-1.85763 -5.04957,-3.02101 l -0.79371,0.52917 v -1.5875 h 0.26458 v 0.79375 h 0.26459 c 1.62454,-1.99999 3.86873,0.66992 6.08541,0.79375 l -0.52916,-0.79375 v -0.26458 l 0.52916,-2.64584 h -2.91041 v 0.26459 h 0.79375 c -3.17474,1.79943 -0.94192,-2.52201 -0.79375,-3.43959 l 0.79375,0.79375 h 0.26458 v -3.96875 c -1.83065,0.15849 -1.53247,-1.55839 -1.85208,-2.910413 0.79269,0.188123 1.47187,0.387883 1.5875,-0.52917 l 0.79375,0.26458 c 0,-0.92181 2.08359,-1.10569 2.91041,-1.05833 v 7.937503 l 1.05834,-0.26458 v 3.70416 l -0.79375,-0.52916 0.52916,0.79375 -0.52916,4.23333 h 2.64583 l -0.52917,-0.79375 v -0.26458 l 0.26459,-0.79375 -0.79375,0.52916 c 0.79137,-0.98107 1.37213,-1.34567 2.64583,-1.32291 0,2.0185 0.10689,4.06982 -0.0209,6.08435 -0.0479,0.75407 -0.11245,1.8161 -1.03743,1.58856 h -0.26459 l 0.26459,2.64584 h 6.35 l 0.79375,-1.05834 -1.32292,-0.79375 c 0,-2.56169 -1.47214,-8.20102 1.85208,-8.73125 v 2.91042 h 0.79375 l 1.32292,-3.96875 -0.79375,-0.52917 1.37927,-0.97261 2.85406,-0.3503 0.26459,3.43958 0.79375,-0.52917 c -0.21405,2.45216 -1.47585,6.65057 -3.43959,8.20209 v 1.5875 l 5.02709,0.52916 v -1.05833 c -0.98901,0 -1.41949,-0.75168 -0.52917,-0.52917 l -0.79375,-0.79375 c 0.83582,-2.2262 2.69505,-1.83435 4.7625,-2.38125 v 2.38125 h -1.05833 v 0.26459 h 0.79375 l -0.26459,2.38125 h 5.82084 l -0.26459,-2.64584 c -1.42504,-2.26271 -3.96583,-6.88234 -2.11666,-9.26041 v 1.5875 h 0.26458 l 0.26458,-2.11667 -2.38125,-0.26458 c -0.44397,-1.17184 -2.82257,-4.33573 -3.96875,-4.49792 l 0.47705,-4.7625 1.9042,-3.439583 c -2.36034,-1.19354 -4.81038,-2.27225 -7.21942,-3.35095 -0.85513,-0.38312 -2.05131,-0.47757 -2.66356,-1.27265 -0.6768,-0.87841 0.28866,-3.03159 1.21127,-3.45546 1.93357,-0.88873 6.0325,-0.82735 8.14255,-0.65219 l 3.175,-0.47599 7.40833,-0.31776 v -0.26459 l -4.7625,-1.5875 c -0.25876,-1.90632 -5.37765,-1.97485 -6.61458,-3.43958 l -9.525,3.89493 -4.7625,1.66132 c -0.11536,-0.8382 -1.1094,-0.9488 -1.85209,-1.30466 -1.78911,-0.85672 -4.91886,-2.47809 -6.87916,-2.13492 -1.21338,-1.7788 -6.61591,-3.49197 -8.73125,-3.70417 1.59491,-1.71291 5.4438,-2.25743 7.71789,-2.86729 4.55825,-1.22264 9.33636,-2.9509 13.71336,-4.69987 1.55204,-0.62019 6.25025,-1.03037 6.61458,-2.75159 1.98464,0.0649 3.93356,1.46809 5.82083,2.0587 5.1996,1.62721 10.37167,3.42347 15.61042,4.89217 2.22382,0.62336 4.53919,2.02459 6.87917,1.5158 0.26326,1.26285 1.78514,1.40732 2.910407,1.6756 2.66859,0.63606 5.16361,2.01666 7.9375,2.29315 v -0.26459 c -8.61933,-4.07934 -18.465267,-6.43387 -27.516657,-9.36024 -3.12844,-1.01142 -7.23953,-3.59815 -10.58334,-3.07517 l 0.26459,-0.52917 h -0.26459 l -1.5875,1.05833 c -1.79519,-0.20746 -3.75972,0.713 -5.29166,1.5875 l 0.26458,-0.52916 -9.525,3.70416 v -0.52916 c -3.35068,1.29989 -6.63707,2.40241 -10.05417,3.5007 -1.16522,0.37465 -2.21165,1.21338 -3.43958,1.36551 -1.27873,0.15849 -2.22276,-0.71146 -3.43958,-0.77893 -1.16602,-0.0648 -1.75075,0.7202 -2.71436,1.13056 -2.09286,0.89112 -5.46629,0.93478 -6.54606,3.24882 -1.6547,-1.00965 -4.95961,0.6395 -6.61458,1.34938 -5.72797,2.45665 -12.2983697,4.02775 -17.7270867,7.11729 v 0.26458 l 1.322917,-0.26458 v 0.26458 c -7.018867,2.36988 -14.895248,1.75102 -22.2250003,1.5875 v -5.55625 h -0.264584 v 2.11667 c -1.013883,0.16907 -0.410369,2.60615 -0.264583,3.43958 h -19.05 v -0.26458 l 1.322917,-1.05833 -12.964584,0.26458 -1.5875,-1.32292 h -1.058333 l 1.322917,1.85209 -2.116667,0.52916 v -1.05833 h -0.264586 l -0.79375,1.05833 0.264584,-0.52916 h -0.264584 l -6.35,0.26458 0.264583,0.79375 2.645834,1.05833 -1.852083,-0.79375 6.879166,3.175 h 0.264584 v -0.79375 h 0.264583 l 0.529167,5.291673 -11.641667,-0.52917 c -0.06668,-1.382973 0.04392,-2.466183 -1.058335,-3.439583 v -0.26458 l 0.529167,-0.79375 h -0.529167 c 2.427024,-4.23519 -0.909108,-9.84356 0.793751,-14.2875 l -1.852084,-2.38125 v -0.26459 c 1.174221,-1.02605 0.44159,-3.89149 0.264583,-5.29166 h -0.264583 l -1.852083,3.175 -0.529167,-1.85209 -0.294217,-3.96875 -0.499533,-11.112497 h -0.264583 l -1.058334,1.852087 h -0.264583 l -0.264583,-10.583336 h -1.058334 l -0.264583,-2.645834 c -1.736566,0.698077 -1.291405,4.92723 -1.281483,6.604159 0.0164,2.768044 -1.488096,5.060844 -2.068671,7.683341 -0.52705,2.38067 -0.309827,5.46658 -0.354012,7.9375 m 3.174999,-19.579166 v 1.5875 h -0.264583 l 0.264583,-1.5875 m -0.08811,2.822231 -0.08837,0.176371 0.08837,-0.176371 m 1.411023,0.617352 v 1.5875 h -0.264583 l 0.264583,-1.5875 m 0.529167,4.497916 v 1.322917 h -0.264584 l 0.264584,-1.322917 m 47.536894,0.08819 0.176213,0.08821 -0.176213,-0.08821 m 2.998523,-0.08819 v 1.058334 l -1.852083,-0.264584 c 0.601133,0.926337 1.382712,0.763587 2.38125,0.529167 L -18.086281,59.9169 m -1.852083,0.264584 0.264583,0.264583 -0.264583,-0.264583 m 2.645833,0 0.264583,0.264583 -0.264583,-0.264583 m 3.704166,0.529166 0.79375,-0.264583 -0.79375,0.264583 m -7.408333,-0.264583 0.264584,0.264583 -0.264584,-0.264583 m 6.879167,0 -3.175,0.529167 v 0.264583 c 0.847989,0 3.223419,0.41333 3.175,-0.79375 m -3.175,1.05833 -0.264583,16.93334 h 0.264583 v -1.05834 h 0.264583 l -0.529166,8.73125 c 1.385358,-1.35652 0.79375,-4.26111 0.79375,-6.08541 v -12.43542 c 0,-1.95001 0.336285,-4.28479 -0.529167,-6.08542 m -52.916667,0.26459 -1.322917,1.32291 1.322917,-1.32291 m 3.175,0.61735 0.08811,0.0882 c -0.13044,0.0435 -0.292629,-0.0882 -0.08811,-0.0882 m -0.79375,0.70556 -1.5875,1.5875 1.5875,-1.5875 m -1.058334,3.175 -0.264583,0.26459 0.264583,-0.26459 m 1.5875,0.52917 -0.529166,0.79375 0.529166,-0.79375 m 1.058334,1.32292 -0.264584,0.26458 0.264584,-0.26458 m 135.995841,1.5875 -0.26458,0.26458 0.26458,-0.26458 m -1.05833,0.52916 -0.26459,0.26459 0.26459,-0.26459 m -142.610428,1.5875 -0.529166,0.52917 v -0.52917 h 0.529166 m 137.847928,0 -0.26459,0.26459 0.26459,-0.26459 m -127.793761,0.26459 v 1.85208 h 0.264583 l -0.264583,-1.85208 m -2.645834,1.05833 v 0.79375 h -0.264583 l 0.264583,-0.79375 m -5.909018,3.08689 -0.08821,0.17622 0.08821,-0.17622 m 5.909018,1.41103 -0.529166,1.05833 h -0.264584 l 0.264584,-1.05833 h 0.529166 m -8.466666,0.79375 h 0.79375 l -1.322917,1.05833 0.529167,-1.05833 m 11.377083,0.26458 -0.79375,0.52917 0.79375,-0.52917 m 100.277088,0.35269 0.0881,0.0884 c -0.13044,0.0434 -0.29263,-0.0884 -0.0881,-0.0884 m 0.79375,0.17648 -0.26459,0.26458 0.26459,-0.26458 m -5.02709,1.5875 -0.26458,0.26458 0.26458,-0.26458 m -100.541665,0.26458 -0.79375,0.79375 0.79375,-0.79375 m 104.422315,0.17648 -0.0884,0.17621 0.0884,-0.17621 m -99.395231,0.0881 v 0.79375 h -0.264584 l 0.264584,-0.79375 m 97.366671,0.79375 -0.26459,0.26459 0.26459,-0.26459 m 3.70416,0 -0.26458,0.26459 0.26458,-0.26459 m 5.20356,0.17648 -0.0884,0.17621 0.0884,-0.17621 m 66.763117,0.0881 v 0.26458 l 3.70416,1.5875 c -0.46513,-1.32741 -2.42517,-1.66053 -3.70416,-1.85208 m -82.814587,0.52916 -0.26459,0.26459 0.26459,-0.26459 m 17.4625,0.0881 c 0.20452,0 0.0423,0.13176 -0.0881,0.0884 l 0.0881,-0.0884 m -112.712505,0.17648 -0.529166,1.05833 0.529166,-1.05833 m 2.645834,0.26458 -0.264584,0.26458 0.264584,-0.26458 m 2.293143,0.17648 -0.08837,0.17621 0.08837,-0.17621 m 106.979778,0.0881 -0.26459,0.26459 0.26459,-0.26459 m 1.5875,0 -0.26459,0.26459 0.26459,-0.26459 m 62.970837,0 0.26458,0.26459 -0.26458,-0.26459 m 5.55625,0 c 1.58168,3.04562 0.77734,7.95285 0.79348,11.37709 0.007,1.38244 -0.4953,3.66209 0.79402,4.49791 -0.007,-3.56208 -0.50298,-7.30805 -0.20135,-10.83759 0.16563,-1.93649 0.79349,-4.1656 -1.38615,-5.03741 m -180.004781,0.44106 -0.08837,0.17622 0.08837,-0.17622 m 97.190194,-0.17647 -0.26459,0.26458 0.26459,-0.26458 m 14.81666,0 -0.52916,0.52916 0.52916,-0.52916 m 53.18126,0.79375 c -0.13361,-0.8181 -1.44965,-0.57574 -1.85208,0 l -2.91042,0.26458 0.52917,0.79375 -1.05834,-0.26458 c -1.67031,2.08412 -4.35557,2.08227 -6.87916,2.25028 -1.36234,0.0907 -3.00435,-0.60669 -3.96875,0.66013 h -0.26459 c -1.35837,-0.92789 -2.97762,-0.26537 -4.49791,-0.13811 -3.91266,0.32782 -8.05683,0.20479 -11.90625,0.93186 l 0.52916,0.52917 -1.05833,2.11667 11.1125,4.7625 v 0.26458 c -2.1926,1.5457 -3.28268,3.915303 -2.97206,6.618553 0.14367,1.25175 1.23957,3.64014 2.70748,2.90645 2.27912,4.8051 9.19083,0.72707 10.58333,-2.64583 -0.33708,-0.38259 -0.0759,-0.77047 0.53658,-0.67628 2.0013,0.30851 2.19657,1.72694 4.4905,0.67628 l -0.26458,0.52916 h 0.26458 l 1.5875,-1.05833 h -1.5875 v -0.26458 c 1.07818,-0.0661 1.76795,-0.1061 2.38125,-1.05834 h 0.26459 c 0.46461,1.76504 0.50376,3.67718 2.38125,4.49792 0.26326,1.45785 1.93516,1.82801 3.174997,2.38125 v 0.26458 h -1.852087 l 0.79375,5.29167 h 1.852087 l -0.26459,-2.64583 1.85209,0.26458 0.0442,6.65877 -1.10252,1.54331 h -0.26458 l 0.26458,1.85209 h 7.14375 c -1.37001,-3.57373 -1.73513,-6.94902 -1.32291,-10.84792 1.7391,0.2839 1.66714,1.72482 1.32291,3.175 h 2.38125 l 0.26459,-1.85208 -0.26459,-3.43959 -6.87916,-0.26458 c 1.15993,-0.567 2.93793,-1.13057 3.75047,-2.15847 1.23772,-1.56581 0.49821,-3.82376 2.86411,-4.19153 v -0.26458 l -1.05833,-0.79375 3.96875,1.32291 c -0.53473,-2.24525 -0.31935,-6.884723 -2.11667,-8.466663 l 0.79375,-2.38125 h -0.26458 l -0.52917,0.52916 0.26458,-1.05833 c -1.19776,-0.0257 -2.23096,-0.58843 -2.38125,-1.85208 l -0.52916,0.52916 h -4.23334 c -0.14022,-1.45759 1.2999,-3.29803 2.38125,-4.23333 l -0.26458,0.52917 1.5875,-2.11667 -0.52917,-0.26458 -8.995827,0.79375 m -74.34792,-0.52917 -0.26459,0.26458 0.26459,-0.26458 m -91.281255,0.26458 c 0.300303,1.9013 1.67005,8.83259 -0.79375,9.26042 l -0.529166,-7.67292 h 0.264583 v 1.85209 h 0.264583 l -0.529166,-2.38125 1.322916,-1.05834 m 142.875005,0.26459 v 0.52916 l -0.52916,-0.52916 h 0.52916 m -145.520838,0.26458 v 1.5875 l -0.79375,-0.26458 -1.5875,2.64583 -0.264583,-2.91042 h 0.264583 l 0.264583,1.85209 c 0.481807,-1.43775 0.365125,-2.61515 2.116667,-2.91042 m 91.016668,0 -0.79375,0.79375 0.79375,-0.79375 m 73.28959,0 -0.26458,0.26458 0.26458,-0.26458 m -167.745841,0.26458 -0.264583,8.73125 h -0.79375 l -0.529167,-3.96875 0.79375,-0.26458 c -0.38235,-1.60602 -0.409893,-3.25226 0.79375,-4.49792 m 7.9375,0 -0.264584,0.79375 h -0.264583 l 0.529167,-0.79375 m 115.622921,0 -0.26459,0.26459 0.26459,-0.26459 m -14.02292,0.26459 -0.26458,0.26458 0.26458,-0.26458 m -126.470834,0.26458 0.264583,0.79375 h 0.264583 l -0.529166,-0.79375 m 25.399999,0.26458 -0.529166,0.52917 0.529166,-0.52917 m 82.020835,0 v 0.26459 l -1.05833,0.52916 v -0.26458 l 1.05833,-0.52917 m 82.814587,0.0881 c 0.20452,0 0.0423,0.13176 -0.0881,0.0884 l 0.0881,-0.0884 m -176.741671,0.17648 -0.264584,0.26458 0.264584,-0.26458 m 174.095844,0 -1.85209,1.85208 1.85209,-1.85208 m -77.52293,0.35269 c 0.20453,0 0.0423,0.13176 -0.0881,0.0884 l 0.0881,-0.0884 m 5.82084,-0.0881 -0.52917,0.79375 0.52917,-0.79375 m 25.92917,0.0881 0.0881,0.0884 c -0.13044,0.0434 -0.29263,-0.0884 -0.0881,-0.0884 m 15.875,-0.0881 -0.52917,0.52917 v -0.52917 h 0.52917 m 3.70417,0.0881 0.0881,0.0884 c -0.13044,0.0434 -0.29262,-0.0884 -0.0881,-0.0884 m -55.29793,0.17647 v 0.26459 l -1.85208,0.79375 1.85208,-1.05834 m 83.07918,0.35269 c 0.20452,0 0.0423,0.13177 -0.0881,0.0884 l 0.0881,-0.0884 m -74.08334,0.17648 -0.26459,0.26458 0.26459,-0.26458 m 33.60209,0 v 0.52917 h -0.52917 v -0.52917 h 0.52917 m -122.502095,0.26458 -0.79375,0.79375 0.79375,-0.79375 m 121.708345,0.79375 -0.79375,0.26459 -0.79375,-0.79375 1.5875,0.52916 m 42.068747,-0.79375 -0.26459,0.26459 0.26459,-0.26459 m 5.02708,0 -1.05833,1.05834 1.05833,-1.05834 m -192.352088,0.79375 -0.79375,-0.52916 0.79375,0.52916 m 100.277081,-0.52916 -0.26458,0.26458 0.26458,-0.26458 m 44.18543,0 0.26458,0.26458 -0.26458,-0.26458 m -132.820844,0.26458 -0.529167,0.52917 0.529167,-0.52917 m 156.897924,0.0881 0.0881,0.0884 c -0.13044,0.0434 -0.29263,-0.0884 -0.0881,-0.0884 m -29.10417,0.17647 -0.79374,0.79375 0.79374,-0.79375 m 43.39167,0.0881 c 0.20452,0 0.0423,0.13176 -0.0881,0.0884 l 0.0881,-0.0884 m -69.32084,0.17648 -1.05833,1.05833 1.05833,-1.05833 m 56.09167,0 -0.26458,0.26458 0.26458,-0.26458 m -169.068754,0.26458 0.264583,0.52917 -0.264583,-0.52917 m 97.631254,0 v 0.26458 l -1.05834,0.26459 1.05834,-0.52917 m 44.97917,0 -0.52917,0.52917 v -0.52917 h 0.52917 m 1.32292,0 -0.26459,0.26458 0.26459,-0.26458 m 18.69731,0.17648 -0.0884,0.17621 0.0884,-0.17621 m 13.58185,-0.17648 -0.26458,0.26458 0.26458,-0.26458 m -67.99792,0.26458 -0.26458,0.26459 0.26458,-0.26459 m 55.03334,0 0.79375,0.26459 v 0.26458 l -1.05833,-0.26458 0.26458,-0.26459 m 14.02292,0 -0.26459,0.26459 0.26459,-0.26459 m -175.683344,0.26459 -0.264584,0.26458 0.264584,-0.26458 m 130.439584,0 -0.26458,0.26458 0.26458,-0.26458 m 30.95626,0.79375 -0.79375,-0.26459 -1.85209,2.11667 -0.26458,-1.05833 1.85208,-1.5875 1.05834,0.79375 m 3.70416,-0.79375 -0.26458,0.26458 0.26458,-0.26458 m 2.91042,0.0881 c 0.20452,0 0.0423,0.13177 -0.0881,0.0884 l 0.0881,-0.0884 m 26.722917,-0.0881 0.26458,0.26458 -0.26458,-0.26458 m -54.504167,0.26458 -0.79375,0.52917 v -0.26459 l 0.79375,-0.26458 m 18.52083,0.0881 c 0.20453,0 0.0423,0.13176 -0.0881,0.0884 l 0.0881,-0.0884 m 20.90209,-0.0881 -0.26459,0.26458 0.26459,-0.26458 m 9.789577,0 v 0.52917 l -0.52917,-0.52917 h 0.52917 m -191.822921,0.26458 -1.058334,1.05834 1.058334,-1.05834 m 18.256249,0 -0.529166,0.79375 0.529166,-0.79375 m 94.191665,0.0881 0.0881,0.0884 c -0.13044,0.0434 -0.29263,-0.0884 -0.0881,-0.0884 m 35.71876,-0.0881 -1.32292,1.5875 1.32292,-1.5875 m 32.01458,0 -1.05833,1.05834 1.05833,-1.05834 m -68.35061,0.44106 -0.0884,0.17622 0.0884,-0.17622 m 20.46102,-0.17647 -1.05833,1.05833 1.05833,-1.05833 m 22.22501,0 v 0.26458 1.05833 l -0.79375,-1.32291 h 0.79375 m -153.193758,0.26458 -0.264583,0.26458 0.264583,-0.26458 m 112.977088,0 -0.26459,0.26458 0.26459,-0.26458 m 47.625,0 0.26459,0.26458 -0.26459,-0.26458 m 1.5875,0.0881 c 0.20453,0 0.0423,0.13176 -0.0881,0.0884 l 0.0881,-0.0884 m -162.718754,0.44106 -1.5875,1.5875 1.5875,-1.5875 m 33.337501,0.26458 v 0.26458 l 1.322916,-0.26458 h -1.322916 m 5.55625,0 v 0.26458 h 1.3229 l -1.322916,-0.26458 m 85.460419,0 -0.26459,0.26458 0.26459,-0.26458 m 53.975,0 -0.26458,0.26458 0.26458,-0.26458 m 16.668747,0 -0.52917,0.52917 0.52917,-0.52917 m -193.145834,0.26458 -0.529167,0.52917 v -0.52917 h 0.529167 m 49.741667,0 0.264583,0.26459 -0.264583,-0.26459 m 67.73333,0 -0.52916,0.52917 0.52916,-0.52917 m 78.052087,0 -0.79375,0.79375 0.26458,-0.79375 h 0.52917 m -181.768751,0.26459 -0.264583,0.26458 0.264583,-0.26458 m 73.2895843,0 v 0.26458 h 0.79375 l -0.79375,-0.26458 m 50.2708397,0 -0.52917,0.52916 0.52917,-0.52916 m -142.610424,0.26458 -0.529166,0.52917 0.529166,-0.52917 m 133.614584,0 -2.11667,2.11667 2.11667,-2.11667 m 58.472917,0 -0.52917,0.52917 0.52917,-0.52917 m 6.87917,0 v 0.52917 h -0.52917 l 0.52917,-0.52917 m -25.399997,0.26458 -1.32292,1.32292 1.32292,-1.32292 m -132.556256,0.26459 0.264583,0.52916 -0.264583,-0.52916 m 69.849996,0 -0.26458,0.26458 0.26458,-0.26458 m 23.28334,0.26458 -0.26459,0.26458 0.26459,-0.26458 m 10.05417,0 -0.26459,0.26458 0.26459,-0.26458 m 20.28481,0.17648 -0.0884,0.17621 0.0884,-0.17621 m 1.6756,-0.17648 -0.52916,0.79375 v -0.79375 h 0.52916 m -149.754167,0.26458 0.264583,0.26459 -0.264583,-0.26459 m 159.543757,0 -1.32292,1.32292 0.79375,-1.32292 h 0.52917 m -66.14584,0.26459 -0.26458,0.26458 0.26458,-0.26458 m 33.86667,0 -0.26458,0.26458 0.26458,-0.26458 m 8.20208,0 -0.52916,0.52916 0.52916,-0.52916 m 4.49792,0 v 0.52916 h -0.52917 v -0.52916 h 0.52917 m 10.84792,0 -0.26459,0.26458 0.26459,-0.26458 m 6.87916,0 -0.52916,0.52916 0.52916,-0.52916 m -175.947917,0.26458 -0.264583,0.26458 0.264583,-0.26458 m 1.322917,0 -0.264584,0.79375 h -0.264583 l 0.529167,-0.79375 m 46.566667,0 -0.264583,0.26458 0.264583,-0.26458 m 42.8624993,0 -0.264583,0.26458 0.264583,-0.26458 m 25.9291637,0 -0.26458,1.5875 -2.11667,1.32292 1.32292,-1.32292 h -0.52917 l 1.5875,-1.5875 m 50.27084,0 -0.26458,0.26458 0.26458,-0.26458 m -126.470836,0.26458 -0.264583,0.26459 0.264583,-0.26459 m 1.852083,0 -0.79375,0.52917 0.79375,-0.52917 m 7.9375,0 v 0.52917 h -0.529167 l 0.529167,-0.52917 m 106.097923,0 -0.26459,0.26459 0.26459,-0.26459 m -109.00834,0.26459 -0.79375,0.79375 0.79375,-0.79375 m 28.310417,0 0.529166,0.79375 -0.529166,-0.79375 m 1.852083,0.0881 0.08811,0.0884 c -0.130439,0.0434 -0.292629,-0.0884 -0.08811,-0.0884 m 2.645833,0.70565 -1.5875,-0.26459 c 0.686858,-0.47572 1.097492,-0.42254 1.5875,0.26459 m 41.274997,-0.79375 -0.26458,0.79375 h -0.26458 l 0.52916,-0.79375 m 1.5875,0 -0.26458,0.26458 0.26458,-0.26458 m 25.40001,0 -1.85209,1.85208 1.85209,-1.85208 m -90.487507,0.26458 0.264584,1.05833 h 1.5875 v 0.26459 l -2.645834,-0.52917 v -0.52917 l 0.79375,-0.26458 m 3.439584,0 -0.264584,0.26458 0.264584,-0.26458 m 5.291666,0 -0.264583,0.26458 0.264583,-0.26458 m 6.085417,0 v 0.26458 h -0.79375 l 0.79375,-0.26458 m 60.58958,0 v 0.26458 l -1.85208,1.05834 1.85208,-1.32292 m 69.761897,0.17648 -0.0884,0.17621 0.0884,-0.17621 m -175.330644,0.0881 -1.322917,1.32292 1.322917,-1.32292 m 23.812501,0 -0.529167,0.52917 v -0.52917 h 0.529167 m 16.404166,0 0.264583,0.52917 h -0.529166 l 0.264583,-0.52917 m 1.058333,0 v 0.52917 l -0.529166,-0.52917 h 0.529166 m 13.4937503,0 -0.264583,0.26459 0.264583,-0.26459 m 78.0520867,0 -0.26458,0.26459 0.26458,-0.26459 m -104.51042,0.26459 -0.264583,0.26458 0.264583,-0.26458 m 6.614583,0.0881 0.08811,0.0884 c -0.13044,0.0434 -0.29263,-0.0884 -0.08811,-0.0884 m 7.14375,-0.0881 0.264584,0.79375 -0.264584,-0.79375 m 11.024394,0.17647 -0.08837,0.17622 0.08837,-0.17622 m 11.4651893,-0.17647 -0.529166,0.52916 0.529166,-0.52916 m 23.2833337,0 0.26458,0.26458 -0.26458,-0.26458 m 25.92917,0 -1.32292,1.32291 1.32292,-1.32291 m 19.57917,0 -0.26459,0.26458 0.26459,-0.26458 m 14.81666,0 -1.5875,1.85208 1.5875,-1.85208 m 5.55625,0 -0.26458,0.26458 0.26458,-0.26458 m -106.627083,0.26458 -0.264584,0.26458 0.264584,-0.26458 m 3.174999,0 1.058334,0.79375 -1.322917,-0.52917 0.264583,-0.26458 m 3.6160613,0.17648 -0.08837,0.17621 0.08837,-0.17621 m 7.496439,-0.17648 v 0.52917 l -0.529166,-0.52917 h 0.529166 m -32.5437493,0.35269 0.08811,0.0884 c -0.13044,0.0434 -0.292629,-0.0884 -0.08811,-0.0884 m 9.260416,-0.0881 v 0.26459 h -0.79375 l 0.79375,-0.26459 m 18.7854173,0 -0.264584,0.26459 0.264584,-0.26459 m 84.5785697,0.17648 -0.0884,0.17621 0.0884,-0.17621 m -129.822319,0.0881 0.79375,0.26458 v 0.26458 l -1.058334,-0.26458 0.264584,-0.26458 m 31.220832,0 -0.264583,0.26458 0.264583,-0.26458 m 118.797917,0 -2.11666,1.5875 v -0.26459 l 2.11666,-1.32291 m -16.93333,0.26458 -0.52917,0.52917 v -0.52917 h 0.52917 m 26.458327,0 -0.26458,0.26458 0.26458,-0.26458 m 5.02709,0 -0.79375,1.5875 h -0.26459 l 0.52917,-1.5875 h 0.52917 m -202.229856,0.44106 -0.08821,0.17621 0.08821,-0.17621 m 41.27508,0 -0.08837,0.17621 0.08837,-0.17621 m 2.469356,-0.17648 -0.264583,0.26459 0.264583,-0.26459 m 32.279166,0 0.264583,0.52917 -0.264583,-0.52917 m 46.302087,0 v 0.52917 h -0.52917 l 0.52917,-0.52917 m 67.733327,0 -0.264577,0.26459 0.264577,-0.26459 m -131.762497,0.79375 0.79375,4.497923 -15.610416,0.26458 c -0.14949,-1.12897 0.567796,-4.372503 1.678252,-4.934743 1.027906,-0.52044 3.048529,-0.073 4.18756,-0.0154 3.021806,0.15267 5.969794,-0.25902 8.950854,0.18759 m 0,-0.52916 -0.264583,0.26458 0.264583,-0.26458 m 1.852083,0 v 0.26458 h -1.322916 v 0.26458 l 2.116666,0.26459 -0.79375,3.968753 h -0.529166 l -1.058334,-4.762503 h 1.5875 m 5.291667,5.820833 h -0.264583 l -2.910417,-1.85208 h -0.264583 l 0.264583,1.32291 h -1.852083 l 0.79375,-3.175003 0.79375,0.26459 v -1.05834 h -0.264584 v 0.52917 c -0.454818,-1.65894 3.868473,-2.02988 4.834467,-1.30916 0.94959,0.70856 0.611717,2.69452 0.42201,3.675863 -0.173302,0.89482 -0.820473,1.18083 -1.55231,1.60205 m 2.910417,-5.556253 -0.264584,0.26458 0.264584,-0.26458 m 44.185413,0 -0.79375,0.52917 0.79375,-0.52917 m 0.97023,0.17648 -0.0884,0.17621 0.0884,-0.17621 m 20.10833,0 -0.0884,0.17621 0.0884,-0.17621 m -93.309806,0.0881 h 0.264583 l 2.116667,4.497923 -2.116667,-0.26458 -0.264583,-4.233343 m 3.704166,0 -1.058333,3.439593 -1.5875,-3.439593 h 2.645833 m 4.145228,0.0881 0.176212,0.0884 -0.176212,-0.0884 m 27.604772,0.17648 1.058333,4.762503 -3.96875,-0.26459 v -4.762503 l 2.910417,0.26459 m 2.645833,0 -0.79375,3.704163 h -0.264583 l -1.322917,-3.704163 0.264583,-0.26459 2.116667,0.26459 m 4.4979173,0.26458 6.35,-0.52917 0.529166,3.704173 h -0.529166 v 0.26458 h 0.529166 l -0.529166,1.32292 -5.810515,-0.23045 -2.76225,-0.006 -1.2168193,-3.996793 h -0.264583 c 0.124354,1.57321 0.9760483,3.429263 -0.79375,4.233333 -0.142875,-1.37821 -0.261408,-3.839903 0.899054,-4.813833 0.6770693,-0.56832 3.4321753,-0.94827 3.5988633,0.0513 m 46.3020797,-0.44106 c 0.20453,0 0.0423,0.13176 -0.0881,0.0884 l 0.0881,-0.0884 m 14.28751,-0.0881 -0.52917,0.79375 v -0.79375 h 0.52917 m 6.35,0 -0.79375,0.52917 0.79375,-0.52917 m -123.560424,0.26459 -0.79375,1.05833 0.79375,-1.05833 m 18.520834,0 0.79375,1.5875 -0.79375,-1.5875 m 42.2452273,0.0881 0.176212,0.0884 -0.176212,-0.0884 m 16.2276927,-0.0881 -0.52917,0.52916 0.52917,-0.52916 m 57.15,0 0.26458,0.52916 h -0.52916 l 0.26458,-0.52916 m 11.64167,0.26458 -0.79375,0.79375 0.79375,-0.79375 m -166.687507,0.52917 -0.264583,0.26458 0.264583,-0.26458 m 8.995833,0 v 0.52916 h -0.529166 l 0.529166,-0.52916 m 114.564584,0 -0.26458,0.26458 0.26458,-0.26458 m 15.61042,0 -0.26458,0.26458 0.26458,-0.26458 m -26.72292,0.26458 -0.26458,0.26458 0.26458,-0.26458 m 5.02708,0 c 0.12436,0.957 1.43008,1.14221 1.87405,2.116673 0.58182,1.27608 -0.34661,1.98358 -0.33788,3.16759 0.0111,1.51289 1.38166,2.23096 0.39688,3.97616 -1.38139,2.44739 -7.58984,2.2172 -8.42275,-0.52917 -0.51461,-1.69704 0.37148,-2.41459 1.19804,-3.70417 l -1.32292,1.05834 -0.26458,-1.5875 0.26458,-3.175003 1.05833,-0.79375 5.55625,-0.52917 m 8.20209,0 v 0.26458 h -0.79375 l 0.79375,-0.26458 m 6.61458,0 -0.26458,0.26458 0.26458,-0.26458 m 1.32292,0 -0.26459,0.26458 0.26459,-0.26458 m -135.995837,0.26458 -0.264583,0.26459 0.264583,-0.26459 m 159.014587,0 -0.26458,0.26459 0.26458,-0.26459 m 40.745827,0 -0.26458,2.381253 h 0.26458 v -0.79375 h 0.26459 l 0.26458,1.05834 h -1.05833 l 0.52916,-2.645843 m -64.293747,0.26459 -0.52917,0.52916 0.52917,-0.52916 m -140.49375,0.26458 -0.264584,0.26458 0.264584,-0.26458 m 15.610416,0 -0.529166,0.52917 v -0.52917 h 0.529166 m 32.014584,0 v 1.852083 h 0.264584 l -0.264584,-1.852083 m 16.139583,0.26458 v 1.058343 h 0.264584 l -0.264584,-1.058343 m 104.510417,0.26459 -1.32291,2.116663 1.32291,-2.116663 m 20.37292,0 -1.05833,1.587503 1.05833,-1.587503 m -50.27084,0.264583 -0.79375,0.79375 0.26459,-0.79375 h 0.52916 m 36.24792,0 -0.26458,0.26458 0.26458,-0.26458 m 32.014587,0 v 21.16667 l 0.52916,-0.26459 v 1.05834 h 0.26459 v -21.96042 h -0.79375 m -193.675004,0.26458 0.264583,0.26459 -0.264583,-0.26459 m 4.497917,0 -0.529167,0.79375 0.529167,-0.79375 m 185.737497,0 v 0.52917 h -0.52916 l 0.52916,-0.52917 m -105.3041667,0.26459 -0.26458,0.26458 0.26458,-0.26458 m 19.5791697,0 -1.05833,1.32291 1.05833,-1.32291 m 56.62084,0 -0.26459,0.26458 0.26459,-0.26458 m 8.73125,0 -1.05834,1.05833 1.05834,-1.05833 m 1.05833,0 -0.26458,0.26458 0.26458,-0.26458 m -51.85834,0.26458 v 2.38125 h 0.26459 l 0.26458,-0.79375 -0.26458,-0.79375 1.32291,0.52917 v -0.26459 l -1.5875,-1.05833 m 63.235417,0 -1.05833,1.05833 1.05833,-1.05833 m -191.029164,0.26458 v 0.52917 h -0.529167 l 0.529167,-0.52917 m 128.058337,0 -0.26459,0.26459 0.26459,-0.26459 m 51.06458,0 -1.05833,1.05834 1.05833,-1.05834 m -177.888186,0.44106 -0.08821,0.17622 0.08821,-0.17622 m 1.411102,-0.17647 -0.264583,0.26458 0.264583,-0.26458 m 116.681254,0 -0.26459,1.05833 h 0.26459 v -1.05833 m 62.44167,0 -1.05834,1.05833 1.05834,-1.05833 m -118.621446,0.35269 0.176212,0.0884 -0.176212,-0.0884 m 54.327686,-0.0881 1.5875,1.32292 v -0.26459 l -1.05833,-1.05833 h -0.52917 m 62.44167,0.52917 h -0.79375 l 0.26459,-0.52917 0.52916,0.52917 m 4.49792,-0.52917 -0.26458,0.26458 0.26458,-0.26458 m -169.59792,0.52917 -0.264584,0.26458 0.264584,-0.26458 m 10.583333,0 -0.264584,0.26458 0.264584,-0.26458 m 68.7916673,0 v 0.52916 h -0.52917 l 0.52917,-0.52916 m 47.0958397,0 -0.26459,0.26458 0.26459,-0.26458 m 59.002077,0.0881 c 0.20452,0 0.0423,0.13177 -0.0881,0.0884 l 0.0881,-0.0884 m -201.436103,0.35296 -0.08821,0.17621 0.08821,-0.17621 m 14.640269,-0.17648 -0.264583,0.26458 0.264583,-0.26458 m 15.081251,0 -0.264584,0.26458 0.264584,-0.26458 m 100.365186,0.17648 0.0884,0.17621 -0.0884,-0.17621 m -108.831854,0.0881 -0.529167,0.52917 0.529167,-0.52917 m 35.983334,0 v 0.26459 h -0.79375 l 0.79375,-0.26459 m 17.4625,0 -0.529167,0.52917 0.529167,-0.52917 m 76.46459,0 -0.79375,0.79375 0.79375,-0.79375 m 14.2875,0 -0.52917,0.52917 0.52917,-0.52917 m 29.104157,0 -0.26458,0.26459 0.26458,-0.26459 m -195.527081,0.26459 3.175,1.5875 -3.439583,0.52916 -0.264583,-2.11666 h 0.529166 m 1.852084,0.0881 c 0.204628,0 0.04239,0.13176 -0.08819,0.0884 l 0.08819,-0.0884 m 24.077083,-0.0881 -1.322917,1.32291 1.322917,-1.32291 m 22.225001,0.52916 h -0.79375 l 0.264583,-0.52916 0.529167,0.52916 m 16.933333,-0.52916 -0.264584,0.26458 0.264584,-0.26458 m -30.1625,0.26458 -0.529166,0.79375 0.529166,-0.79375 m 10.583333,0 -0.264583,0.26458 0.264583,-0.26458 m 33.602083,0 -0.264583,0.26458 0.264583,-0.26458 m 51.593747,0 0.26459,0.26458 -0.26459,-0.26458 m 35.71876,0.26458 -0.26459,0.26459 0.26459,-0.26459 m 20.90208,0 -0.26458,0.26459 0.26458,-0.26459 m -148.166669,0.35269 c 0.204522,0 0.04233,0.13176 -0.08811,0.0884 l 0.08811,-0.0884 m 9.524999,0 0.08811,0.0884 c -0.130439,0.0434 -0.292629,-0.0884 -0.08811,-0.0884 m 3.439583,-0.0881 v 0.52916 h -0.529166 v -0.52916 h 0.529166 m 18.25625,0 -0.264583,0.26458 0.264583,-0.26458 m 1.5875,0 -0.79375,1.05833 0.79375,-1.05833 m 26.9874973,0 -0.26458,0.26458 0.26458,-0.26458 m 17.4624997,0 0.26459,0.26458 -0.26459,-0.26458 m 21.96042,0 0.26458,1.32291 h -0.26458 v -1.32291 m -76.729167,0.26458 -0.264583,0.26458 0.264583,-0.26458 m 11.90625,0 -0.264583,0.26458 0.264583,-0.26458 m 70.908337,0 -0.26458,0.26458 0.26458,-0.26458 m -127.52917,0.26458 v 0.52917 h -0.529167 l 0.529167,-0.52917 m 31.485417,0 -0.264583,0.26459 0.264583,-0.26459 m 112.712503,0 -0.26458,0.26459 0.26458,-0.26459 m 29.897917,0 -0.79375,1.32292 h -0.26459 l 1.05834,-1.32292 m 5.29166,0 -0.26458,0.26459 0.26458,-0.26459 m -180.710414,0.26459 -0.264583,0.26458 0.264583,-0.26458 m 58.208334,0.0881 c 0.204522,0 0.04233,0.13176 -0.08811,0.0884 l 0.08811,-0.0884 m 31.750003,-0.0881 v 0.52916 h -0.52917 l 0.52917,-0.52916 m 9.43689,0.17647 -0.0884,0.17622 0.0884,-0.17622 m 45.33186,-0.17647 -0.26458,0.26458 0.26458,-0.26458 m 27.25208,0 0.26459,0.52916 -0.26459,-0.52916 m -122.766667,0.26458 -0.264583,0.26458 0.264583,-0.26458 m 5.291667,0 -0.264583,0.26458 0.264583,-0.26458 m 50.00625,0 1.32292,0.79375 -1.5875,1.05833 1.5875,0.52917 v -0.26458 l -0.79375,-0.52917 1.32291,0.26458 v -1.32291 l -1.85208,-0.52917 m 17.99167,0 -0.52917,0.52917 v -0.52917 h 0.52917 m 9.525,0 -0.26458,0.26458 0.26458,-0.26458 m 13.49375,0 -0.79375,2.64583 h -0.26458 l 1.05833,-2.64583 m 14.46398,0.17648 -0.0884,0.17621 0.0884,-0.17621 m 20.461017,-0.17648 -0.52917,1.05833 h -0.26458 l 0.79375,-1.05833 m -122.854773,0.44106 -0.08837,0.17621 0.08837,-0.17621 m 24.4297763,-0.17648 -0.79375,0.52917 0.79375,-0.52917 m 73.0249997,0 -0.26458,0.26459 0.26458,-0.26459 m -34.13125,0.26459 -1.05834,1.85208 1.05834,-1.85208 m 1.85208,0 -0.26458,0.26458 0.26458,-0.26458 m 36.5125,0 -0.52916,0.52916 0.52916,-0.52916 m -168.275,0.26458 h 0.264583 l 0.264583,0.26458 v 0.52917 c -0.595524,-0.12515 -0.824918,-0.22754 -0.529166,-0.79375 m 20.637499,0 -0.529166,1.5875 h -0.264584 l 0.79375,-1.5875 m 6.085418,0 -0.264583,0.26458 0.264583,-0.26458 m 1.322917,0 -0.264583,0.26458 0.264583,-0.26458 m 109.802086,0 -0.26458,0.26458 0.26458,-0.26458 m 25.92917,0 -0.79375,0.79375 0.79375,-0.79375 m -142.34584,0.26458 -0.264584,0.26459 0.264584,-0.26459 m 7.672917,0 v 0.52917 h -0.529166 l 0.529166,-0.52917 m 4.233334,0 -0.264584,0.26459 0.264584,-0.26459 m 56.6208293,0 -1.32291,1.32292 1.32291,-1.32292 m 18.7854197,0 0.26458,1.05834 h -0.26458 v -1.05834 m 38.62917,0 -1.32292,1.32292 1.32292,-1.32292 m 43.656247,0 -1.5875,1.32292 v -0.26458 l 1.5875,-1.05834 m -196.585417,0.26459 -0.529167,0.52916 v -0.52916 h 0.529167 m 3.96875,0 -0.529167,1.85208 h -0.264583 l 0.79375,-1.85208 m 3.175,0 -1.058334,1.32291 1.058334,-1.32291 m 24.606251,0 -0.264584,0.26458 0.264584,-0.26458 m 24.341666,0 -0.529167,0.79375 0.529167,-0.79375 m 9.789583,0 -1.058333,1.05833 1.058333,-1.05833 m 21.1666663,0 -0.529166,1.32291 h -0.264584 l 0.79375,-1.32291 m 42.8625037,0 -1.85209,0.26458 v 0.26458 c 0.59637,0.15796 2.22436,0.47149 1.85209,-0.52916 m -132.027087,0.26458 -0.264583,0.26458 0.264583,-0.26458 m 40.481251,0 v 1.05833 h -1.058333 l 0.529166,-1.05833 h 0.529167 m 28.574999,0 -0.79375,1.05833 0.79375,-1.05833 m 90.487507,0 0.26458,0.79375 -0.26458,-0.79375 m 32.279157,0 -0.26458,0.26458 0.26458,-0.26458 m 3.96875,0 -0.52916,0.52917 0.52916,-0.52917 m -181.768747,0.26458 -0.264584,0.26459 0.264584,-0.26459 m 11.818143,0.17648 -0.08837,0.17621 0.08837,-0.17621 m 1.14644,-0.17648 v 0.79375 h -0.529167 v -0.79375 h 0.529167 m 26.19375,0 -0.264583,0.26459 0.264583,-0.26459 m -31.75,0.35269 c 0.204523,0 0.04233,0.13176 -0.08811,0.0884 l 0.08811,-0.0884 m 150.812507,-0.0881 -0.26459,0.26458 0.26459,-0.26458 m -167.74584,0.52916 v 0.52917 l -0.529167,-0.52917 h 0.529167 m 38.100001,0 -0.264584,0.26459 0.264584,-0.26459 m 33.602082,0 -0.264583,0.26459 0.264583,-0.26459 m -55.5625,0.35269 c 0.204523,0 0.04233,0.13176 -0.08811,0.0884 l 0.08811,-0.0884 m 64.8229173,0.70565 h -1.058334 c 0.418042,-0.5678 0.651405,-0.57415 1.058334,0 m 51.8583297,-0.79375 -0.26458,0.26458 0.26458,-0.26458 m 39.15834,0 -2.11667,1.32291 0.52917,1.85209 -0.79375,-1.85209 -1.05833,0.52917 0.26458,2.11667 h 0.26458 v -0.79375 h 0.26459 l -0.52917,10.84791 c 4.32488,0 13.37019,1.59438 14.2875,-4.49791 h -0.26458 l -0.79375,1.32291 0.26458,-2.64583 0.26458,-1.05833 1.05834,1.5875 c -0.42254,-1.74916 -0.73554,-3.71502 -1.86505,-5.19219 -2.06031,-2.69425 -6.53627,-2.21615 -9.51204,-2.21615 l -0.26458,-1.32291 m -128.587503,0.26458 v 0.26458 h -1.058333 l 1.058333,-0.26458 m 8.202083,0.26458 v 0.26459 h -1.058333 l 1.058333,-0.26459 m 8.202083,-0.26458 -0.79375,0.52917 0.79375,-0.52917 m 21.6958333,0 0.264584,0.52917 h -0.529167 l 0.264583,-0.52917 m 79.9041737,0 0.26458,0.52917 -0.26458,-0.52917 m -93.92709,0.26458 -0.264583,0.26459 0.264583,-0.26459 m 22.2250003,0 c 2.55005,1.07262 1.64782,5.25516 1.96427,7.67292 0.12726,0.97234 0.39872,2.6969 -0.3736,3.49647 -0.533131,0.55165 -1.504152,0.10054 -2.119837,-0.0569 -0.429419,-3.39884 -0.813329,-7.8904 0.529167,-11.1125 m 39.9520797,0 -0.52916,0.26459 v 0.26458 l 0.52916,-0.52917 m -57.149997,0.26459 v 0.52916 h -0.529166 l 0.529166,-0.52916 m 49.212497,0 -0.26458,0.26458 0.26458,-0.26458 m -103.716664,0.26458 -0.264583,0.79375 h -0.264584 l 0.529167,-0.79375 m 6.614584,0 -0.264584,0.26458 0.264584,-0.26458 m 25.4,0.0881 0.08811,0.0884 c -0.130439,0.0434 -0.292629,-0.0884 -0.08811,-0.0884 m 10.583333,0.17647 0.529167,5.29167 -3.439583,-0.26458 0.264583,-3.96875 c 0.599546,-1.26021 1.33641,-1.44172 2.645833,-1.05834 m 61.912497,-0.26458 -0.26458,0.26458 0.26458,-0.26458 m 29.10417,0 -0.52916,1.32292 h -0.26459 l 0.79375,-1.32292 m -102.129167,0.26458 -0.264583,0.26459 0.264583,-0.26459 m 12.7,0 -0.264583,0.26459 0.264583,-0.26459 m 16.1395833,0 -0.529166,0.52917 0.529166,-0.52917 m 35.4541637,0 -0.26458,0.26459 0.26458,-0.26459 m 18.43273,0.17648 -0.0884,0.17621 0.0884,-0.17621 m 26.01728,-0.17648 -0.26459,1.05834 h -0.26458 l 0.52917,-1.05834 m -139.700007,0.26459 -0.264584,0.26458 0.264584,-0.26458 m 61.1187503,0 -0.264583,0.26458 0.264583,-0.26458 m 82.1973167,0.17647 -0.0884,0.17622 0.0884,-0.17622 m 24.958937,-0.17647 -0.26459,1.32291 -0.264577,-1.32291 h 0.529167 m 9.78958,0 -0.79375,1.05833 0.79375,-1.05833 m -193.410417,0.26458 -0.79375,0.79375 0.79375,-0.79375 m 46.83125,0 -0.264583,0.26458 0.264583,-0.26458 m 23.01875,0 -0.529167,0.79375 v -0.79375 h 0.529167 m 16.1395833,0 v 0.79375 h -0.264583 l 0.264583,-0.79375 m 14.0229167,0 v 0.52917 h -0.52917 v -0.52917 h 0.52917 m 10.58333,0 2.38125,0.52917 v 0.26458 l -2.38125,0.52917 v -1.32292 m 16.66875,0 -0.26458,0.26458 0.26458,-0.26458 m 33.33751,0 v 0.26458 l -1.85209,1.5875 1.85209,-1.85208 m 26.722907,0 -0.26458,1.5875 h -0.26458 l 0.52916,-1.5875 m -40.216657,0.26458 v 0.79375 h -0.26459 l 0.26459,-0.79375 m 20.6375,0 -0.26459,0.26459 0.26459,-0.26459 m -128.85209,0.26461 v 0.79375 l -0.529166,-0.79375 h 0.529166 m 7.849394,0.17647 -0.08837,0.17622 0.08837,-0.17622 m 69.144356,0.35269 -1.05833,-0.26458 1.05833,0.26458 m 12.7,-0.52916 -0.52917,0.79375 0.52917,-0.79375 m 3.96875,0.0881 c 0.20452,0 0.0423,0.13176 -0.0881,0.0884 l 0.0881,-0.0884 m 1.32292,-0.0881 -1.05834,2.11666 -0.79375,-0.26458 -0.26458,-1.05833 0.26458,-0.26459 0.26459,0.52917 1.5875,-1.05833 m 38.89375,0 -0.26458,0.26458 0.26458,-0.26458 m 3.61606,0.17647 -0.0884,0.17622 0.0884,-0.17622 m 6.17352,-0.17647 -0.26458,0.26458 0.26458,-0.26458 m -180.445834,0.26458 -0.79375,0.79375 0.79375,-0.79375 m 56.091667,0 -0.264583,0.26458 0.264583,-0.26458 m 17.4625003,0 -0.529167,0.52917 v -0.52917 h 0.529167 m 0.705644,0.17648 -0.08837,0.17621 0.08837,-0.17621 m 7.761023,-0.17648 -0.79375,1.05833 0.79375,-1.05833 m 42.0687497,0 -0.52917,0.52917 0.52917,-0.52917 m 14.2875,0 -0.26458,0.26458 0.26458,-0.26458 m 28.75148,0.17648 -0.0884,0.17621 0.0884,-0.17621 m 19.138107,-0.17648 -0.26459,0.26458 0.26459,-0.26458 m -193.586818,0.44106 0.08821,0.17621 -0.08821,-0.17621 m 30.603482,-0.17648 -0.264584,0.26459 0.264584,-0.26459 m 76.993749,0.26459 v 0.26458 h -1.05833 l 1.05833,-0.26458 m 44.18542,-0.26459 -0.26458,0.26459 0.26458,-0.26459 m 38.893747,0 -0.26458,0.26459 0.26458,-0.26459 m -187.325001,0.26459 -0.264583,0.26458 0.264583,-0.26458 m 47.625001,0 -0.264584,0.26458 0.264584,-0.26458 m 9.789583,0 -0.264583,0.52916 0.264583,-0.52916 m 14.993144,0.17647 -0.08837,0.17622 0.08837,-0.17622 m 2.7339393,-0.17647 -0.2645833,0.26458 0.2645833,-0.26458 m 46.5666667,0.52916 -0.79375,-0.52916 0.79375,0.52916 m 55.29792,-0.52916 -0.26458,0.26458 0.26458,-0.26458 m -141.640192,0.44106 -0.08837,0.17621 0.08837,-0.17621 m 5.115189,-0.17648 -0.264583,0.26458 0.264583,-0.26458 m 7.672916,0 -1.058333,1.05833 1.058333,-1.05833 m 26.19375,0 -0.264583,0.26458 0.264583,-0.26458 m 19.3145873,0 -0.26459,0.26458 0.26459,-0.26458 m 3.4395797,0 0.26458,0.52917 h -0.52916 l 0.26458,-0.52917 m 15.34583,0 -0.26458,0.26458 0.26458,-0.26458 m 67.46876,0 0.52916,0.79375 -0.79375,0.26458 0.26459,-1.05833 m 10.054157,0 -0.26458,0.26458 0.26458,-0.26458 m -145.785413,0.26458 -0.264584,0.26459 0.264584,-0.26459 m 6.702689,0.17648 0.08837,0.17621 -0.08837,-0.17621 m 51.798007,0.0505 c 2.12011,-0.3302 3.94468,2.21297 1.29117,2.86279 -2.28759,0.56038 -3.64226,-2.49661 -1.29117,-2.86279 m 2.88264,-0.22702 0.26458,0.52917 -0.26458,-0.52917 m 8.20208,0 -0.26458,0.26459 0.26458,-0.26459 m 44.97917,0 0.52917,1.85209 c -0.84535,1.6719 0.50773,3.5597 -2.64584,2.38125 l 2.11667,-4.23334 m 15.875,7.67292 0.52917,0.26458 v 0.26459 l -2.11667,-0.79375 c 0.18574,-1.18481 -0.17515,-2.25769 -0.0699,-3.43932 0.0865,-0.96997 -0.1061,-2.21721 0.18733,-3.14008 0.32464,-1.01917 1.87139,-1.04537 2.55614,-0.36803 1.89388,1.87431 1.66184,6.46192 -1.08612,7.21201 m 3.96875,-7.67292 v 0.52917 l -0.52917,-0.52917 h 0.52917 m 1.05833,0 0.26459,0.26459 -0.26459,-0.26459 m 7.937497,0 v 0.26459 h -1.05833 l 1.05833,-0.26459 m -131.497914,0.26459 v 0.79375 h -0.264583 l 0.264583,-0.79375 m -29.456856,0.44106 -0.08837,0.17621 0.08837,-0.17621 m 46.919356,-0.17648 -0.264583,0.26458 0.264583,-0.26458 m 34.924997,0 -0.26458,0.26458 0.26458,-0.26458 m 19.84375,0 -0.26458,1.05833 h -0.26458 l 0.52916,-1.05833 m 28.83959,0 -0.52917,0.52917 0.52917,-0.52917 m 5.02708,0 v 0.79375 h -0.26458 l 0.26458,-0.79375 m 12.17084,0 v 0.26458 h 0.79375 l -0.79375,-0.26458 m -181.856943,0.44106 -0.08821,0.17621 0.08821,-0.17621 m 19.667353,-0.17648 1.058333,3.70417 h -2.38125 l 0.264583,-1.05833 -0.529166,0.26458 1.058333,-2.91042 h 0.529167 m 60.854166,0 1.322917,3.96875 -2.38125,-0.26458 1.058333,-3.70417 m 14.1993943,0.17648 -0.08837,0.17621 0.08837,-0.17621 m 97.9839367,-0.17648 0.52917,1.32292 -0.52917,-1.32292 m -189.706247,0.26459 -0.264584,0.26458 0.264584,-0.26458 m 44.45,0 -0.529166,0.79375 0.529166,-0.79375 m 62.17708,0 0.26459,0.26458 -0.26459,-0.26458 m 43.39167,0 -1.05833,2.38125 h -0.26458 l 1.32291,-2.38125 m 15.08125,0 -0.26458,0.26458 0.26458,-0.26458 m 16.13959,0 -0.26459,0.26458 0.26459,-0.26458 m 2.64583,0 -0.26458,0.26458 0.26458,-0.26458 m -28.83958,0.26458 -0.79375,1.32292 1.05833,0.26458 v -0.26458 l -0.79375,-0.26459 0.52917,-1.05833 m -155.04584,0.26458 -0.79375,0.52917 0.79375,-0.52917 m 3.704166,0 -0.264583,0.26459 0.264583,-0.26459 m 65.087501,0 -0.264584,0.26459 0.264584,-0.26459 m 11.9062493,0 -0.264583,0.26459 0.264583,-0.26459 m 37.5708337,0 0.26458,0.26459 -0.26458,-0.26459 m 25.66459,0 -0.26459,0.26459 0.26459,-0.26459 m 19.05,0 0.26458,0.26459 -0.26458,-0.26459 m 18.52083,0 -0.26458,0.26459 0.26458,-0.26459 m 0.79375,0 -0.26458,0.26459 0.26458,-0.26459 m -183.620837,0.26459 -1.058333,1.32291 1.058333,-1.32291 m 44.450001,0 -0.264584,0.26458 0.264584,-0.26458 m 23.547916,0 -1.058333,1.05833 -0.264584,-0.79375 1.322917,-0.26458 m 38.1,0 v 0.52916 h -0.52917 l 0.52917,-0.52916 m 23.01875,0 -0.26458,0.26458 0.26458,-0.26458 m 48.68334,0 -1.85209,2.11666 1.85209,-2.11666 m 12.96458,0 -0.26458,0.26458 0.26458,-0.26458 m 3.968747,0 -0.26458,0.26458 0.26458,-0.26458 m -190.235417,0.26458 -0.529167,0.52917 0.529167,-0.52917 m 56.532727,0.17648 -0.08837,0.17621 0.08837,-0.17621 m 73.554163,0 -0.0884,0.17621 0.0884,-0.17621 m 11.20061,0.35269 -0.79375,-0.52917 0.79375,0.52917 m -76.729167,-0.26459 v 0.26459 l -1.5875,1.5875 h -0.264583 l 1.852083,-1.85209 m 13.4937503,0 c 0,0.8898 0.189442,1.64148 -0.79375,1.85209 l 0.79375,-1.85209 m 35.9833367,0 -0.26459,0.26459 0.26459,-0.26459 m 17.4625,0 0.52916,1.05834 h -0.26458 l -0.26458,-1.05834 m 1.5875,0 -0.26459,0.26459 0.26459,-0.26459 m 27.69315,0.17648 -0.0884,0.17621 0.0884,-0.17621 m -89.076487,0.0881 v 0.52916 h -0.529166 l 0.529166,-0.52916 m 91.016667,0 v 2.91041 h -0.26458 c -0.29289,-1.14353 -0.55298,-1.95659 0.26458,-2.91041 m 0.79375,0 v 1.05833 h -0.26458 l 0.26458,-1.05833 m -19.40268,0.44106 -0.0884,0.17621 0.0884,-0.17621 m 37.39435,-0.17648 -1.5875,1.5875 v -0.26458 l 1.05833,-1.32292 h 0.52917 m -10.84792,0.26458 v 0.79375 h -0.26458 l 0.26458,-0.79375 m 11.90625,0 -0.26458,0.26459 0.26458,-0.26459 m -140.49375,0.26459 0.264584,0.26458 -0.264584,-0.26458 m 13.49375,0 -0.79375,0.79375 0.264583,-0.79375 h 0.529167 m 5.820833,0.0881 0.08811,0.0884 c -0.13044,0.0434 -0.29263,-0.0884 -0.08811,-0.0884 m 0.79375,-0.0881 -0.264583,0.26458 0.264583,-0.26458 m 43.832727,0.17647 -0.0884,0.17622 0.0884,-0.17622 m 14.90477,-0.17647 -0.26458,0.26458 0.26458,-0.26458 m -48.418747,0.26458 -0.264583,0.26458 0.264583,-0.26458 m 31.220837,0.52917 h -0.79375 l 0.26458,-0.52917 0.52917,0.52917 m 3.70416,-0.52917 v 0.52917 h -0.52916 v -0.52917 h 0.52916 m -113.77083,0.26458 -0.264584,0.26459 0.264584,-0.26459 m 2.116666,0 v 0.52917 h -0.529166 l 0.529166,-0.52917 m 16.139584,0 v 0.79375 h -0.264584 l 0.264584,-0.79375 m 4.674393,0.17648 -0.08837,0.17621 0.08837,-0.17621 m 28.133941,-0.17648 v 2.64584 h -0.264534 l -0.264583,-1.32292 -0.79375,-1.05833 1.322917,-0.26459 m 34.6604163,0 -1.322917,2.91042 1.322917,-2.91042 m 112.1833367,0.26459 -0.79375,1.05833 0.79375,-1.05833 m -151.870837,0.26458 -1.058333,1.32292 1.058333,-1.32292 m 17.197917,0 -3.175,3.43958 2.645833,-3.43958 h 0.529167 m 1.058333,0.0881 c 0.204523,0 0.04233,0.13176 -0.08811,0.0884 l 0.08811,-0.0884 m 2.38125,-0.0881 -0.264583,0.26458 0.264583,-0.26458 m 17.7270833,0 v 0.52917 h -0.529167 v -0.52917 h 0.529167 m 41.5395867,0 -0.52917,0.52917 0.52917,-0.52917 m -17.4625,0.26458 -2.91042,3.70417 2.91042,-3.70417 m 70.37917,0 -1.5875,1.85209 1.5875,-1.85209 m -155.575007,0.26459 -0.264584,1.32291 h -0.264583 l 0.529167,-1.32291 m 69.5854173,0 -0.264584,0.79375 0.79375,-0.26459 -0.529166,2.64584 h -0.264584 c -0.444764,-1.19698 -0.558535,-2.13493 0.264584,-3.175 m 48.1541697,0 h 0.52916 l -0.52916,1.32291 v -0.26458 l 0.52916,-0.26458 -0.52916,-0.79375 m -132.29167,0.26458 v 1.05833 h -0.264584 l 0.264584,-1.05833 m 44.185417,0 v 1.05833 h -0.264583 l 0.264583,-1.05833 m 31.4854163,0 -0.264583,0.26458 0.264583,-0.26458 m 79.6395867,0 -0.26458,0.26458 0.26458,-0.26458 m -156.456939,0.44106 -0.08821,0.17621 0.08821,-0.17621 m 16.668829,0 -0.08837,0.17621 0.08837,-0.17621 m 45.59644,-0.17648 -0.264583,0.26459 0.264583,-0.26459 m 16.6687503,0.26459 -0.264584,0.26458 0.264584,-0.26458 m -76.7291673,0.26458 -0.264583,0.26458 0.264583,-0.26458 m -6.085417,0.26458 0.264584,0.26459 -0.264584,-0.26459 m 158.750004,0 -1.05833,1.05834 0.52916,-1.05834 h 0.52917 m -116.152086,0.26459 -0.529167,0.79375 0.529167,-0.79375 m -42.597918,0.26458 0.264584,0.26458 -0.264584,-0.26458 m 34.395835,0 0.264583,0.26458 -0.264583,-0.26458 m 47.6249993,0 v 1.05833 h -0.264584 l 0.264584,-1.05833 m 41.8041697,0 v 1.85208 h -0.26459 l 0.26459,-1.85208 m 7.67291,0 -0.26458,0.26458 0.26458,-0.26458 m 1.05834,0 -0.26459,0.26458 0.26459,-0.26458 m 17.19792,0 0.52916,1.85208 v 0.26459 c -0.99906,-0.2122 -1.19723,-1.43034 -0.52916,-2.11667 m -128.058341,0.26458 0.264584,1.05834 -0.264584,-1.05834 m 14.552085,0 -0.264583,0.26459 0.264583,-0.26459 m 12.964583,0 -0.264583,0.26459 0.264583,-0.26459 m 42.0687493,0 -0.264583,0.26459 0.264583,-0.26459 m 5.556254,0 -0.26459,0.26459 0.26459,-0.26459 m 77.2583297,0 -1.05833,1.05834 1.05833,-1.05834 m -175.154167,0.26459 c 0.280114,0.80962 -0.250005,2.09417 -0.529167,0.79375 h -0.264583 v 0.52916 h -0.264583 c 0.05167,-0.47784 0.19222,-1.30413 0.529166,-0.52916 l 0.529167,-0.79375 m 14.552083,0 v 0.52916 h 0.529167 v -0.52916 h -0.529167 m 3.439584,0 0.529166,0.79375 -0.529166,-0.79375 m 12.7,0 v 0.79375 l -0.79375,-0.26459 v -0.26458 l 0.79375,-0.26458 m 21.166667,0 -0.264583,0.26458 0.264583,-0.26458 m 0.705644,0.17647 -0.08837,0.17622 0.08837,-0.17622 m 0.881856,-0.17647 -0.264584,0.79375 0.264584,-0.79375 m 28.5749993,0 -0.79375,1.32291 0.79375,-1.32291 m 74.8770837,0 0.26459,0.26458 -0.26459,-0.26458 m 34.660417,0 v 0.79375 h 0.52917 v -0.79375 h -0.52917 m 5.55625,0 0.52917,1.85208 -1.32292,-1.5875 h 0.26458 v 0.52917 h 0.26459 l 0.26458,-0.79375 m -154.516666,0.26458 0.529166,0.79375 -0.529166,-0.79375 m 16.933332,0 -0.79375,0.79375 0.79375,-0.79375 m 1.058334,0 v 1.32292 l -1.058334,-0.26459 0.529167,-1.05833 h 0.529167 m 8.202083,0 -0.529167,1.32292 -0.264583,-0.79375 0.79375,-0.52917 m 3.175,0 0.264583,0.26458 -0.264583,-0.26458 m 4.7625,0 v 1.05833 h 0.264583 l -0.264583,-1.05833 m 8.4666663,0 0.264584,0.79375 h -0.264584 v -0.79375 m 6.085417,0 v 0.79375 h -0.264583 l 0.264583,-0.79375 m 61.1187567,0.79375 0.79375,-0.79375 -0.79375,0.79375 m 23.54791,-0.52917 v 0.26459 h -0.79375 l 0.79375,-0.26459 m 8.20209,-0.26458 -0.52917,0.52917 0.52917,-0.52917 m -138.465196,0.35274 0.176213,0.0884 -0.176213,-0.0884 m 5.90894,-0.0881 v 1.05834 h -0.264584 l 0.264584,-1.05834 m 10.583333,0 -1.058334,1.32292 1.058334,-1.32292 m 18.2562493,0 -0.264583,0.26459 0.264583,-0.26459 m 3.175,0 0.529167,1.05834 h -0.264583 l -0.264584,-1.05834 m 21.6958337,0 -0.52917,0.52917 v -0.52917 h 0.52917 m 27.51667,0 -0.26459,0.26459 0.26459,-0.26459 m 6.87916,0.26459 v 0.26458 l -1.32291,0.26458 0.26458,-0.79375 1.05833,0.26459 m 28.04584,-0.26459 -0.79375,0.79375 0.26458,-0.79375 h 0.52917 m -160.602087,0.26459 0.529167,0.79375 c -0.595525,-0.12515 -0.824918,-0.22755 -0.529167,-0.79375 m 14.2875,0.0881 c 0.204523,0 0.04233,0.13176 -0.08811,0.0884 l 0.08811,-0.0884 m 58.472917,-0.0881 0.2645833,0.79375 -0.2645833,-0.79375 m 2.6458333,0 h 0.264583 l 0.79375,1.05833 v 0.26458 c -0.817298,-0.1778 -1.359958,-0.43365 -1.058333,-1.32291 m 23.2833367,0 0.26458,0.26458 -0.79375,0.52917 0.52917,-0.79375 m 44.18542,0 v 0.52916 h -0.79375 v -0.52916 h 0.79375 m 9.78958,0 c 0.58023,0.74347 0.56436,1.10886 -0.26458,1.5875 l 0.26458,-1.5875 m 19.05,0 0.52917,0.79375 -0.52917,-0.79375 m 19.579167,0 0.26458,0.26458 -0.26458,-0.26458 m -162.718753,0.35269 0.08811,0.0884 c -0.13044,0.0434 -0.292629,-0.0884 -0.08811,-0.0884 m 1.5875,-0.0881 -0.529167,0.79375 0.529167,-0.79375 m 28.310416,0 -0.264583,0.26458 0.264583,-0.26458 m 9.789583,0 0.264584,1.05833 -0.264584,-1.05833 m 14.0229173,0 0.264583,0.52917 -0.264583,-0.52917 m 68.1743997,0.17648 -0.0884,0.17621 0.0884,-0.17621 m 4.14496,0 0.0884,0.17621 -0.0884,-0.17621 m 2.64583,0 0.0884,0.17621 -0.0884,-0.17621 m 10.49523,-0.0884 c 0.20452,0 0.0423,0.13176 -0.0881,0.0884 l 0.0881,-0.0884 m -173.037504,0.17647 0.264584,0.26459 -0.264584,-0.26459 m 32.279168,0 1.058333,0.26459 v 0.26458 l -1.322916,-0.26458 0.264583,-0.26459 m 19.049999,0.0881 0.08811,0.0884 c -0.13044,0.0434 -0.292629,-0.0884 -0.08811,-0.0884 m 39.1583333,-0.0881 -0.264583,0.26459 0.264583,-0.26459 m 4.762504,0 -0.26459,0.26459 0.26459,-0.26459 m 5.5562497,0 -0.79375,0.79375 0.79375,-0.79375 m 73.025,0.0881 c 0.20452,0 0.0423,0.13176 -0.0881,0.0884 l 0.0881,-0.0884 m 7.67292,-0.0881 -0.26459,0.26459 0.26459,-0.26459 m -161.660424,0.52917 v 0.26458 l -1.5875,-0.52916 1.5875,0.26458 m 19.579168,0.26458 -0.79375,-0.26458 0.79375,0.26458 m 11.112499,-0.44105 c 0.204523,0 0.04233,0.13176 -0.08811,0.0884 l 0.08811,-0.0884 m 14.816667,0 0.08811,0.0884 c -0.130439,0.0434 -0.292629,-0.0884 -0.08811,-0.0884 m 23.8125003,-0.0881 -0.264584,0.26458 0.264584,-0.26458 m 2.645833,0.52916 -0.79375,-0.26458 0.79375,0.26458 m 9.7895867,-0.52916 -0.79375,0.52916 0.79375,-0.52916 m 3.43958,0 -0.26458,0.26458 0.26458,-0.26458 m 14.02292,0.0881 c 0.20452,0 0.0423,0.13176 -0.0881,0.0884 l 0.0881,-0.0884 m 1.5875,0 0.0881,0.0884 c -0.13044,0.0434 -0.29263,-0.0884 -0.0881,-0.0884 m 27.25208,0.17648 v 0.26458 l -1.32291,-0.52916 1.32291,0.26458 m 8.99584,-0.26458 -0.52917,0.79375 0.52917,-0.79375 m 8.46666,0.26458 v 0.26458 l -0.52916,0.52917 h -1.32292 v -0.26458 l 1.05833,-0.79375 0.79375,0.26458 m 9.525,-0.26458 -0.26458,0.26458 0.26458,-0.26458 m 16.933337,0 0.26458,0.52916 -0.26458,-0.52916 m -180.975004,0.26458 -0.79375,0.52917 0.79375,-0.52917 m 1.058333,0 0.264584,0.52917 h -0.529167 l 0.264583,-0.52917 m 68.5270843,0.26458 v 0.26459 l -1.5875,-0.26459 h 1.5875 m 70.3791697,-0.26458 -0.26458,0.26458 0.26458,-0.26458 m 21.96042,0 -0.26459,0.26458 0.26459,-0.26458 m -178.85834,0.26458 -0.264584,0.26459 0.264584,-0.26459 m 77.7875,0.0881 c 0.204523,0 0.04233,0.13176 -0.08811,0.0884 l 0.08811,-0.0884 m -8.202083,0.17648 -0.264584,0.26458 0.264584,-0.26458 m 17.4624993,0 -0.264583,0.26458 0.264583,-0.26458 m 2.910417,0 -0.264583,0.26458 0.264583,-0.26458 m 8.73125,0 -0.264583,0.26458 0.264583,-0.26458 m 7.9374967,0 -0.26458,0.26458 0.26458,-0.26458 m 47.36042,0 -0.26458,0.26458 0.26458,-0.26458 m 0.79375,0 -0.26458,0.26458 0.26458,-0.26458 m 0.52917,0 -0.26458,0.26458 0.26458,-0.26458 m -146.57917,0.26458 -0.264584,0.26458 0.264584,-0.26458 m 88.9000003,0 -0.264584,0.26458 0.264584,-0.26458 m 27.2520797,0 -0.26458,0.26458 0.26458,-0.26458 m 12.34731,0.0881 0.17622,0.0884 -0.17622,-0.0884 m 0.61728,-0.0881 0.26458,0.26458 -0.26458,-0.26458 m 45.50833,0 -0.26458,0.26458 0.26458,-0.26458 m -26.19375,0.26458 0.26459,0.26459 z"
       id="path279" />
  </g>
</svg>
