<?xml version="1.0" encoding="UTF-8" standalone="no"?>
<!-- Created with Inkscape (http://www.inkscape.org/) -->

<svg
   xmlns:dc="http://purl.org/dc/elements/1.1/"
   xmlns:cc="http://creativecommons.org/ns#"
   xmlns:rdf="http://www.w3.org/1999/02/22-rdf-syntax-ns#"
   xmlns:svg="http://www.w3.org/2000/svg"
   xmlns="http://www.w3.org/2000/svg"
   xmlns:sodipodi="http://sodipodi.sourceforge.net/DTD/sodipodi-0.dtd"
   xmlns:inkscape="http://www.inkscape.org/namespaces/inkscape"
   width="724"
   height="800"
   id="svg3848"
   version="1.1"
   inkscape:version="0.92.3 (2405546, 2018-03-11)"
   sodipodi:docname="tbw-logo-kontur-farbig.svg">
  <defs
     id="defs3850" />
  <sodipodi:namedview
     id="base"
     pagecolor="#ffffff"
     bordercolor="#666666"
     borderopacity="1.0"
     inkscape:pageopacity="0.0"
     inkscape:pageshadow="2"
     inkscape:zoom="0.83261719"
     inkscape:cx="383.42858"
     inkscape:cy="355.55682"
     inkscape:document-units="px"
     inkscape:current-layer="layer1"
     showgrid="false"
     inkscape:window-width="2560"
     inkscape:window-height="1387"
     inkscape:window-x="-8"
     inkscape:window-y="-8"
     inkscape:window-maximized="1"
     units="px"
     fit-margin-top="100"
     fit-margin-left="100"
     fit-margin-right="100"
     fit-margin-bottom="100" />
  <metadata
     id="metadata3853">
    <rdf:RDF>
      <cc:Work
         rdf:about="">
        <dc:format>image/svg+xml</dc:format>
        <dc:type
           rdf:resource="http://purl.org/dc/dcmitype/StillImage" />
        <dc:title></dc:title>
      </cc:Work>
    </rdf:RDF>
  </metadata>
  <g
     inkscape:label="Logo"
     inkscape:groupmode="layer"
     id="layer1"
     transform="translate(33.428576,-158.07647)">
    <path
       style="fill:#1218ac;fill-opacity:1"
       d="m 66.571424,558.07647 v -300 H 328.57141 590.57143 v 300 300 H 328.57141 66.571424 Z M 345.87553,851.42469 c 30.5488,-9.63512 70.924,-28.46604 93.1959,-43.46645 70.1376,-47.23854 120.6629,-117.9518 140.3801,-196.47062 7.4872,-29.81585 7.9734,-42.9446 8.0575,-217.58972 0.056,-116.60986 -0.096,-129.83694 -1.509,-131.25 -1.4204,-1.42036 -26.1082,-1.57143 -256.80892,-1.57143 -204.0583,0 -255.583886,0.25334 -256.965266,1.26343 -1.62667,1.18944 -1.70716,10.13381 -1.37457,152.75 0.31406,134.67453 0.53762,152.76284 2.01439,162.98657 7.64904,52.95477 22.70005,91.99424 52.929256,137.28853 14.76355,22.12114 39.02542,48.64509 64.27649,70.26937 34.34942,29.41584 64.259,45.77953 114.5,62.64353 23.40128,7.85493 25.79772,8.0375 41.30412,3.14679 z m -22.80412,-11.83903 c -0.55,-0.18304 -6.625,-1.98858 -13.5,-4.01232 -18.54189,-5.45802 -33.45638,-11.56833 -52.92792,-21.68404 -20.69594,-10.75181 -27.19675,-14.82308 -45.02792,-28.19976 -22.8675,-17.15485 -48.51006,-42.20664 -63.91223,-62.43976 -16.84032,-22.12237 -35.50677,-54.94778 -44.45392,-78.17331 -9.580946,-24.87076 -16.001126,-49.76458 -19.767826,-76.6484 -1.93904,-13.83941 -2.07412,-19.14527 -1.98196,-77.8516 0.11709,-74.57891 1.79668,-212.24136 2.66163,-218.15097 l 0.60754,-4.15098 14.65131,-0.73484 c 8.058216,-0.40416 55.151296,-0.22284 104.651296,0.40292 49.5,0.62577 142.20002,1.59824 206.00002,2.16106 63.8,0.56281 127.7,1.34944 142,1.74805 l 26,0.72476 -0.2814,111.5 c -0.3925,155.47463 -1.4934,179.88901 -9.7182,215.5 -4.8668,21.07174 -14.9109,47.97246 -27.4433,73.5 -7.5783,15.43654 -27.5298,45.66504 -38.6883,58.61691 -18.0029,20.8961 -38.8861,40.59076 -57.8688,54.57522 -33.4157,24.61712 -89.3256,50.44638 -115.00002,53.12769 -2.75,0.28719 -5.45,0.37241 -6,0.18937 z m -26.21788,-17.85632 c 4.54164,-1.90131 10.47087,-8.81928 11.2869,-13.16908 0.93938,-5.00731 -0.2172,-12.49329 -2.38168,-15.41547 -1.86085,-2.51225 -12.67186,-9.03532 -15.00964,-9.0564 -1.39752,-0.0126 -13.84597,25.07942 -14.7941,29.82009 -0.70096,3.5048 0.80218,4.80515 8.33907,7.21397 7.05442,2.25463 8.46114,2.3226 12.55945,0.60689 z m -8.96675,-5.65985 c -4.47694,-1.8038 -4.39623,-3.88064 0.54377,-13.99302 2.84255,-5.81879 5.31233,-9.62401 6.37371,-9.82002 2.25298,-0.41608 6.36408,4.05465 7.09663,7.71744 0.86909,4.34544 -1.15512,10.12822 -4.83256,13.80566 -3.36443,3.36443 -5.31024,3.84973 -9.18155,2.28994 z m 87.75085,-0.57279 c 1.0866,-1.30923 1.0211,-2.97891 -0.3822,-9.75 -0.9313,-4.49363 -1.6912,-8.50773 -1.6887,-8.92023 0.014,-2.19986 3.1011,0.10694 7.8603,5.87291 3.9994,4.84529 5.8987,6.41108 7.5,6.1828 1.5259,-0.21754 2.239,-1.1341 2.4726,-3.17792 0.3885,-3.39949 -3.6607,-29.77692 -4.745,-30.91057 -1.2229,-1.27847 -4.0596,0.33948 -4.6341,2.64308 -0.2934,1.17684 0.1604,5.43162 1.0087,9.45508 1.8556,8.80204 1.839,8.18462 0.2198,8.18462 -0.7274,0 -3.9064,-2.925 -7.0646,-6.5 -3.1582,-3.575 -6.3723,-6.5 -7.1424,-6.5 -2.8821,0 -3.4728,3.48514 -1.9444,11.47322 0.8106,4.23649 1.4738,8.11313 1.4738,8.61475 0,2.34302 -2.9371,0.35415 -7.5,-5.07865 -2.75,-3.27428 -5.6259,-6.20106 -6.3909,-6.50395 -2.0108,-0.79616 -5.1091,0.40319 -5.1091,1.97771 0,0.74157 4.1546,5.77375 9.2324,11.18261 13.3924,14.26551 14.2518,14.86561 16.8338,11.75454 z M 258.0773,801.82647 c 3.61636,-5.08785 13.49411,-22.76049 13.49411,-24.14278 0,-0.81905 -0.45403,-1.76979 -1.00895,-2.11275 -2.10605,-1.30161 -4.61736,0.68737 -8.28697,6.56335 -2.08775,3.34303 -4.33775,5.89937 -5,5.68075 -0.78548,-0.2593 -1.3779,-3.88187 -1.70408,-10.42026 -0.53287,-10.68169 -1.7454,-13.64567 -5.36583,-13.11657 -2.52601,0.36917 -16.84267,23.30182 -16.41777,26.29826 0.16514,1.1646 1.17925,2.12769 2.42785,2.30569 1.71607,0.24465 3.08417,-1.20235 6.85128,-7.24642 2.58886,-4.15367 5.04321,-7.34434 5.4541,-7.0904 0.4109,0.25395 1.01066,5.45799 1.33281,11.56454 0.32875,6.2317 1.10709,11.73102 1.77409,12.5347 1.75022,2.10889 4.62841,1.74378 6.44936,-0.81811 z m 167.21103,-11.41996 c 5.1242,-2.4316 7.5275,-6.76015 6.8271,-12.29638 -0.7908,-6.25073 -11.9298,-23.26506 -14.9476,-22.83174 -3.6004,0.51697 -2.9234,3.59659 2.8237,12.84355 6.5332,10.51177 7.2563,14.80996 2.9647,17.62199 -2.3431,1.53522 -2.8895,1.56023 -5.25,0.24028 -1.4492,-0.81031 -4.7882,-4.60854 -7.4201,-8.44051 -2.632,-3.83198 -5.8553,-8.04289 -7.1631,-9.35758 -2.6806,-2.69479 -5.5516,-2.28447 -5.5516,0.79343 0,2.42326 11.2844,19.48228 14.2712,21.57436 2.8607,2.00367 9.0558,1.93576 13.4457,-0.1474 z m -88.55821,-3.88514 c 15.49831,-4.46452 49.37791,-20.92385 65.95161,-32.04051 33.1314,-22.22253 61.4495,-51.19676 82.0157,-83.91594 22.4843,-35.77063 37.0697,-78.32908 41.3871,-120.76255 2.2023,-21.64587 2.1066,-23.11894 -1.6824,-25.89984 -6.5322,-4.79415 -17.0016,-15.95809 -18.8187,-20.06722 -1.0358,-2.34236 -2.4478,-8.16391 -3.1376,-12.93676 -2.1212,-14.67664 1.237,-25.94984 11.1962,-37.58432 2.7014,-3.15577 4.9156,-6.51811 4.9205,-7.47188 0.011,-2.07863 -32.536,-71.69116 -34.4061,-73.58967 -1.0804,-1.09679 -2.6571,-0.7975 -9.1945,1.7454 -7.7406,3.01087 -11.3905,3.77228 -11.3905,2.37617 0,-1.1714 18.1529,-39.61544 19.9726,-42.29778 0.9328,-1.375 2.4224,-4.36372 3.3102,-6.64159 1.5203,-3.90059 1.5081,-4.23768 -0.2102,-5.79273 -4.0578,-3.67222 -56.8633,-23.56568 -62.5531,-23.56568 -2.0571,0 -2.6956,1.02177 -5.0435,8.07211 -1.4786,4.43967 -3.2815,8.29977 -4.0066,8.57801 -1.4297,0.54861 -19.6675,-2.8427 -28.321,-5.26626 l -5.3516,-1.49881 0.699,-8.8328 0.6991,-8.8328 -3.3474,-1.06674 c -6.9019,-2.19942 -25.2254,-3.35471 -52.84752,-3.33201 -29.7315,0.0244 -46.45211,1.18909 -48.61592,3.38631 -1.00546,1.02099 -1.04122,2.93198 -0.16999,9.08428 0.661,4.66771 0.73902,8.14207 0.19462,8.66625 -0.9027,0.86917 -26.14197,5.77517 -31.93733,6.20796 -4.35614,0.32532 -5.0659,-0.42307 -7.51722,-7.92636 -1.21093,-3.70653 -2.58096,-7.15161 -3.04452,-7.65574 -1.06614,-1.15944 -8.99603,0.58797 -22.27864,4.90925 -14.68494,4.77751 -36.18286,13.32389 -38.75537,15.40698 -2.7493,2.22624 -3.16497,1.09562 12.11541,32.95423 7.34678,15.31757 10.8626,23.6925 10.21714,24.33796 -0.64545,0.64545 -3.83183,-0.26799 -9.25977,-2.65452 -6.77964,-2.98083 -8.50721,-3.40348 -9.55645,-2.33795 -1.21167,1.23047 -24.65724,42.35116 -34.72423,60.90208 -2.56725,4.73079 -4.66773,9.30072 -4.66773,10.15539 0,0.85467 1.64341,3.50903 3.65201,5.89857 6.20051,7.37645 10.4504,17.57631 11.06408,26.55409 1.23733,18.10147 -5.86873,32.60669 -20.61169,42.07359 l -5.39561,3.46468 0.68317,15.62612 c 0.96672,22.11182 2.26346,32.43799 6.28046,50.01241 10.56437,46.21926 31.53035,87.40584 62.11351,122.01879 27.88456,31.55875 61.6419,56.64107 96.69814,71.84847 12.05081,5.22764 27.80097,11.18036 29.67464,11.21542 0.91229,0.0171 7.21229,-1.56876 14,-3.52406 z m -32.43807,-14.83696 c -17.15392,-6.94316 -29.5817,-13.54549 -47.59779,-25.2866 -15.36247,-10.01175 -23.51125,-16.95964 -42.1919,-35.97409 -22.327,-22.72597 -35.68025,-41.57983 -49.46932,-69.84725 -16.11626,-33.03812 -25.46163,-70.93325 -25.46163,-103.24596 v -10.56247 l 6.18506,-5.59579 c 9.25826,-8.37619 14.3932,-15.95034 17.4411,-25.72602 2.38074,-7.63584 2.5735,-9.46936 2.11692,-20.13529 -0.41055,-9.5907 -0.98103,-12.91092 -3.1227,-18.17408 -2.83227,-6.96034 -3.19981,-9.06039 -1.58569,-9.06039 0.56907,0 8.96758,5.46135 18.66335,12.13634 18.06424,12.4362 21.30196,14.20861 21.30196,11.66126 0,-1.48108 -11.83493,-13.31835 -25,-25.00493 -5.60969,-4.97971 -7.21494,-6.94719 -6.36898,-7.80622 1.437,-1.4592 5.20777,0.4264 24.0117,12.00716 16.00542,9.85726 16.54862,10.12421 18.34368,9.01479 2.39156,-1.47806 0.25449,-3.72787 -13.16556,-13.86004 -17.95281,-13.55442 -19.171,-14.59789 -18.69817,-16.01636 0.26879,-0.80639 7.05744,2.04911 19.78019,8.32012 10.65401,5.25133 20.01733,9.54788 20.80736,9.54788 2.58856,0 0.874,-3.35476 -3.21664,-6.29378 -2.19647,-1.5781 -10.2704,-6.99509 -17.94206,-12.03775 -7.67167,-5.04266 -14.12167,-9.73097 -14.33333,-10.41847 -0.77725,-2.5245 3.72759,-1.06729 22.25787,7.19988 13.55537,6.04765 19.29023,8.15905 20.17243,7.42688 2.67878,-2.22319 1.63344,-3.03308 -20.28289,-15.71462 -21.09431,-12.20587 -21.77862,-14.6079 -1.89533,-6.65282 22.05838,8.82531 29.04969,10.48765 28.34923,6.74068 -0.3858,-2.06378 -8.12978,-6.30003 -27.21405,-14.88714 -7.642,-3.43857 -14.3044,-6.66181 -14.80535,-7.16276 -1.27325,-1.27325 0.12772,-6.2001 1.76301,-6.2001 0.74047,0 6.42918,1.82268 12.6416,4.05039 28.379,10.17647 56.212,16.98593 83.79529,20.50087 6.875,0.87608 12.92989,2.01283 13.45532,2.52612 2.44136,2.38498 -4.26267,21.64451 -13.10481,37.64785 -2.94278,5.32613 -5.35051,10.24643 -5.35051,10.93401 0,0.68757 1.48352,1.52844 3.29672,1.8686 4.72569,0.88655 82.3831,0.12804 83.3237,-0.81385 0.4317,-0.4323 -1.5445,-5.18487 -4.3915,-10.56126 -5.6557,-10.68027 -9.206,-19.48665 -12.1742,-30.1979 -1.6073,-5.80003 -1.7036,-7.16311 -0.5851,-8.28163 0.7976,-0.79752 6.1287,-1.83198 13.1847,-2.55834 30.4471,-3.13436 57.3252,-8.97673 83.3457,-18.11648 25.9515,-9.11552 24.881,-8.86359 26.927,-6.33679 2.0339,2.51166 23.6106,48.6082 24.59,52.53412 0.5197,2.08321 -0.1445,4.0194 -2.9233,8.5214 -1.9777,3.20412 -5.0578,9.19105 -6.8447,13.30428 -3.1209,7.18365 -3.2482,7.99141 -3.228,20.48031 0.021,12.83749 0.066,13.09641 3.606,20.5 4.3124,9.01994 11.4725,18.7266 16.6125,22.52087 2.0683,1.52674 4.323,3.46974 5.0105,4.31779 3.6662,4.52231 -1.2436,41.7303 -8.9131,67.54683 -5.4619,18.38558 -16.4507,43.38124 -26.8668,61.11281 -5.0879,8.66113 -21.5193,30.52593 -30.2749,40.2857 -19.8259,22.09993 -48.6803,44.3005 -75.3773,57.99539 -18.2274,9.35017 -42.17432,18.22134 -49.17326,18.21627 -2.16026,-0.002 -10.07127,-2.60384 -19.42402,-6.38942 z m 31.77936,-5.86269 c 16.71192,-5.65685 45.24032,-20.30973 61.45132,-31.56287 20.07,-13.93201 48.7613,-41.70088 59.1592,-57.2573 1.3142,-1.96621 4.9163,-7.36621 8.0045,-12 17.9495,-26.93212 31.0207,-57.90916 37.4329,-88.71063 2.8998,-13.92947 6.0746,-43.0112 4.825,-44.19684 -0.4801,-0.45549 -13.2479,-1.27967 -28.3729,-1.83152 -23.028,-0.84019 -27.7336,-0.77887 -28.9361,0.3771 -0.946,0.90936 -1.8639,5.76402 -2.6897,14.22595 -2.9493,30.22193 -15.0036,64.76418 -30.5926,87.66414 -11.8017,17.33655 -27.372,34.04519 -44.1513,47.3791 -10.8373,8.61193 -16.1847,9.66871 -21.1303,4.17586 -1.736,-1.92806 -2,-3.62839 -2,-12.88016 0,-10.18776 0.1526,-10.95639 3.4531,-17.39034 2.5125,-4.89779 3.1534,-7.03127 2.3526,-7.83206 -0.7161,-0.71606 -10.3859,-1.29378 -27.67683,-1.65356 -30.39984,-0.63253 -29.51244,-0.90264 -25.17241,7.662 5.82113,11.48744 6.68709,21.45157 2.65624,30.56396 -2.31532,5.23418 -7.10911,7.41603 -12.31022,5.60291 -7.40815,-2.58249 -24.54167,-17.43873 -37.49623,-32.51246 -28.96901,-33.70792 -44.20372,-70.70182 -47.89513,-116.30202 -0.36658,-4.52842 -1.17155,-8.90796 -1.78883,-9.73231 -0.94072,-1.25631 -5.5717,-1.54212 -28.62231,-1.76651 l -27.5,-0.26769 0.18648,11.30311 c 0.6119,37.08949 15.03672,84.52148 36.02102,118.44512 19.66061,31.78373 48.74541,61.87581 79.2925,82.03862 11.03743,7.28533 43.69883,24.04353 53.65545,27.53002 6.35995,2.22705 8.47452,2.10007 17.84455,-1.07162 z m 34.17762,-140.78718 c 15.0691,-2.00719 25.4103,-9.32437 32.0068,-22.64711 3.4607,-6.98958 3.5481,-7.45019 3.1478,-16.60173 -0.5442,-12.44261 -3.9904,-19.82158 -13.3437,-28.57113 -3.5687,-3.33831 -6.4885,-6.23823 -6.4885,-6.44426 0,-0.20604 2.25,-4.11827 5,-8.69384 l 5,-8.31922 V 522.0658 c 0,-10.66699 -0.2278,-12.12072 -2.5994,-16.59039 -6.8788,-12.96417 -17.1674,-20.41499 -30.9006,-22.3778 -10.2802,-1.46929 -106.01173,-2.62022 -106.83728,-1.28446 -1.16901,1.89149 -1.92769,139.60809 -0.77822,141.26332 0.85518,1.23146 5.21068,1.60111 24.32857,2.06476 41.57558,1.0083 83.46053,0.95944 91.46453,-0.10669 z m -57.96551,-32.9237 c -20.52627,-0.4425 -24.95398,-0.79225 -25.75394,-2.03437 -0.53133,-0.825 -0.85178,-5.775 -0.71211,-11 l 0.25394,-9.5 h 37.02566 37.02566 l 2.9743,2.33399 c 3.8454,3.01746 5.395,5.86458 5.4389,9.99293 0.079,7.40085 -8.5579,11.38323 -23.7637,10.95745 -4.23547,-0.1186 -18.85537,-0.4561 -32.48871,-0.75 z m -9.21211,-54.93437 -17,-0.6 -0.29317,-9.5 c -0.16125,-5.225 -0.0402,-10.5125 0.26905,-11.75 l 0.56222,-2.25 h 34.28479 34.28483 l 3.2128,3.31484 c 5.6826,5.86295 6.1146,11.94275 1.2616,17.75584 l -2.7207,3.25897 -18.43071,0.18518 c -10.13689,0.10185 -26.08071,-0.0848 -35.43071,-0.41483 z m -147.5,-101.09473 c 0,-1.60367 23.12837,-42.00527 24.04641,-42.00527 1.87785,0 1.7,1.9868 -0.85917,9.5982 -3.21588,9.56453 -7.66844,17.18245 -15.48568,26.49454 -5.45369,6.49657 -7.70156,8.22227 -7.70156,5.91253 z m 195.97162,-33.53947 c -1.8187,-2.19135 -0.5881,-23.27792 1.4791,-25.34509 2.249,-2.24902 20.0456,0.1281 40.3329,5.38734 18.5142,4.79959 26.6029,7.83248 25.9681,9.73688 -0.6736,2.02058 -30.1846,8.03045 -52.7255,10.73743 -11.3611,1.36438 -13.5561,1.28907 -15.0546,-0.51656 z m -56.47162,-0.16282 c -19.11765,-1.68916 -56,-9.79754 -56,-12.31128 0,-3.75392 43.83479,-13.9917 59.90783,-13.9917 3.06208,0 5.79128,0.53499 6.38622,1.25185 1.29518,1.56059 2.60668,21.84548 1.50993,23.35391 -0.9981,1.37274 -6.50876,2.16509 -11.80398,1.69722 z m 147.18552,-17.68012 c -0.2829,-0.73729 2.3574,-7.81654 5.8673,-15.73169 3.5099,-7.91514 6.3964,-15.3933 6.4144,-16.61812 0.019,-1.30029 -1.0138,-2.91271 -2.4824,-3.87498 -7.3732,-4.83111 -46.939,-16.18257 -70.9848,-20.36561 -31.8046,-5.53277 -84.436,-4.87115 -118.50002,1.48963 -15.71625,2.93471 -51.7239,13.26881 -54.75,15.71312 -2.20539,1.78139 -1.37591,5.34897 4.75,20.42964 3.3,8.12389 6,15.57271 6,16.55293 0,2.29143 -2.23177,2.28859 -4.30787,-0.005 -3.65595,-4.03977 -17.84872,-36.64065 -16.95988,-38.95693 1.57349,-4.10045 31.31429,-13.96636 60.78726,-20.16494 23.43644,-4.92902 37.21765,-6.24831 66.98049,-6.41213 30.69542,-0.16895 47.93722,1.61322 76.42212,7.89921 16.5507,3.65238 44.3542,12.63537 55.0779,17.79503 5.7474,2.76536 6.4792,3.43827 6.3207,5.81191 -0.2637,3.94886 -15.8722,35.50512 -18.1698,36.7348 -1.4618,0.78234 -2.08,0.70803 -2.4654,-0.29639 z m -28.1089,-5.7526 c -9.9954,-3.3022 -22.0485,-6.2728 -36.5,-8.99574 -11.8671,-2.23599 -21.8954,-4.58124 -22.285,-5.21167 -0.8853,-1.4324 0.1467,-5.89166 1.6124,-6.96704 3.2101,-2.3554 39.9497,4.67949 60.096,11.50717 15.1629,5.1388 17.5,6.32582 17.5,8.88844 0,3.07293 -1.8559,5.92105 -3.7852,5.80886 -0.9431,-0.0548 -8.4303,-2.31835 -16.6382,-5.03002 z m -186.37662,0.92974 c -0.66,-0.66 -1.2,-2.48296 -1.2,-4.05103 0,-3.4354 1.72691,-4.27725 18.93328,-9.22977 16.8018,-4.83606 37.10408,-8.60907 47.51159,-8.82963 l 8.94487,-0.18957 0.95469,3.2671 c 0.52509,1.79691 0.70458,3.51723 0.39887,3.82293 -0.3057,0.30571 -7.06355,1.60625 -15.01744,2.89011 -24.35884,3.9318 -39.86948,7.46149 -52.60159,11.97029 -5.26475,1.8644 -6.36108,1.91276 -7.92427,0.34957 z m 234.76542,-48.13895 c -4.909,-1.95693 -5.4654,-2.48187 -5.4654,-5.1562 0,-3.94456 1.7766,-4.15696 8.7978,-1.05185 4.1636,1.84136 5.7022,3.05533 5.7022,4.49921 0,3.52269 -3.0414,4.09795 -9.0346,1.70884 z m -272.4746,-2.31309 c -0.8749,-0.87489 -1.44971,-2.32289 -1.27737,-3.21778 0.35802,-1.85907 6.5941,-5.06241 11.3612,-5.83601 2.68766,-0.43614 3.33464,-0.15535 3.92455,1.7033 0.90946,2.86548 -0.62056,4.33122 -7.20843,6.90558 -4.76247,1.86104 -5.34566,1.8992 -6.79995,0.44491 z m 244.5092,-8.13006 c -3.9274,-1.94076 -5.5,-3.28977 -5.5,-4.7179 0,-1.7524 0.6257,-1.98478 5.054,-1.87705 5.543,0.13485 11.446,2.62649 11.446,4.8313 0,1.72167 -2.715,4.5574 -4.3214,4.51365 -0.6483,-0.0177 -3.6536,-1.25515 -6.6786,-2.75 z m -218.80002,-1.4179 c -3.05068,-3.05068 0.56069,-6.39426 8.00904,-7.41517 4.06879,-0.55769 4.65384,-0.39222 5.24959,1.48481 0.93291,2.93936 0.21523,3.71275 -5.13793,5.53675 -5.60608,1.91019 -6.55798,1.95632 -8.1207,0.39361 z m 147.05162,-13.50552 c -2.304,-0.44387 -4.0089,-4.2601 -2.7867,-6.23764 0.8177,-1.32321 4.6024,-1.36196 7.97,-0.0816 4.3901,1.66912 2.9116,7.43394 -1.7667,6.88857 -0.6425,-0.0749 -2.18,-0.3311 -3.4166,-0.56933 z m -72.14643,-1.66773 c -1.65043,-1.98866 -0.29746,-4.55348 2.75511,-5.22285 1.45184,-0.31836 3.0897,-0.70367 3.6397,-0.85624 1.62662,-0.45123 4.5,1.41079 4.5,2.91609 0,3.88849 -8.29425,6.29648 -10.89481,3.163 z m 23.22342,-2.24798 c -1.63719,-2.49866 -1.62933,-2.68571 0.16807,-4 3.8286,-2.79954 8.50332,-1.35852 8.50332,2.62123 0,4.66358 -5.90401,5.60233 -8.67139,1.37877 z m 23.13626,1.56439 c -1.26999,-2.05488 0.52569,-5.90269 3.05036,-6.53634 3.91139,-0.98168 7.38099,0.33133 8.06369,3.05157 0.9126,3.63616 -0.1996,4.54161 -5.57892,4.54161 -2.68508,0 -5.17589,-0.47558 -5.53513,-1.05684 z M 223.55777,771.32647 c 6.98081,-7.18771 12.25157,-14.77603 11.81995,-17.01723 -0.76703,-3.98285 -3.78147,-2.20823 -11.33499,6.67296 -4.22132,4.9633 -8.58335,9.31244 -9.6934,9.66475 -2.78573,0.88416 -7.19722,-2.58905 -7.60058,-5.98401 -0.36656,-3.08523 0.91273,-5.28455 8.68345,-14.92839 4.4263,-5.49324 5.30685,-7.16876 4.46713,-8.5 -1.9352,-3.06792 -4.64733,-1.76319 -10.06483,4.84192 -8.33787,10.16566 -10.61332,14.45437 -9.9237,18.70397 1.01156,6.23351 8.32684,12.16689 15.11155,12.25689 2.30384,0.0306 4.17551,-1.22174 8.53542,-5.71086 z m 190.79846,-1.82833 c 0.366,-2.46914 -5.0181,-9.01357 -6.6073,-8.03136 -1.9313,1.19358 -1.3465,4.25538 1.4467,7.5749 2.8268,3.35955 4.7057,3.52574 5.1606,0.45646 z m 41.3885,-3.09898 c 6.0379,-4.85923 11.8267,-10.71911 11.8267,-11.97188 0,-2.79969 -2.4529,-2.32291 -7.974,1.54995 -3.2142,2.25458 -6.3182,4.09924 -6.8978,4.09924 -0.5797,0 -4.7105,-4.275 -9.1798,-9.5 -4.4692,-5.225 -8.6709,-9.5 -9.3371,-9.5 -1.5046,0 -3.6113,2.0324 -3.6113,3.48397 0,2.02474 19.3814,24.51603 21.1262,24.51603 0.3962,0 2.2174,-1.20479 4.0471,-2.67731 z M 189.1084,752.4239 c 0.93532,-0.35891 3.00753,-2.72141 4.60493,-5.25 1.59739,-2.52859 4.54537,-5.72243 6.55106,-7.09743 4.70732,-3.22711 6.09601,-7.15847 4.01829,-11.37575 -2.4649,-5.00317 -10.6353,-13.62425 -12.91202,-13.62425 -3.01809,0 -23.79925,20.84629 -23.79925,23.87384 0,2.7204 3.65337,7.46221 8.76487,11.37616 3.57204,2.73517 8.85106,3.60208 12.77212,2.09743 z m -9.8277,-7.12404 c -3.897,-2.40657 -4.52391,-5.72736 -1.65728,-8.77875 3.01579,-3.21016 4.54807,-3.08427 8.04678,0.66112 3.47436,3.71931 3.67922,6.2359 0.6787,8.33754 -2.78061,1.94762 -3.59955,1.92214 -7.0682,-0.21991 z m 12.25179,-10.68477 c -1.39641,-0.75972 -3.15761,-2.53733 -3.91378,-3.95025 -1.21401,-2.26838 -1.16207,-2.80407 0.44391,-4.57865 3.3735,-3.72769 7.30724,-2.25974 10.51341,3.92328 1.11445,2.14918 0.99986,2.64495 -0.98228,4.25 -2.64269,2.13992 -2.76809,2.14728 -6.06126,0.35562 z m 285.82874,10.93795 c 0.1691,-1.17995 -1.1857,-3.74736 -3.25,-6.15897 -1.9469,-2.27454 -3.5398,-4.46367 -3.5398,-4.86473 0,-0.40107 1.7927,-2.67412 3.9839,-5.05122 2.4827,-2.69345 3.7612,-4.90223 3.393,-5.86183 -0.9243,-2.40865 -3.0443,-1.83507 -7.2452,1.96018 -4.1034,3.70715 -5.9803,4.25141 -7.9317,2.3 -2.071,-2.07101 -1.3319,-4.52598 2.8,-9.3 4.1034,-4.74114 5.1936,-8.5 2.4654,-8.5 -1.9355,0 -15.4654,13.84071 -15.4654,15.82066 0,0.8081 4.603,6.14685 10.2288,11.86387 10.4059,10.57451 13.895,12.44163 14.561,7.79204 z m 25.2102,-29.34901 c -1e-4,-0.89516 -1.6011,-2.90502 -3.5579,-4.46635 -4.2358,-3.37976 -4.3675,-6.9042 -0.369,-9.87547 2.5383,-1.88625 2.6453,-1.88458 7.9306,0.12366 3.962,1.50547 5.7012,1.75049 6.6769,0.94071 0.7257,-0.60225 1.3194,-1.48708 1.3194,-1.96628 0,-1.71938 -8.355,-6.88383 -11.1366,-6.88383 -2.2843,0 -3.115,-0.66631 -4.2665,-3.42222 -1.9595,-4.6899 -5.6683,-6.97456 -10.0023,-6.16151 -2.653,0.49771 -4.6604,2.16376 -9.0044,7.47343 -3.0746,3.75812 -5.5902,7.55263 -5.5902,8.43226 0,1.49376 7.2518,7.33273 19.8815,16.00805 4.185,2.87467 5.6858,3.44404 6.75,2.56083 0.7527,-0.62465 1.3685,-1.86813 1.3685,-2.76328 z m -17.6369,-15.67354 c -2.3202,-2.32015 -2.4182,-2.73853 -1.1048,-4.71658 0.7927,-1.19382 2.6229,-3.0528 4.0671,-4.13106 2.5483,-1.90257 2.6856,-1.90637 4.6502,-0.12844 2.708,2.45073 2.5534,5.65924 -0.4279,8.87604 -3.045,3.28568 -3.9859,3.29878 -7.1846,0.10004 z m -323.86312,11.27078 c 2.68624,-4.1334 3.40026,-4.62189 6.82692,-4.6705 2.88667,-0.041 4.57386,-0.80123 6.86699,-3.09436 3.97099,-3.971 3.40681,-7.08375 -2.98336,-16.45994 -3.59828,-5.27968 -5.25485,-6.91579 -6.74063,-6.65734 -2.94557,0.51236 -24.90963,16.4865 -25.27464,18.38187 -0.17377,0.90229 0.64815,2.15649 1.82648,2.78711 1.79234,0.95924 2.75054,0.72516 5.86408,-1.43252 4.5612,-3.16092 6.53562,-3.24319 8.55746,-0.35661 2.34355,3.34588 1.8883,6.63579 -1.4433,10.43027 -3.25279,3.70473 -3.65452,5.29269 -1.8065,7.14072 1.71747,1.71747 4.62863,-0.40941 8.3065,-6.0687 z m 1.0889,-12.80153 c -3.1746,-3.77279 -3.28621,-6.32144 -0.36639,-8.36657 3.24412,-2.27227 4.57265,-1.94088 6.78845,1.6933 2.5116,4.11933 2.53216,7.38897 0.0548,8.71482 -2.90055,1.55233 -3.65214,1.31542 -6.47684,-2.04155 z M 524.40173,686.244 c 0.1817,-1.28285 -0.4341,-3.17722 -1.3685,-4.2097 -1.941,-2.14484 -1.5312,-4.79251 1.5028,-9.70783 1.6256,-2.63372 2.6492,-3.25 5.3982,-3.25 1.8969,0 3.9807,-0.70895 4.727,-1.60821 1.134,-1.3664 1.0485,-1.81748 -0.5687,-3 -1.0469,-0.76549 -2.3799,-1.40329 -2.9622,-1.41734 -0.5824,-0.014 -7.1339,-1.11731 -14.5589,-2.45169 l -13.5,-2.42614 -1.75,2.06247 c -0.9625,1.13436 -1.75,2.82651 -1.75,3.76033 0,0.93382 3.6485,5.72146 8.1079,10.63922 4.4593,4.91775 9.0575,10.19728 10.2183,11.7323 2.5617,3.38772 6.0161,3.32217 6.5041,-0.12341 z m -12.7487,-15.7274 c -4.5874,-5.22474 -2.8023,-6.32388 6.1684,-3.79809 3.2003,0.90108 1.58,7.35796 -1.8464,7.35796 -0.658,0 -2.603,-1.60194 -4.322,-3.55987 z M 131.2302,680.52326 c 0.32782,-0.85426 -0.66092,-4.51068 -2.19718,-8.12537 -3.09607,-7.28475 -2.68676,-9.5897 1.79869,-10.1291 2.16562,-0.26043 3.06912,0.54588 5.88277,5.25 3.20005,5.35012 5.87724,6.95188 7.42734,4.44376 0.37864,-0.61265 -0.55835,-3.7225 -2.08221,-6.91078 -3.18,-6.65332 -2.83109,-9.26712 1.17366,-8.79227 2.11985,0.25136 3.38165,1.61075 6.09549,6.56697 2.37947,4.34558 4.01387,6.25 5.36384,6.25 3.55889,0 3.11224,-2.86477 -1.82734,-11.72027 -4.58385,-8.21776 -5.09601,-8.77095 -8.00147,-8.64252 -1.70728,0.0755 -8.3215,2.66458 -14.69827,5.75358 -9.29597,4.50312 -11.59411,6.03016 -11.59411,7.70394 0,3.10483 8.97415,19.90527 10.63263,19.90527 0.78658,0 1.69835,-0.69894 2.02616,-1.55321 z M 544.96423,644.7679 c 1.4649,-2.39297 -0.2454,-3.62531 -11.5144,-8.29623 -10.4845,-4.34577 -12.3546,-6.01262 -10.9349,-9.74666 2.3008,-6.05148 -1.8608,-7.69248 -4.8147,-1.89854 -3.1417,6.16234 -7.1288,16.46589 -7.1288,18.42241 0,3.01 3.7506,2.21049 5.5,-1.17241 2.0722,-4.00727 4.7019,-3.84513 16,0.9865 9.8495,4.21219 11.2449,4.39672 12.8928,1.70493 z m -418.5592,-7.36279 c 7.34837,-2.56925 13.5923,-5.27498 13.8754,-6.01273 0.73712,-1.92092 -1.73925,-4.5184 -3.61923,-3.79624 -5.12828,1.96994 -15.13506,4.2161 -15.57947,3.49702 -0.48421,-0.78347 2.41767,-4.99943 9.78142,-14.21079 2.23795,-2.79945 2.79778,-4.31309 2.31165,-6.25 -0.88806,-3.5383 -3.36852,-3.33985 -16.86411,1.34918 -15.29647,5.31476 -14.73928,5.02765 -14.73928,7.59492 0,3.3999 1.98732,3.59015 9.61261,0.92025 3.78807,-1.32634 7.69073,-2.4135 8.67258,-2.41589 2.31085,-0.006 1.51694,1.49231 -5.29768,9.99564 -5.67528,7.08166 -7.24437,10.16706 -6.35246,12.49132 0.90655,2.36245 3.86802,1.84779 18.19857,-3.16268 z m 428.528,-19.82864 c 0.9907,-2.58171 -0.426,-4.42354 -4.2111,-5.47489 -2.0078,-0.55768 -4.1579,-1.01647 -4.7781,-1.01953 -2.5209,-0.0125 -3.4505,-2.70292 -2.4588,-7.11645 1.3603,-6.05428 2.946,-6.97381 9.428,-5.46703 6.3633,1.47919 7.6584,1.13587 7.6584,-2.03018 0,-2.92031 -0.3439,-3.0682 -17.2253,-7.40715 -10.6042,-2.72557 -12.9865,-3.05388 -14.2929,-1.96971 -2.6168,2.17181 -1.2416,4.22575 4.0182,6.00136 4.9994,1.68772 5,1.68839 4.9528,6.08606 -0.026,2.41899 -0.3494,5.18551 -0.7186,6.14784 -0.7659,1.9958 -5.0695,2.33311 -9.2908,0.72818 -3.2731,-1.24445 -5.6854,0.33219 -5.2417,3.42593 0.2516,1.75394 2.3332,2.65538 13.2983,5.75889 14.5002,4.10406 18.0163,4.53965 18.8616,2.33668 z M 108.3152,598.43992 c 3.31088,-1.90399 4.67035,-2.21218 6.18426,-1.40196 3.47879,1.86179 7.98853,1.21284 10.74802,-1.54665 2.50446,-2.50446 2.56367,-2.84995 1.89681,-11.06867 -0.80912,-9.97187 -1.14688,-11.07619 -3.6286,-11.86386 -2.11754,-0.67208 -26.476856,3.24316 -29.254956,4.70211 -1.09733,0.57628 -1.68828,1.81068 -1.5,3.13324 0.27731,1.9479 1.06168,2.23605 7.301486,2.68234 5.74885,0.41117 7.05259,0.82495 7.33856,2.32909 0.77353,4.06864 -0.85811,6.65178 -5.77558,9.14365 -5.739306,2.90833 -6.681806,4.06561 -4.980526,6.11552 1.58873,1.9143 5.903166,1.09182 11.670526,-2.22481 z m 7.04558,-7.42152 c -0.94085,-0.54849 -2.18147,-2.6723 -2.75694,-4.71959 -0.92517,-3.29142 -0.80114,-3.92493 1.07142,-5.47234 4.28146,-3.53803 8.0183,-1.42437 8.18999,4.63247 0.15378,5.42513 -2.63953,7.81261 -6.50447,5.55946 z m 446.21705,-28.9452 c 4.803,-2.45029 5.9936,-4.52239 5.9936,-10.43099 0,-3.25967 -0.5826,-5.14829 -2.0365,-6.60221 -3.0629,-3.06287 -4.2643,-1.52623 -3.5123,4.49231 0.7072,5.66029 -0.8399,8.37647 -4.066,7.1385 -1.3963,-0.53582 -1.5392,-1.65417 -0.9611,-7.52097 0.7678,-7.79173 0.2421,-8.60853 -4.9174,-7.64061 -4.8158,0.90345 -9.5067,5.59135 -9.5067,9.50057 0,5.05452 2.4116,9.52918 6.1206,11.35633 4.4932,2.21352 8.135,2.13074 12.8858,-0.29293 z m -14.0064,-7.99673 c -1.2841,-2.39927 0.2562,-6 2.5666,-6 1.9437,0 2.8109,2.35954 2.0222,5.50224 -0.7538,3.00329 -3.1111,3.25899 -4.5888,0.49776 z m -425.68295,4.15183 c 0.86023,-0.71393 1.31766,-1.94016 1.0165,-2.72494 -0.43506,-1.13376 -3.19621,-1.42689 -13.44055,-1.42689 -11.559676,0 -13.099846,-0.20683 -14.893016,-2 -2.38909,-2.38909 -2.5395,-4.78474 -0.48459,-7.71853 1.62077,-2.31397 4.89002,-3.0601 18.223446,-4.15906 5.60422,-0.46191 7.83201,-1.06884 8.63936,-2.35365 0.83277,-1.32525 0.71184,-2.10727 -0.51567,-3.33479 -1.42102,-1.42101 -2.89319,-1.47462 -12.93265,-0.47096 -16.504016,1.64994 -19.929896,3.90588 -19.929896,13.12388 0,4.17845 3.03322,11.32061 5.22327,12.29898 2.59767,1.16045 27.480296,0.10503 29.093786,-1.23404 z m 446.48295,-22.35183 c 2.6769,-2.67692 -0.3016,-5.69596 -4.1591,-4.21569 -1.642,0.63007 -2.2294,3.49383 -0.9742,4.74902 1.0613,1.06133 3.8259,0.7741 5.1333,-0.53333 z m -448.407,-13.38179 c 0.33384,-0.86998 0.60698,-6.5091 0.60698,-12.53138 0,-9.11728 -0.2679,-11.0524 -1.60092,-11.56393 -1.95862,-0.7516 -3.36328,1.26924 -3.38376,4.86808 -0.008,1.48004 -0.57782,3.05504 -1.26532,3.5 -0.6875,0.44496 -6.875,1.03402 -13.75,1.30902 -11.666656,0.46667 -12.499996,0.63333 -12.499996,2.5 0,1.86968 0.83334,2.03258 12.789376,2.5 13.95176,0.54544 14.66692,0.86583 14.69531,6.58333 0.008,1.69584 0.31531,3.38334 0.68198,3.75 1.18207,1.18208 3.10256,0.71044 3.72635,-0.91512 z m 433.7254,-2.5312 c 17.3579,-5.523 19.6253,-8.59177 9.56,-12.93874 -14.2524,-6.15532 -25.5122,-8.91404 -26.3188,-6.44827 -0.7366,2.25198 1.9089,3.9551 10.7178,6.89977 5.1009,1.70513 9.431,3.58274 9.6225,4.17248 0.1961,0.60374 -4.0471,2.29981 -9.7111,3.88168 -9.7628,2.72658 -13.1053,4.93049 -11.476,7.56674 1.0405,1.68369 4.2744,1.10809 17.6056,-3.13366 z m 14.4634,-21.88701 c 1.1678,0 0.2089,-3.86634 -1.0818,-4.36163 -1.9544,-0.74995 -4.5,0.25055 -4.5,1.76862 0,1.83016 2.2819,3.69882 3.8036,3.11487 0.748,-0.28703 1.5482,-0.52186 1.7782,-0.52186 z m -46.8635,-139.25293 c 14.43,-14.81533 20.561,-31.46234 17.3251,-47.04125 -1.6012,-7.70847 -8.4837,-21.39341 -11.1917,-22.25287 -3.798,-1.20545 -27.8243,13.13745 -31.1421,18.59082 -1.2839,2.11027 4.1444,14.94709 9.0623,21.43053 5.3607,7.06727 7.8956,8.2969 13.8312,6.70935 3.0219,-0.80822 5.0645,-0.91604 5.6807,-0.29987 1.3157,1.31575 -6.0803,16.2341 -11.2124,22.61622 -6.4197,7.9834 -7.2824,9.34955 -6.6009,10.45236 1.1386,1.84228 5.6862,-1.41502 14.2478,-10.20529 z m -2.1166,-31.84572 c -3.4025,-2.67645 -7.4721,-10.67672 -8.225,-16.16922 -0.763,-5.56736 1.9088,-9.37926 5.8762,-8.3835 3.398,0.85284 8.3463,10.59508 9.3135,18.3365 0.6016,4.81555 0.4371,5.83912 -1.1218,6.97903 -2.3919,1.74902 -2.7009,1.70869 -5.8429,-0.76281 z m 44.1875,33.05634 5.2893,-5.00322 -0.2893,-32.39516 c -0.1591,-17.81734 -0.6526,-32.75795 -1.0967,-33.20135 -0.8765,-0.87515 -17.8348,16.55952 -20.0781,20.64204 -0.9352,1.70207 -1.0902,3.25315 -0.4857,4.85972 0.7678,2.04016 1.3443,2.27413 4.2572,1.72766 2.9228,-0.54832 3.4498,-0.331 3.978,1.64028 0.3348,1.24979 0.6149,11.98484 0.6224,23.85567 0.013,19.86105 0.2732,22.95266 1.9304,22.89712 0.3208,-0.0108 2.9634,-2.271 5.8725,-5.02276 z m -411.0365,-4.15266 c 10.1879,-7.85991 12.91414,-16.83399 7.41401,-24.40499 -1.5583,-2.14502 -3.5833,-4.51764 -4.5,-5.27248 -2.55305,-2.10228 -2.03026,-4.22429 2.34516,-9.51916 6.25175,-7.56548 6.40023,-11.10952 0.83081,-19.83077 -4.09775,-6.41673 -9.2476,-10.77763 -12.72745,-10.77763 -6.69894,0 -23.11525,16.9645 -23.11525,23.88713 0,1.09255 2.025,4.94427 4.5,8.55938 2.475,3.61511 4.5,6.9488 4.5,7.40822 0,0.45941 -0.96588,1.69254 -2.14639,2.74028 -3.77757,3.3527 -7.85361,9.62996 -7.85361,12.09487 0,1.31439 0.89636,4.14679 1.9919,6.29423 2.27716,4.46361 11.22116,13.77853 14.38482,14.98139 2.83264,1.077 7.69654,-1.00731 14.376,-6.16047 z M 138.6564,345.43568 c -4.45697,-5.06338 -4.92834,-7.14246 -2.46998,-10.89439 2.23971,-3.41822 3.52671,-3.11961 8.14404,1.8896 5.03053,5.45748 5.89384,8.0002 3.80083,11.19454 -2.36042,3.60247 -4.89122,3.01757 -9.47489,-2.18975 z m 2.04287,-33.9513 c -4.42965,-5.03234 -5.03533,-7.66729 -2.57115,-11.1854 2.15266,-3.07336 3.73479,-2.79348 7.32525,1.29583 3.64026,4.14603 4.75403,7.77106 3.49103,11.36238 -1.42801,4.06054 -3.73763,3.64798 -8.24513,-1.47281 z m -32.46477,42.34209 5.09477,-5.25 0.62153,-31.1907 c 0.41036,-20.59375 0.27831,-31.40282 -0.38868,-31.81504 -1.14629,-0.70845 -24.990706,21.28307 -24.990706,23.04873 0,0.63087 0.85909,1.92449 1.90908,2.87472 1.78359,1.61413 2.11835,1.61947 5.09293,0.0812 1.75112,-0.90554 3.47954,-1.35167 3.84092,-0.99139 0.36139,0.36027 0.780486,10.85595 0.931326,23.32373 0.15084,12.46778 0.47421,23.2312 0.71861,23.9187 0.74361,2.09179 1.8664,1.46542 7.17022,-4 z"
       id="path3809"
       inkscape:connector-curvature="0" />
  </g>
</svg>
