<?xml version="1.0" encoding="UTF-8" standalone="no"?>
<!-- Created with Inkscape (http://www.inkscape.org/) -->

<svg
   xmlns:dc="http://purl.org/dc/elements/1.1/"
   xmlns:cc="http://creativecommons.org/ns#"
   xmlns:rdf="http://www.w3.org/1999/02/22-rdf-syntax-ns#"
   xmlns:svg="http://www.w3.org/2000/svg"
   xmlns="http://www.w3.org/2000/svg"
   xmlns:sodipodi="http://sodipodi.sourceforge.net/DTD/sodipodi-0.dtd"
   xmlns:inkscape="http://www.inkscape.org/namespaces/inkscape"
   width="516.82483"
   height="593.67523"
   id="svg3865"
   version="1.1"
   inkscape:version="0.92.3 (2405546, 2018-03-11)"
   sodipodi:docname="tbw-logo.svg">
  <defs
     id="defs3867" />
  <sodipodi:namedview
     id="base"
     pagecolor="#ffffff"
     bordercolor="#666666"
     borderopacity="1.0"
     inkscape:pageopacity="0.0"
     inkscape:pageshadow="2"
     inkscape:zoom="0.96386718"
     inkscape:cx="73.771186"
     inkscape:cy="181.4078"
     inkscape:document-units="px"
     inkscape:current-layer="layer2"
     showgrid="false"
     inkscape:window-width="2560"
     inkscape:window-height="1387"
     inkscape:window-x="-8"
     inkscape:window-y="-8"
     inkscape:window-maximized="1"
     fit-margin-top="0"
     fit-margin-left="0"
     fit-margin-right="0"
     fit-margin-bottom="0"
     units="px" />
  <metadata
     id="metadata3870">
    <rdf:RDF>
      <cc:Work
         rdf:about="">
        <dc:format>image/svg+xml</dc:format>
        <dc:type
           rdf:resource="http://purl.org/dc/dcmitype/StillImage" />
        <dc:title></dc:title>
      </cc:Work>
    </rdf:RDF>
  </metadata>
  <g
     inkscape:groupmode="layer"
     id="layer2"
     inkscape:label="Hintergrund"
     transform="translate(-100,-100)"
     style="display:none">
    <rect
       style="opacity:1;fill:#000014;fill-opacity:0.98392286;stroke:none;stroke-width:0.99723607;stroke-miterlimit:4;stroke-dasharray:0.99723611, 2.99170833;stroke-dashoffset:0;stroke-opacity:1"
       id="rect825"
       width="516.82501"
       height="593.67499"
       x="100"
       y="100.00024" />
  </g>
  <g
     inkscape:label="Logo Blau"
     inkscape:groupmode="layer"
     id="layer1"
     style="display:none"
     transform="translate(-118.1955,-169.34422)">
    <path
       style="fill:#121a8c;fill-opacity:1"
       d="m 352.07315,756.54565 c -50.241,-16.864 -80.15058,-33.22769 -114.5,-62.64353 -25.25107,-21.62428 -49.51294,-48.14823 -64.27649,-70.26937 -30.22921,-45.29429 -45.28022,-84.33376 -52.92927,-137.28853 -1.47677,-10.22373 -1.70032,-28.31204 -2.01439,-162.98657 -0.33258,-142.61619 -0.2521,-151.56056 1.37457,-152.75 1.38138,-1.01009 52.90698,-1.26343 256.96528,-1.26343 230.70071,0 255.38851,0.15107 256.80887,1.57143 1.41306,1.41306 1.56514,14.64014 1.50901,131.25 -0.0663,137.76935 -0.77581,178.12738 -3.4312,195.17857 -7.72966,49.63493 -30.78748,100.69278 -65.90538,145.93692 -18.88414,24.32937 -51.29246,54.21547 -79.101,72.94485 -28.45793,19.16675 -87.66561,44.80024 -107.69592,46.62609 -5.88266,0.53623 -7.67449,0.11465 -26.80408,-6.30643 z m 35.5,-10.8888 c 20.25591,-5.01336 60.85311,-23.14999 83.5,-37.30327 28.67369,-17.91977 53.70386,-39.76359 78.36878,-68.39245 11.15857,-12.95187 31.10999,-43.18037 38.68835,-58.61691 14.93015,-30.4116 24.84406,-58.64322 30.02446,-85.5 2.70704,-14.03414 5.06524,-39.75704 5.91316,-64.5 0.51832,-15.125 1.06904,-77.675 1.22382,-139 l 0.28143,-111.5 -26,-0.72476 c -14.3,-0.39861 -78.2,-1.18524 -142,-1.74805 -63.8,-0.56282 -156.5,-1.53529 -206,-2.16106 -49.5,-0.62576 -96.59308,-0.80708 -104.6513,-0.40292 l -14.65131,0.73484 -0.60754,4.15098 c -0.86495,5.90961 -2.54454,143.57206 -2.66163,218.15097 -0.0922,58.70633 0.0429,64.01219 1.98196,77.8516 3.7667,26.88382 10.18688,51.77764 19.76783,76.6484 8.94715,23.22553 27.6136,56.05094 44.45393,78.17331 15.40216,20.23312 41.04472,45.28491 63.91222,62.43976 17.83117,13.37668 24.33198,17.44795 45.02792,28.19976 19.47154,10.11571 34.38603,16.22602 52.92792,21.68404 6.875,2.02374 12.95,3.82928 13.5,4.01232 1.6427,0.54669 10.58415,-0.60862 17,-2.19656 z M 331.79582,729.3902 c -7.53689,-2.40882 -9.04003,-3.70917 -8.33907,-7.21397 0.94813,-4.74067 13.39658,-29.83269 14.7941,-29.82009 2.33778,0.0211 13.14879,6.54415 15.00964,9.0564 2.16448,2.92218 3.32106,10.40816 2.38168,15.41547 -1.20419,6.4189 -10.46044,14.63825 -16.2869,14.46243 -0.98017,-0.0296 -4.38192,-0.88468 -7.55945,-1.90024 z m 12.77425,-7.3429 c 3.67744,-3.67744 5.70165,-9.46022 4.83256,-13.80566 -0.73255,-3.66279 -4.84365,-8.13352 -7.09663,-7.71744 -1.06138,0.19601 -3.53116,4.00123 -6.37371,9.82002 -4.94,10.11238 -5.02071,12.18922 -0.54377,13.99302 3.87131,1.55979 5.81712,1.07449 9.18155,-2.28994 z m 72.9855,1.51365 c -4.75553,-4.04641 -20.48242,-21.50185 -20.48242,-22.73365 0,-1.57452 3.09836,-2.77387 5.10912,-1.97771 0.76499,0.30289 3.64088,3.22967 6.39088,6.50395 4.5629,5.4328 7.5,7.42167 7.5,5.07865 0,-0.50162 -0.6632,-4.37826 -1.47377,-8.61475 -1.52837,-7.98808 -0.93774,-11.47322 1.94438,-11.47322 0.77013,0 3.98421,2.925 7.14239,6.5 3.15819,3.575 6.33725,6.5 7.06458,6.5 1.61926,0 1.63584,0.61742 -0.2198,-8.18462 -0.84822,-4.02346 -1.3021,-8.27824 -1.00863,-9.45508 0.57446,-2.3036 3.41115,-3.92155 4.63402,-2.64308 1.08435,1.13365 5.13351,27.51108 4.74505,30.91057 -0.23356,2.04382 -0.94669,2.96038 -2.47257,3.17792 -1.60129,0.22828 -3.50066,-1.33751 -7.5,-6.1828 -4.75927,-5.76597 -7.84669,-8.07277 -7.86029,-5.87291 -0.003,0.4125 0.75734,4.4266 1.68865,8.92023 1.40331,6.77109 1.46876,8.44077 0.38219,9.75 -1.66324,2.00408 -3.04867,1.95359 -5.58378,-0.2035 z M 299.12968,710.91233 c -0.667,-0.80368 -1.44534,-6.303 -1.77409,-12.5347 -0.32215,-6.10655 -0.92191,-11.31059 -1.33281,-11.56454 -0.41089,-0.25394 -2.86524,2.93673 -5.4541,7.0904 -3.76711,6.04407 -5.13521,7.49107 -6.85128,7.24642 -1.2486,-0.178 -2.26271,-1.14109 -2.42785,-2.30569 -0.4249,-2.99644 13.89176,-25.92909 16.41777,-26.29826 3.62043,-0.5291 4.83296,2.43488 5.36583,13.11657 0.32618,6.53839 0.9186,10.16096 1.70408,10.42026 0.66225,0.21862 2.91225,-2.33772 5,-5.68075 3.66961,-5.87598 6.18092,-7.86496 8.28697,-6.56335 0.55492,0.34296 1.00895,1.2937 1.00895,2.11275 0,1.38229 -9.87775,19.05493 -13.49411,24.14278 -1.82095,2.56189 -4.69914,2.927 -6.44936,0.81811 z M 459.3444,698.82166 c -2.98685,-2.09208 -14.27125,-19.1511 -14.27125,-21.57436 0,-3.0779 2.87101,-3.48822 5.55161,-0.79343 1.30777,1.31469 4.53115,5.5256 7.16308,9.35758 2.63192,3.83197 5.97096,7.6302 7.42008,8.44051 2.36055,1.31995 2.90696,1.29494 5.25,-0.24028 4.29169,-2.81203 3.56859,-7.11022 -2.96461,-17.62199 -5.74711,-9.24696 -6.42419,-12.32658 -2.82378,-12.84355 1.64132,-0.23568 3.36422,1.65563 8.22926,9.03366 7.20694,10.9296 8.54263,16.26155 5.34694,21.34446 -3.57614,5.68803 -13.93907,8.3731 -18.90133,4.8974 z m -100.77125,-4.39305 c -39.28756,-15.1396 -65.73433,-31.44709 -93.69026,-57.7709 -43.62962,-41.08242 -70.23584,-86.98307 -83.13732,-143.42721 -4.017,-17.57442 -5.31374,-27.90059 -6.28046,-50.01241 l -0.68317,-15.62612 5.39561,-3.46468 c 14.74296,-9.4669 21.84902,-23.97212 20.61169,-42.07359 -0.61368,-8.97778 -4.86357,-19.17764 -11.06408,-26.55409 -2.0086,-2.38954 -3.65201,-5.0439 -3.65201,-5.89857 0,-0.85467 2.10048,-5.4246 4.66773,-10.15539 10.06699,-18.55092 33.51256,-59.67161 34.72423,-60.90208 1.04924,-1.06553 2.77681,-0.64288 9.55645,2.33795 5.42794,2.38653 8.61432,3.29997 9.25977,2.65452 0.64546,-0.64546 -2.87036,-9.02039 -10.21714,-24.33796 -15.28038,-31.85861 -14.86471,-30.72799 -12.11541,-32.95423 2.57251,-2.08309 24.07043,-10.62947 38.75537,-15.40698 13.28261,-4.32128 21.2125,-6.06869 22.27864,-4.90925 0.46356,0.50413 1.83359,3.94921 3.04452,7.65574 2.45132,7.50329 3.16108,8.25168 7.51722,7.92636 5.79536,-0.43279 31.03463,-5.33879 31.93733,-6.20796 0.5444,-0.52418 0.46638,-3.99854 -0.19462,-8.66625 -0.87123,-6.1523 -0.83547,-8.06329 0.16999,-9.08428 2.16381,-2.19722 18.88442,-3.36189 48.61592,-3.38631 27.62207,-0.0227 45.9456,1.13259 52.84748,3.33201 l 3.34748,1.06674 -0.6991,8.8328 -0.69909,8.8328 5.35162,1.49881 c 8.65348,2.42356 26.89135,5.81487 28.321,5.26626 0.72508,-0.27824 2.52805,-4.13834 4.00659,-8.57801 2.34798,-7.05034 2.98639,-8.07211 5.04349,-8.07211 5.68985,0 58.49534,19.89346 62.5531,23.56568 1.71831,1.55505 1.73055,1.89214 0.21027,5.79273 -0.88781,2.27787 -2.37741,5.26659 -3.31021,6.64159 -1.8197,2.68234 -19.97263,41.12638 -19.97263,42.29778 0,1.39611 3.64992,0.6347 11.3905,-2.37617 6.53746,-2.5429 8.1141,-2.84219 9.19449,-1.7454 1.87012,1.89851 34.41678,71.51104 34.40612,73.58967 -0.005,0.95377 -2.21909,4.31611 -4.92046,7.47188 -9.95923,11.63448 -13.31747,22.90768 -11.19623,37.58432 0.68983,4.77285 2.10175,10.5944 3.13759,12.93676 1.81715,4.10913 12.28648,15.27307 18.81866,20.06722 2.78257,2.0422 3.16692,2.89643 3.14957,7 -0.0382,9.04709 -2.94264,33.26186 -5.4454,45.39984 -11.42461,55.40739 -36.66156,102.82655 -75.50623,141.87298 -23.92563,24.04989 -44.13781,38.4299 -76.4183,54.36798 -15.68978,7.74662 -24.2792,11.33579 -33.4516,13.97804 -6.78771,1.9553 -13.08771,3.54113 -14,3.52406 -0.91229,-0.0171 -6.15871,-1.76513 -11.65871,-3.88457 z m 22.81839,-10.10101 c 40.72969,-12.58012 84.67262,-41.08644 114.37685,-74.19768 8.75554,-9.75977 25.18702,-31.62457 30.27486,-40.2857 10.41613,-17.73157 21.4049,-42.72723 26.86684,-61.11281 5.73283,-19.29745 10.16306,-45.64412 10.16306,-60.43993 0,-6.08614 -0.65998,-7.29054 -6.26044,-11.42469 -5.14004,-3.79427 -12.30017,-13.50093 -16.61255,-22.52087 -3.53961,-7.40359 -3.58516,-7.66251 -3.60595,-20.5 -0.0202,-12.4889 0.10708,-13.29666 3.22791,-20.48031 1.78693,-4.11323 4.86708,-10.10016 6.84478,-13.30428 2.77879,-4.502 3.443,-6.43819 2.92328,-8.5214 -0.97946,-3.92592 -22.55615,-50.02246 -24.58997,-52.53412 -2.04608,-2.5268 -0.97554,-2.77873 -26.92706,6.33679 -26.02047,9.13975 -52.89858,14.98212 -83.34572,18.11648 -7.05594,0.72636 -12.38711,1.76082 -13.18462,2.55834 -2.46537,2.46537 3.97759,21.89617 12.75924,38.47953 2.84705,5.37639 4.82323,10.12896 4.39153,10.56126 -0.94058,0.94189 -78.59802,1.7004 -83.32371,0.81385 -1.8132,-0.34016 -3.29672,-1.18103 -3.29672,-1.8686 0,-0.68758 2.40773,-5.60788 5.35051,-10.93401 8.84214,-16.00334 15.54617,-35.26287 13.10481,-37.64785 -0.52543,-0.51329 -6.58032,-1.65004 -13.45532,-2.52612 -27.58329,-3.51494 -55.41629,-10.3244 -83.79529,-20.50087 -6.21242,-2.22771 -11.90113,-4.05039 -12.6416,-4.05039 -1.63529,0 -3.03626,4.92685 -1.76301,6.2001 0.50095,0.50095 7.16335,3.72419 14.80535,7.16276 19.08427,8.58711 26.82825,12.82336 27.21405,14.88714 0.70046,3.74697 -6.29085,2.08463 -28.34923,-6.74068 -19.88329,-7.95508 -19.19898,-5.55305 1.89533,6.65282 21.91633,12.68154 22.96167,13.49143 20.28289,15.71462 -0.8822,0.73217 -6.61706,-1.37923 -20.17243,-7.42688 -18.53028,-8.26717 -23.03512,-9.72438 -22.25787,-7.19988 0.21166,0.6875 6.66166,5.37581 14.33333,10.41847 7.67166,5.04266 15.74559,10.45965 17.94206,12.03775 4.09064,2.93902 5.8052,6.29378 3.21664,6.29378 -0.79003,0 -10.15335,-4.29655 -20.80736,-9.54788 -12.72275,-6.27101 -19.5114,-9.12651 -19.78019,-8.32012 -0.47283,1.41847 0.74536,2.46194 18.69817,16.01636 13.42005,10.13217 15.55712,12.38198 13.16556,13.86004 -1.79506,1.10942 -2.33826,0.84247 -18.34368,-9.01479 -18.80393,-11.58076 -22.5747,-13.46636 -24.0117,-12.00716 -0.84596,0.85903 0.75929,2.82651 6.36898,7.80622 13.16507,11.68658 25,23.52385 25,25.00493 0,2.54735 -3.23772,0.77494 -21.30196,-11.66126 -9.69577,-6.67499 -18.09428,-12.13634 -18.66335,-12.13634 -1.61412,0 -1.24658,2.10005 1.58569,9.06039 2.14166,5.26316 2.71215,8.58338 3.1227,18.17408 0.45658,10.66593 0.26382,12.49945 -2.11692,20.13529 -3.0479,9.77568 -8.18284,17.34983 -17.4411,25.72602 l -6.18506,5.59579 v 10.56247 c 0,21.08169 4.32916,46.29859 12.09784,70.46874 8.47885,26.37966 22.48682,53.02232 41.48725,78.90725 6.60067,8.99233 33.25283,36.49999 44.41491,45.84057 8.62956,7.22134 26.21912,18.88698 40.84349,27.08796 12.85524,7.20889 40.43668,18.43529 45.30117,18.4388 2.00457,10e-4 6.58274,-0.90484 10.17373,-2.01398 z m -15.66294,-9.16651 c -9.95662,-3.48649 -42.61802,-20.24469 -53.65545,-27.53002 -30.54709,-20.16281 -59.63189,-50.25489 -79.2925,-82.03862 -20.9843,-33.92364 -35.40912,-81.35563 -36.02102,-118.44512 l -0.18648,-11.30311 27.5,0.26769 c 23.05061,0.22439 27.68159,0.5102 28.62231,1.76651 0.61728,0.82435 1.42225,5.20389 1.78883,9.73231 3.69141,45.6002 18.92612,82.5941 47.89513,116.30202 12.95456,15.07373 30.08808,29.92997 37.49623,32.51246 5.20111,1.81312 9.9949,-0.36873 12.31022,-5.60291 4.03085,-9.11239 3.16489,-19.07652 -2.65624,-30.56396 -4.34003,-8.56464 -5.22743,-8.29453 25.17241,-7.662 17.29095,0.35978 26.96073,0.9375 27.67679,1.65356 0.80079,0.80079 0.15995,2.93427 -2.35254,7.83206 -3.30052,6.43395 -3.45314,7.20258 -3.45314,17.39034 0,9.25177 0.26402,10.9521 2,12.88016 4.94565,5.49285 10.29306,4.43607 21.13027,-4.17586 36.50124,-29.00619 59.20845,-63.98935 69.94922,-107.76506 1.95778,-7.97926 4.1017,-20.17642 4.79474,-27.27818 0.82578,-8.46193 1.74364,-13.31659 2.68966,-14.22595 1.20257,-1.15597 5.9081,-1.21729 28.93611,-0.3771 15.125,0.55185 27.8928,1.37603 28.37289,1.83152 1.24967,1.18564 -1.92521,30.26737 -4.82501,44.19684 -6.41217,30.80147 -19.48341,61.77851 -37.43283,88.71063 -3.08828,4.63379 -6.69031,10.03379 -8.00453,12 -10.3979,15.55642 -39.08919,43.32529 -59.15925,57.2573 -20.18574,14.01231 -56.50282,31.6099 -70.45127,34.13745 -1.77877,0.32232 -5.37917,-0.28949 -8.84455,-1.50296 z M 326.28624,533.40898 c -19.11789,-0.46365 -23.47339,-0.8333 -24.32857,-2.06476 -1.14947,-1.65523 -0.39079,-139.37183 0.77822,-141.26332 0.82555,-1.33576 96.55705,-0.18483 106.83726,1.28446 13.73324,1.96281 24.02178,9.41363 30.90061,22.3778 2.37162,4.46967 2.59939,5.9234 2.59939,16.59039 V 442.025 l -5,8.31922 c -2.75,4.57557 -5,8.4878 -5,8.69384 0,0.20603 2.91981,3.10595 6.48848,6.44426 9.3533,8.74955 12.79954,16.12852 13.34373,28.57113 0.40026,9.15154 0.31292,9.61215 -3.14782,16.60173 -6.59646,13.32274 -16.93771,20.63992 -32.00675,22.64711 -8.00405,1.06613 -49.88897,1.11499 -91.46455,0.10669 z m 78.9411,-33.19125 c 11.90955,-2.55414 14.64569,-12.76194 5.37147,-20.03952 l -2.97433,-2.33399 h -37.02567 -37.02566 l -0.25394,9.5 c -0.13967,5.225 0.18078,10.175 0.71211,11 0.79996,1.24212 5.22767,1.59187 25.75394,2.03437 13.63334,0.2939 28.25324,0.6314 32.48867,0.75 4.23543,0.11859 10.06446,-0.29129 12.95341,-0.91086 z m 1.92794,-57.80283 c 4.85299,-5.81309 4.42101,-11.89289 -1.26159,-17.75584 l -3.21287,-3.31484 h -34.28478 -34.28479 l -0.56222,2.25 c -0.30923,1.2375 -0.4303,6.525 -0.26905,11.75 l 0.29317,9.5 17,0.6 c 9.35,0.33001 25.29382,0.51668 35.43071,0.41483 l 18.43072,-0.18518 z M 210.77471,338.43696 c 7.81724,-9.31209 12.2698,-16.93001 15.48568,-26.49454 2.55917,-7.6114 2.73702,-9.5982 0.85917,-9.5982 -0.91804,0 -24.04641,40.4016 -24.04641,42.00527 0,2.30974 2.24787,0.58404 7.70156,-5.91253 z m 203.32467,-27.11038 c 22.54087,-2.70698 52.05193,-8.71685 52.72546,-10.73743 0.6348,-1.9044 -7.45387,-4.93729 -25.96807,-9.73688 -20.28732,-5.25924 -38.08388,-7.63636 -40.3329,-5.38734 -2.06718,2.06717 -3.29776,23.15374 -1.47911,25.34509 1.49854,1.80563 3.69355,1.88094 15.05462,0.51656 z m -59.72225,-2.3766 c 1.09675,-1.50843 -0.21475,-21.79332 -1.50993,-23.35391 -0.59494,-0.71686 -3.32414,-1.25185 -6.38622,-1.25185 -16.07304,0 -59.90783,10.23778 -59.90783,13.9917 0,2.51374 36.88235,10.62212 56,12.31128 5.29522,0.46787 10.80588,-0.32448 11.80398,-1.69722 z m 147.81765,-33.23374 c 4.41089,-9.07671 8.10047,-17.71111 8.19908,-19.18756 0.15853,-2.37365 -0.57329,-3.04656 -6.32071,-5.81192 -10.72364,-5.15966 -38.52714,-14.14266 -55.07785,-17.79503 -28.48492,-6.28599 -45.72675,-8.06816 -76.42215,-7.89921 -29.76284,0.16382 -43.54405,1.48311 -66.98049,6.41213 -29.47297,6.19858 -59.21377,16.06449 -60.78726,20.16495 -0.88884,2.31627 13.30393,34.91715 16.95988,38.95692 2.0761,2.29407 4.30787,2.29691 4.30787,0.005 0,-0.98022 -2.7,-8.42904 -6,-16.55293 -6.12591,-15.08067 -6.95539,-18.64825 -4.75,-20.42964 3.0261,-2.44431 39.03375,-12.77841 54.75,-15.71312 34.06402,-6.36078 86.69539,-7.0224 118.5,-1.48963 24.04581,4.18304 63.61157,15.5345 70.98478,20.36561 1.46861,0.96227 2.50159,2.57469 2.48245,3.87498 -0.018,1.22482 -2.90452,8.70298 -6.41444,16.61812 -3.50992,7.91515 -6.15019,14.9944 -5.86727,15.73169 1.27288,3.31708 4.85714,-1.65486 12.43611,-17.25084 z m -21.15681,14.69372 c 1.79299,-3.35024 1.19474,-5.93369 -1.71482,-7.40514 -15.14233,-7.65793 -70.44603,-20.19321 -74.84603,-16.96479 -1.46563,1.07538 -2.49761,5.53464 -1.61234,6.96704 0.38962,0.63043 10.41788,2.97568 22.285,5.21167 14.45153,2.72294 26.50463,5.69354 36.49998,8.99574 8.20787,2.71167 15.69506,4.97518 16.63821,5.03002 0.94315,0.0549 2.18065,-0.7707 2.75,-1.83454 z m -197.84055,-2.61531 c 12.73211,-4.5088 28.24275,-8.03849 52.60159,-11.97029 7.95389,-1.28386 14.71174,-2.5844 15.01744,-2.89011 0.30571,-0.3057 0.12622,-2.02602 -0.39887,-3.82293 l -0.95469,-3.2671 -8.94487,0.18957 c -10.40751,0.22056 -30.70979,3.99357 -47.51159,8.82963 -17.20637,4.95252 -18.93328,5.79437 -18.93328,9.22977 0,2.96691 1.55476,5.25103 3.57427,5.25103 0.64585,0 3.14335,-0.69731 5.55,-1.54957 z m 235.87573,-49.49822 c 0,-1.44388 -1.53855,-2.65785 -5.70219,-4.49921 -7.02122,-3.10511 -8.79781,-2.89271 -8.79781,1.05185 0,2.67433 0.55642,3.19927 5.46543,5.1562 5.99316,2.38911 9.03457,1.81385 9.03457,-1.70884 z m -268.14722,-4.40699 c 0.8448,-0.82571 1.08753,-2.15792 0.64642,-3.54775 -0.58991,-1.85865 -1.23689,-2.13944 -3.92455,-1.7033 -4.7671,0.7736 -11.00318,3.97694 -11.3612,5.83601 -0.17234,0.89489 0.40247,2.34289 1.27737,3.21778 1.45429,1.45429 2.03748,1.41613 6.79995,-0.44491 2.86508,-1.11959 5.81798,-2.63062 6.56201,-3.35783 z m 240.57579,-3.11665 c 0.86429,-0.86428 1.57143,-2.20273 1.57143,-2.97432 0,-2.20481 -5.90303,-4.69645 -11.44602,-4.8313 -4.4283,-0.10773 -5.05398,0.12465 -5.05398,1.87705 0,1.42813 1.57263,2.77714 5.5,4.7179 6.45066,3.18769 7.33766,3.30159 9.42857,1.21067 z m -220.10787,-3.02218 c 5.35316,-1.824 6.07084,-2.59739 5.13793,-5.53675 -0.59575,-1.87703 -1.1808,-2.0425 -5.24959,-1.48481 -7.44835,1.02091 -11.05972,4.36449 -8.00904,7.41517 1.56272,1.56271 2.51462,1.51658 8.1207,-0.39361 z m 145.09751,-13.01338 c 2.61574,-1.00375 1.95754,-5.29965 -0.98331,-6.41776 -3.36761,-1.28037 -7.15224,-1.24162 -7.97003,0.0816 -1.22218,1.97754 0.48279,5.79378 2.78678,6.23765 3.73147,0.71888 4.51723,0.73143 6.16656,0.0985 z m -68.98964,-1.96444 c 0.86429,-0.86428 1.57143,-2.19845 1.57143,-2.96482 0,-1.5053 -2.87338,-3.36732 -4.5,-2.91609 -0.55,0.15257 -2.18786,0.53788 -3.6397,0.85624 -3.05257,0.66937 -4.40554,3.23419 -2.75511,5.22285 1.54583,1.86261 7.38675,1.73845 9.32338,-0.19818 z m 20.98964,-0.0356 c 0.91863,-0.35251 1.58179,-1.77501 1.58179,-3.39301 0,-3.97975 -4.67472,-5.42077 -8.50332,-2.62123 -1.7974,1.31429 -1.80526,1.50134 -0.16807,4 1.68637,2.57372 3.95325,3.21777 7.0896,2.01424 z m 27.11692,-0.44985 c 1.26999,-2.05488 -0.52569,-5.90269 -3.05036,-6.53634 -3.91134,-0.98168 -7.38095,0.33133 -8.06368,3.05157 -0.91262,3.63616 0.19963,4.54161 5.57891,4.54161 2.68508,0 5.17589,-0.47558 5.53513,-1.05684 z M 256.57315,683.92686 c -4.45091,-1.9867 -8.49747,-6.79219 -9.16061,-10.87867 -0.68962,-4.2496 1.58583,-8.53831 9.9237,-18.70397 5.4175,-6.60511 8.12963,-7.90984 10.06483,-4.84192 0.83972,1.33124 -0.0408,3.00676 -4.46713,8.5 -7.77072,9.64384 -9.05001,11.84316 -8.68345,14.92839 0.40336,3.39496 4.81485,6.86817 7.60058,5.98401 1.11005,-0.35231 5.47208,-4.70145 9.6934,-9.66475 7.55352,-8.88119 10.56796,-10.65581 11.33499,-6.67296 0.43162,2.2412 -4.83914,9.82952 -11.81995,17.01723 -6.04203,6.22111 -8.565,6.97569 -14.48636,4.33264 z m 200.12418,-6.61743 c -2.79319,-3.31952 -3.37795,-6.38132 -1.4467,-7.5749 1.58925,-0.98221 6.97331,5.56222 6.60734,8.03136 -0.45491,3.06928 -2.33376,2.90309 -5.16064,-0.45646 z m 38.16378,-3.71521 c -5.85987,-6.07377 -16.78796,-19.59138 -16.78796,-20.76603 0,-1.45157 2.10668,-3.48397 3.61131,-3.48397 0.66622,0 4.86794,4.275 9.33715,9.5 4.46922,5.225 8.6001,9.5 9.17975,9.5 0.57964,0 3.68363,-1.84466 6.89776,-4.09924 5.52114,-3.87286 7.97403,-4.34964 7.97403,-1.54995 0,1.809 -13.91355,14.64919 -15.87378,14.64919 -0.39618,0 -2.34839,-1.6875 -4.33826,-3.75 z m -271.02309,-15 c -5.1115,-3.91395 -8.76487,-8.65576 -8.76487,-11.37616 0,-3.02755 20.78116,-23.87384 23.79925,-23.87384 2.27672,0 10.44712,8.62108 12.91202,13.62425 2.07772,4.21728 0.68903,8.14864 -4.01829,11.37575 -2.00569,1.375 -4.95367,4.56884 -6.55106,7.09743 -3.22354,5.10268 -4.58487,5.90257 -10.04557,5.90257 -2.54277,0 -4.88979,-0.88035 -7.33148,-2.75 z m 10.01262,-4.8067 c 3.00052,-2.10164 2.79566,-4.61823 -0.6787,-8.33754 -3.49871,-3.74539 -5.03099,-3.87128 -8.04678,-0.66112 -2.86663,3.05139 -2.23972,6.37218 1.65728,8.77875 3.46865,2.14205 4.28759,2.16753 7.0682,0.21991 z m 11.24485,-11.2603 c 1.98214,-1.60505 2.09673,-2.10082 0.98228,-4.25 -3.20617,-6.18302 -7.13991,-7.65097 -10.51341,-3.92328 -1.60598,1.77458 -1.65792,2.31027 -0.44391,4.57865 1.19577,2.23434 5.17965,5.25182 7.09192,5.37159 0.35156,0.022 1.64897,-0.77761 2.88312,-1.77696 z m 265.20649,3.50153 c -5.62586,-5.71702 -10.22883,-11.05577 -10.22883,-11.86387 0,-1.97995 13.52987,-15.82066 15.46537,-15.82066 2.72829,0 1.63805,3.75886 -2.46537,8.5 -4.13189,4.77402 -4.87101,7.22899 -2.8,9.3 1.95141,1.95141 3.8283,1.40715 7.93168,-2.3 4.20089,-3.79525 6.32094,-4.36883 7.24523,-1.96018 0.36823,0.9596 -0.91028,3.16838 -3.39302,5.86183 -2.19114,2.3771 -3.98389,4.65015 -3.98389,5.05122 0,0.40106 1.59294,2.59019 3.53986,4.86473 3.85033,4.49825 4.23836,7.99928 0.93897,8.47196 -1.43829,0.20606 -4.97103,-2.7081 -12.25,-10.10503 z m 31.6527,-21.35452 c -12.62971,-8.67532 -19.88153,-14.51429 -19.88153,-16.00805 0,-0.87963 2.51561,-4.67414 5.59024,-8.43226 4.344,-5.30967 6.35135,-6.97572 9.00441,-7.47343 4.33392,-0.81305 8.04273,1.47161 10.0023,6.16151 1.15149,2.75591 1.98217,3.42222 4.26643,3.42222 2.78159,0 11.13662,5.16445 11.13662,6.88383 0,0.4792 -0.59373,1.36403 -1.31939,1.96628 -0.97573,0.80978 -2.71487,0.56476 -6.67693,-0.94071 -5.28526,-2.00824 -5.39226,-2.00991 -7.93061,-0.12366 -3.99847,2.97127 -3.86676,6.49571 0.36905,9.87547 3.74936,2.99162 4.46169,5.3438 2.18941,7.22963 -1.06421,0.88321 -2.56501,0.31384 -6.75,-2.56083 z M 539.6209,608.6982 c 2.98123,-3.2168 3.1359,-6.42531 0.42787,-8.87604 -1.96458,-1.77793 -2.10193,-1.77413 -4.65022,0.12844 -1.44421,1.07826 -3.27439,2.93724 -4.06706,4.13106 -1.31338,1.97805 -1.21538,2.39643 1.10477,4.71658 3.19874,3.19874 4.13957,3.18564 7.18464,-0.10004 z m -339.35425,17.43952 c -1.84802,-1.84803 -1.44629,-3.43599 1.8065,-7.14072 3.3316,-3.79448 3.78685,-7.08439 1.4433,-10.43027 -2.02184,-2.88658 -3.99626,-2.80431 -8.55746,0.35661 -3.11353,2.15768 -4.07174,2.39176 -5.86408,1.43252 -1.17833,-0.63062 -2.00025,-1.88482 -1.82648,-2.78711 0.36502,-1.89537 22.32907,-17.86951 25.27464,-18.38187 1.48578,-0.25845 3.14235,1.37766 6.74063,6.65734 6.39017,9.37619 6.95435,12.48894 2.98336,16.45994 -2.29313,2.29313 -3.98032,3.0534 -6.86699,3.09436 -3.42666,0.0486 -4.14068,0.5371 -6.82692,4.6705 -3.67787,5.65929 -6.58903,7.78617 -8.3065,6.0687 z m 15.87224,-16.82868 c 2.47738,-1.32585 2.45682,-4.59549 -0.0548,-8.71482 -2.2158,-3.63418 -3.54433,-3.96557 -6.78845,-1.6933 -2.91982,2.04513 -2.80821,4.59378 0.36639,8.36657 2.82469,3.35697 3.57629,3.59388 6.47684,2.04155 z m 349.26046,-14.67388 c -1.16075,-1.53502 -5.759,-6.81455 -10.21833,-11.7323 -4.45933,-4.91776 -8.10787,-9.7054 -8.10787,-10.63922 0,-0.93382 0.7875,-2.62597 1.75,-3.76033 l 1.75,-2.06247 13.5,2.42614 c 7.425,1.33438 13.97649,2.43764 14.55887,2.45169 0.58238,0.014 1.91539,0.65185 2.96225,1.41734 1.61719,1.18252 1.7027,1.6336 0.56869,3 -0.74632,0.89926 -2.83012,1.60821 -4.72695,1.60821 -2.749,0 -3.77265,0.61628 -5.39829,3.25 -3.03394,4.91532 -3.44379,7.56299 -1.50273,9.70783 2.2347,2.46932 1.65537,6.45378 -0.99351,6.83311 -1.27733,0.18292 -2.81527,-0.74532 -4.14213,-2.5 z m 0.4738,-13.49094 c 1.79938,-1.79938 1.46065,-5.59184 -0.55,-6.15796 -8.97071,-2.52579 -10.75581,-1.42665 -6.16842,3.79809 3.31967,3.7809 4.78329,4.295 6.71842,2.35987 z m -395.19876,0.29115 c -2.53068,-4.89986 -4.60124,-9.84825 -4.60124,-10.99642 0,-1.67378 2.29814,-3.20082 11.59412,-7.70394 6.37676,-3.089 12.99098,-5.67811 14.69826,-5.75358 2.90546,-0.12843 3.41762,0.42476 8.00147,8.64252 4.93958,8.8555 5.38623,11.72027 1.82734,11.72027 -1.34997,0 -2.98437,-1.90442 -5.36384,-6.25 -2.71384,-4.95622 -3.97564,-6.31561 -6.09549,-6.56697 -4.00475,-0.47485 -4.35365,2.13895 -1.17366,8.79227 1.52386,3.18828 2.46085,6.29813 2.08221,6.91078 -1.5501,2.50812 -4.22729,0.90636 -7.42734,-4.44376 -2.81365,-4.70412 -3.71715,-5.51043 -5.88277,-5.25 -4.48545,0.5394 -4.89476,2.84435 -1.79869,10.1291 1.53626,3.61469 2.525,7.27111 2.19718,8.12537 -1.28364,3.34512 -3.64344,1.19089 -8.05755,-7.35564 z m 408.89876,-30.10465 c -11.29804,-4.83163 -13.92776,-4.99377 -16,-0.9865 -1.74937,3.3829 -5.5,4.18241 -5.5,1.17241 0,-1.95652 3.9871,-12.26007 7.12881,-18.42241 2.95389,-5.79394 7.11548,-4.15294 4.81472,1.89854 -1.41969,3.73404 0.45037,5.40089 10.93488,9.74666 11.26897,4.67092 12.97935,5.90326 11.51441,8.29623 -1.64788,2.69179 -3.04326,2.50726 -12.89282,-1.70493 z M 155.7082,548.83554 c -0.89191,-2.32426 0.67718,-5.40966 6.35246,-12.49132 6.81462,-8.50333 7.60853,-10.00128 5.29768,-9.99564 -0.98185,0.002 -4.88451,1.08955 -8.67258,2.41589 -7.62529,2.6699 -9.61261,2.47965 -9.61261,-0.92025 0,-2.56727 -0.55719,-2.28016 14.73928,-7.59492 13.49559,-4.68903 15.97605,-4.88748 16.86411,-1.34918 0.48613,1.93691 -0.0737,3.45055 -2.31165,6.25 -7.36375,9.21136 -10.26563,13.42732 -9.78142,14.21079 0.44441,0.71908 10.45119,-1.52708 15.57947,-3.49702 1.87998,-0.72216 4.35635,1.87532 3.61923,3.79624 -0.56112,1.46225 -25.90761,10.68409 -29.36555,10.68409 -1.17122,0 -2.39001,-0.67891 -2.70842,-1.50868 z m 427.86495,-25.328 c -10.9651,-3.10351 -13.04669,-4.00495 -13.29826,-5.75889 -0.44374,-3.09374 1.96855,-4.67038 5.24172,-3.42593 4.22127,1.60493 8.52486,1.26762 9.29073,-0.72818 0.36927,-0.96233 0.69265,-3.72885 0.71861,-6.14784 0.0472,-4.39767 0.0466,-4.39834 -4.9528,-6.08606 -5.25983,-1.77561 -6.63502,-3.82955 -4.01815,-6.00136 1.30634,-1.08417 3.68863,-0.75586 14.29289,1.96971 16.88135,4.33895 17.22526,4.48684 17.22526,7.40715 0,3.16605 -1.29511,3.50937 -7.6584,2.03018 -6.48196,-1.50678 -8.06772,-0.58725 -9.42802,5.46703 -0.99166,4.41353 -0.0621,7.10398 2.45886,7.11645 2.92192,0.0145 8.48805,2.18849 8.99668,3.51395 0.97339,2.53662 -0.45406,4.48431 -3.22611,4.40185 -1.45365,-0.0432 -8.49301,-1.73436 -15.64301,-3.75806 z M 144.14641,508.93248 c -1.70128,-2.04991 -0.75878,-3.20719 4.98053,-6.11552 4.91747,-2.49187 6.54911,-5.07501 5.77558,-9.14365 -0.28597,-1.50414 -1.58971,-1.91792 -7.33856,-2.32909 -6.23981,-0.44629 -7.02418,-0.73444 -7.30149,-2.68234 -0.18828,-1.32256 0.40267,-2.55696 1.5,-3.13324 2.7781,-1.45895 27.13742,-5.37419 29.25496,-4.70211 2.48172,0.78767 2.81948,1.89199 3.6286,11.86386 0.66686,8.21872 0.60765,8.56421 -1.89681,11.06867 -2.75949,2.75949 -7.26923,3.40844 -10.74802,1.54665 -1.51391,-0.81022 -2.87338,-0.50203 -6.18426,1.40196 -5.76736,3.31663 -10.0818,4.13911 -11.67053,2.22481 z m 23.99999,-10.17651 c 1.61925,-1.95108 1.56045,-7.94326 -0.0975,-9.94103 -1.63066,-1.96481 -4.28686,-1.85686 -6.87186,0.27928 -1.87256,1.54741 -1.99659,2.18092 -1.07142,5.47234 1.48732,5.29129 5.42406,7.3424 8.04082,4.18941 z m 428.04735,-28.12209 c -3.70894,-1.82715 -6.1206,-6.30181 -6.1206,-11.35633 0,-3.90922 4.69095,-8.59712 9.50675,-9.50057 5.15946,-0.96792 5.68514,-0.15112 4.91736,7.64061 -0.5781,5.8668 -0.43518,6.98515 0.96114,7.52097 3.22609,1.23797 4.77317,-1.47821 4.06597,-7.1385 -0.75197,-6.01854 0.44944,-7.55518 3.51231,-4.49231 1.45392,1.45392 2.03647,3.34254 2.03647,6.60221 0,5.9086 -1.19062,7.9807 -5.9936,10.43099 -4.75077,2.42367 -8.39254,2.50645 -12.8858,0.29293 z m 3.46819,-8.78742 c 0.78877,-3.1427 -0.0784,-5.50224 -2.02222,-5.50224 -2.31036,0 -3.85062,3.60073 -2.56657,6 1.47776,2.76123 3.83502,2.50553 4.58879,-0.49776 z m -459.36552,5.88363 c -2.19005,-0.97837 -5.22327,-8.12053 -5.22327,-12.29898 0,-9.218 3.42588,-11.47394 19.9299,-13.12388 10.03946,-1.00366 11.51163,-0.95005 12.93265,0.47096 1.22751,1.22752 1.34844,2.00954 0.51567,3.33479 -0.80735,1.28481 -3.03514,1.89174 -8.63936,2.35365 -13.33343,1.09896 -16.60268,1.84509 -18.22345,4.15906 -2.05491,2.93379 -1.9045,5.32944 0.48459,7.71853 1.79317,1.79317 3.33334,2 14.89302,2 10.24434,0 13.00549,0.29313 13.44055,1.42689 1.17698,3.06715 -2.31519,4.01787 -15.70706,4.27616 -7.21958,0.13925 -13.70104,-0.003 -14.40324,-0.31718 z m 470.4434,-23.05254 c -1.2552,-1.25519 -0.66773,-4.11895 0.97421,-4.74902 2.16698,-0.83154 5.35912,0.23054 5.35912,1.78308 0,2.70667 -4.48994,4.80934 -6.33333,2.96594 z m -447,-13 c -0.36667,-0.36666 -0.67356,-2.05416 -0.68198,-3.75 -0.0284,-5.7175 -0.74355,-6.03789 -14.69531,-6.58333 -11.95604,-0.46742 -12.78938,-0.63032 -12.78938,-2.5 0,-1.86667 0.83334,-2.03333 12.5,-2.5 6.875,-0.275 13.0625,-0.86406 13.75,-1.30902 0.6875,-0.44496 1.2569,-2.01996 1.26532,-3.5 0.0205,-3.59884 1.42514,-5.61968 3.38376,-4.86808 1.33302,0.51153 1.60092,2.44665 1.60092,11.56393 0,6.02228 -0.27314,11.6614 -0.60698,12.53138 -0.62379,1.62556 -2.54428,2.0972 -3.72635,0.91512 z m 419.8461,-0.31266 c -1.62929,-2.63625 1.71325,-4.84016 11.47603,-7.56674 5.66401,-1.58187 9.90722,-3.27794 9.71115,-3.88168 -0.19153,-0.58974 -4.52165,-2.46735 -9.62251,-4.17248 -8.80891,-2.94467 -11.45447,-4.64779 -10.71781,-6.89977 0.80659,-2.46577 12.06639,0.29295 26.31883,6.44827 10.06526,4.34697 7.79783,7.41574 -9.56007,12.93874 -13.33117,4.24175 -16.56503,4.81735 -17.60562,3.13366 z m 27.70909,-25.19881 c -2.54754,-2.54754 -0.2152,-5.52401 3.27814,-4.18349 1.2907,0.49529 2.24964,4.36163 1.08179,4.36163 -0.23002,0 -1.03018,0.23483 -1.77815,0.52186 -0.74796,0.28702 -1.90976,-0.028 -2.58178,-0.7 z m -56.7513,-128.8695 c -0.68158,-1.10281 0.18118,-2.46896 6.6009,-10.45236 5.13208,-6.38212 12.52807,-21.30047 11.21232,-22.61622 -0.61617,-0.61617 -2.65879,-0.50835 -5.68062,0.29987 -5.93565,1.58755 -8.47051,0.35792 -13.83124,-6.70934 -4.91789,-6.48345 -10.34617,-19.32027 -9.0623,-21.43054 3.31779,-5.45337 27.34409,-19.79627 31.14213,-18.59082 2.70793,0.85946 9.59049,14.5444 11.19163,22.25287 3.23592,15.57891 -2.89509,32.22592 -17.32505,47.04125 -8.56162,8.79027 -13.10918,12.04757 -14.24777,10.20529 z m 17.97404,-41.2882 c 1.55893,-1.13991 1.72346,-2.16348 1.1218,-6.97903 -0.96723,-7.74142 -5.91551,-17.48366 -9.31347,-18.3365 -3.96742,-0.99576 -6.63926,2.81614 -5.87617,8.3835 0.75283,5.4925 4.82241,13.49277 8.22495,16.16922 3.14201,2.4715 3.45097,2.51183 5.84289,0.76281 z m 31.22207,36.66917 c -0.36667,-0.36666 -0.67281,-10.37916 -0.68032,-22.25 -0.008,-11.87083 -0.28763,-22.60588 -0.62248,-23.85567 -0.52816,-1.97128 -1.05518,-2.1886 -3.97798,-1.64028 -2.91289,0.54647 -3.48942,0.31249 -4.25714,-1.72766 -0.60456,-1.60657 -0.44953,-3.15765 0.48571,-4.85972 2.24323,-4.08252 19.20157,-21.51719 20.07809,-20.64204 0.4441,0.4434 0.93761,15.38401 1.09669,33.20135 l 0.28924,32.39516 -5.28924,5.00322 c -5.46685,5.17122 -5.99967,5.49855 -7.12257,4.37564 z m -418.28995,-2.36783 c -3.16366,-1.20286 -12.10766,-10.51778 -14.38482,-14.98139 -1.09554,-2.14744 -1.9919,-4.97984 -1.9919,-6.29423 0,-2.46491 4.07604,-8.74217 7.85361,-12.09487 1.18051,-1.04774 2.14639,-2.28087 2.14639,-2.74028 0,-0.45942 -2.025,-3.79311 -4.5,-7.40822 -2.475,-3.61511 -4.5,-7.46683 -4.5,-8.55938 0,-6.92263 16.41631,-23.88713 23.11525,-23.88713 3.47985,0 8.6297,4.3609 12.72745,10.77763 5.56942,8.72125 5.42094,12.26529 -0.83081,19.83077 -4.37542,5.29487 -4.89821,7.41688 -2.34516,9.51916 0.9167,0.75484 2.9417,3.12746 4.5,5.27248 5.50013,7.571 2.77389,16.54508 -7.41401,24.40499 -6.67946,5.15316 -11.54336,7.23747 -14.376,6.16047 z m 10.18316,-14.41654 c 2.09301,-3.19434 1.2297,-5.73706 -3.80083,-11.19454 -4.61733,-5.00921 -5.90433,-5.30782 -8.14404,-1.8896 -2.45836,3.75193 -1.98699,5.83101 2.46998,10.89439 4.58367,5.20732 7.11447,5.79222 9.47489,2.18975 z m 0.81311,-34.66824 c 1.263,-3.59132 0.14923,-7.21635 -3.49103,-11.36238 -3.59046,-4.08931 -5.17259,-4.36919 -7.32525,-1.29583 -2.46418,3.51811 -1.8585,6.15306 2.57115,11.1854 4.5075,5.12079 6.81712,5.53335 8.24513,1.47281 z m -47.88012,44.86928 c -0.2444,-0.6875 -0.56777,-11.45091 -0.71861,-23.9187 -0.15084,-12.46778 -0.56994,-22.96346 -0.93133,-23.32373 -0.36138,-0.36028 -2.0898,0.0859 -3.84092,0.99139 -2.97458,1.53822 -3.30934,1.53288 -5.09293,-0.0812 -1.04999,-0.95023 -1.90908,-2.24385 -1.90908,-2.87472 0,-1.76566 23.84442,-23.75718 24.99071,-23.04873 0.66699,0.41222 0.79904,11.22129 0.38868,31.81504 l -0.62153,31.1907 -5.09477,5.25 c -5.30382,5.46542 -6.42661,6.09179 -7.17022,4 z"
       id="path3863"
       inkscape:connector-curvature="0" />
  </g>
  <g
     transform="translate(-118.1955,-169.34422)"
     style="display:none"
     id="g820"
     inkscape:groupmode="layer"
     inkscape:label="Logo Weiß">
    <path
       inkscape:connector-curvature="0"
       id="path818"
       d="m 352.07315,756.54565 c -50.241,-16.864 -80.15058,-33.22769 -114.5,-62.64353 -25.25107,-21.62428 -49.51294,-48.14823 -64.27649,-70.26937 -30.22921,-45.29429 -45.28022,-84.33376 -52.92927,-137.28853 -1.47677,-10.22373 -1.70032,-28.31204 -2.01439,-162.98657 -0.33258,-142.61619 -0.2521,-151.56056 1.37457,-152.75 1.38138,-1.01009 52.90698,-1.26343 256.96528,-1.26343 230.70071,0 255.38851,0.15107 256.80887,1.57143 1.41306,1.41306 1.56514,14.64014 1.50901,131.25 -0.0663,137.76935 -0.77581,178.12738 -3.4312,195.17857 -7.72966,49.63493 -30.78748,100.69278 -65.90538,145.93692 -18.88414,24.32937 -51.29246,54.21547 -79.101,72.94485 -28.45793,19.16675 -87.66561,44.80024 -107.69592,46.62609 -5.88266,0.53623 -7.67449,0.11465 -26.80408,-6.30643 z m 35.5,-10.8888 c 20.25591,-5.01336 60.85311,-23.14999 83.5,-37.30327 28.67369,-17.91977 53.70386,-39.76359 78.36878,-68.39245 11.15857,-12.95187 31.10999,-43.18037 38.68835,-58.61691 14.93015,-30.4116 24.84406,-58.64322 30.02446,-85.5 2.70704,-14.03414 5.06524,-39.75704 5.91316,-64.5 0.51832,-15.125 1.06904,-77.675 1.22382,-139 l 0.28143,-111.5 -26,-0.72476 c -14.3,-0.39861 -78.2,-1.18524 -142,-1.74805 -63.8,-0.56282 -156.5,-1.53529 -206,-2.16106 -49.5,-0.62576 -96.59308,-0.80708 -104.6513,-0.40292 l -14.65131,0.73484 -0.60754,4.15098 c -0.86495,5.90961 -2.54454,143.57206 -2.66163,218.15097 -0.0922,58.70633 0.0429,64.01219 1.98196,77.8516 3.7667,26.88382 10.18688,51.77764 19.76783,76.6484 8.94715,23.22553 27.6136,56.05094 44.45393,78.17331 15.40216,20.23312 41.04472,45.28491 63.91222,62.43976 17.83117,13.37668 24.33198,17.44795 45.02792,28.19976 19.47154,10.11571 34.38603,16.22602 52.92792,21.68404 6.875,2.02374 12.95,3.82928 13.5,4.01232 1.6427,0.54669 10.58415,-0.60862 17,-2.19656 z M 331.79582,729.3902 c -7.53689,-2.40882 -9.04003,-3.70917 -8.33907,-7.21397 0.94813,-4.74067 13.39658,-29.83269 14.7941,-29.82009 2.33778,0.0211 13.14879,6.54415 15.00964,9.0564 2.16448,2.92218 3.32106,10.40816 2.38168,15.41547 -1.20419,6.4189 -10.46044,14.63825 -16.2869,14.46243 -0.98017,-0.0296 -4.38192,-0.88468 -7.55945,-1.90024 z m 12.77425,-7.3429 c 3.67744,-3.67744 5.70165,-9.46022 4.83256,-13.80566 -0.73255,-3.66279 -4.84365,-8.13352 -7.09663,-7.71744 -1.06138,0.19601 -3.53116,4.00123 -6.37371,9.82002 -4.94,10.11238 -5.02071,12.18922 -0.54377,13.99302 3.87131,1.55979 5.81712,1.07449 9.18155,-2.28994 z m 72.9855,1.51365 c -4.75553,-4.04641 -20.48242,-21.50185 -20.48242,-22.73365 0,-1.57452 3.09836,-2.77387 5.10912,-1.97771 0.76499,0.30289 3.64088,3.22967 6.39088,6.50395 4.5629,5.4328 7.5,7.42167 7.5,5.07865 0,-0.50162 -0.6632,-4.37826 -1.47377,-8.61475 -1.52837,-7.98808 -0.93774,-11.47322 1.94438,-11.47322 0.77013,0 3.98421,2.925 7.14239,6.5 3.15819,3.575 6.33725,6.5 7.06458,6.5 1.61926,0 1.63584,0.61742 -0.2198,-8.18462 -0.84822,-4.02346 -1.3021,-8.27824 -1.00863,-9.45508 0.57446,-2.3036 3.41115,-3.92155 4.63402,-2.64308 1.08435,1.13365 5.13351,27.51108 4.74505,30.91057 -0.23356,2.04382 -0.94669,2.96038 -2.47257,3.17792 -1.60129,0.22828 -3.50066,-1.33751 -7.5,-6.1828 -4.75927,-5.76597 -7.84669,-8.07277 -7.86029,-5.87291 -0.003,0.4125 0.75734,4.4266 1.68865,8.92023 1.40331,6.77109 1.46876,8.44077 0.38219,9.75 -1.66324,2.00408 -3.04867,1.95359 -5.58378,-0.2035 z M 299.12968,710.91233 c -0.667,-0.80368 -1.44534,-6.303 -1.77409,-12.5347 -0.32215,-6.10655 -0.92191,-11.31059 -1.33281,-11.56454 -0.41089,-0.25394 -2.86524,2.93673 -5.4541,7.0904 -3.76711,6.04407 -5.13521,7.49107 -6.85128,7.24642 -1.2486,-0.178 -2.26271,-1.14109 -2.42785,-2.30569 -0.4249,-2.99644 13.89176,-25.92909 16.41777,-26.29826 3.62043,-0.5291 4.83296,2.43488 5.36583,13.11657 0.32618,6.53839 0.9186,10.16096 1.70408,10.42026 0.66225,0.21862 2.91225,-2.33772 5,-5.68075 3.66961,-5.87598 6.18092,-7.86496 8.28697,-6.56335 0.55492,0.34296 1.00895,1.2937 1.00895,2.11275 0,1.38229 -9.87775,19.05493 -13.49411,24.14278 -1.82095,2.56189 -4.69914,2.927 -6.44936,0.81811 z M 459.3444,698.82166 c -2.98685,-2.09208 -14.27125,-19.1511 -14.27125,-21.57436 0,-3.0779 2.87101,-3.48822 5.55161,-0.79343 1.30777,1.31469 4.53115,5.5256 7.16308,9.35758 2.63192,3.83197 5.97096,7.6302 7.42008,8.44051 2.36055,1.31995 2.90696,1.29494 5.25,-0.24028 4.29169,-2.81203 3.56859,-7.11022 -2.96461,-17.62199 -5.74711,-9.24696 -6.42419,-12.32658 -2.82378,-12.84355 1.64132,-0.23568 3.36422,1.65563 8.22926,9.03366 7.20694,10.9296 8.54263,16.26155 5.34694,21.34446 -3.57614,5.68803 -13.93907,8.3731 -18.90133,4.8974 z m -100.77125,-4.39305 c -39.28756,-15.1396 -65.73433,-31.44709 -93.69026,-57.7709 -43.62962,-41.08242 -70.23584,-86.98307 -83.13732,-143.42721 -4.017,-17.57442 -5.31374,-27.90059 -6.28046,-50.01241 l -0.68317,-15.62612 5.39561,-3.46468 c 14.74296,-9.4669 21.84902,-23.97212 20.61169,-42.07359 -0.61368,-8.97778 -4.86357,-19.17764 -11.06408,-26.55409 -2.0086,-2.38954 -3.65201,-5.0439 -3.65201,-5.89857 0,-0.85467 2.10048,-5.4246 4.66773,-10.15539 10.06699,-18.55092 33.51256,-59.67161 34.72423,-60.90208 1.04924,-1.06553 2.77681,-0.64288 9.55645,2.33795 5.42794,2.38653 8.61432,3.29997 9.25977,2.65452 0.64546,-0.64546 -2.87036,-9.02039 -10.21714,-24.33796 -15.28038,-31.85861 -14.86471,-30.72799 -12.11541,-32.95423 2.57251,-2.08309 24.07043,-10.62947 38.75537,-15.40698 13.28261,-4.32128 21.2125,-6.06869 22.27864,-4.90925 0.46356,0.50413 1.83359,3.94921 3.04452,7.65574 2.45132,7.50329 3.16108,8.25168 7.51722,7.92636 5.79536,-0.43279 31.03463,-5.33879 31.93733,-6.20796 0.5444,-0.52418 0.46638,-3.99854 -0.19462,-8.66625 -0.87123,-6.1523 -0.83547,-8.06329 0.16999,-9.08428 2.16381,-2.19722 18.88442,-3.36189 48.61592,-3.38631 27.62207,-0.0227 45.9456,1.13259 52.84748,3.33201 l 3.34748,1.06674 -0.6991,8.8328 -0.69909,8.8328 5.35162,1.49881 c 8.65348,2.42356 26.89135,5.81487 28.321,5.26626 0.72508,-0.27824 2.52805,-4.13834 4.00659,-8.57801 2.34798,-7.05034 2.98639,-8.07211 5.04349,-8.07211 5.68985,0 58.49534,19.89346 62.5531,23.56568 1.71831,1.55505 1.73055,1.89214 0.21027,5.79273 -0.88781,2.27787 -2.37741,5.26659 -3.31021,6.64159 -1.8197,2.68234 -19.97263,41.12638 -19.97263,42.29778 0,1.39611 3.64992,0.6347 11.3905,-2.37617 6.53746,-2.5429 8.1141,-2.84219 9.19449,-1.7454 1.87012,1.89851 34.41678,71.51104 34.40612,73.58967 -0.005,0.95377 -2.21909,4.31611 -4.92046,7.47188 -9.95923,11.63448 -13.31747,22.90768 -11.19623,37.58432 0.68983,4.77285 2.10175,10.5944 3.13759,12.93676 1.81715,4.10913 12.28648,15.27307 18.81866,20.06722 2.78257,2.0422 3.16692,2.89643 3.14957,7 -0.0382,9.04709 -2.94264,33.26186 -5.4454,45.39984 -11.42461,55.40739 -36.66156,102.82655 -75.50623,141.87298 -23.92563,24.04989 -44.13781,38.4299 -76.4183,54.36798 -15.68978,7.74662 -24.2792,11.33579 -33.4516,13.97804 -6.78771,1.9553 -13.08771,3.54113 -14,3.52406 -0.91229,-0.0171 -6.15871,-1.76513 -11.65871,-3.88457 z m 22.81839,-10.10101 c 40.72969,-12.58012 84.67262,-41.08644 114.37685,-74.19768 8.75554,-9.75977 25.18702,-31.62457 30.27486,-40.2857 10.41613,-17.73157 21.4049,-42.72723 26.86684,-61.11281 5.73283,-19.29745 10.16306,-45.64412 10.16306,-60.43993 0,-6.08614 -0.65998,-7.29054 -6.26044,-11.42469 -5.14004,-3.79427 -12.30017,-13.50093 -16.61255,-22.52087 -3.53961,-7.40359 -3.58516,-7.66251 -3.60595,-20.5 -0.0202,-12.4889 0.10708,-13.29666 3.22791,-20.48031 1.78693,-4.11323 4.86708,-10.10016 6.84478,-13.30428 2.77879,-4.502 3.443,-6.43819 2.92328,-8.5214 -0.97946,-3.92592 -22.55615,-50.02246 -24.58997,-52.53412 -2.04608,-2.5268 -0.97554,-2.77873 -26.92706,6.33679 -26.02047,9.13975 -52.89858,14.98212 -83.34572,18.11648 -7.05594,0.72636 -12.38711,1.76082 -13.18462,2.55834 -2.46537,2.46537 3.97759,21.89617 12.75924,38.47953 2.84705,5.37639 4.82323,10.12896 4.39153,10.56126 -0.94058,0.94189 -78.59802,1.7004 -83.32371,0.81385 -1.8132,-0.34016 -3.29672,-1.18103 -3.29672,-1.8686 0,-0.68758 2.40773,-5.60788 5.35051,-10.93401 8.84214,-16.00334 15.54617,-35.26287 13.10481,-37.64785 -0.52543,-0.51329 -6.58032,-1.65004 -13.45532,-2.52612 -27.58329,-3.51494 -55.41629,-10.3244 -83.79529,-20.50087 -6.21242,-2.22771 -11.90113,-4.05039 -12.6416,-4.05039 -1.63529,0 -3.03626,4.92685 -1.76301,6.2001 0.50095,0.50095 7.16335,3.72419 14.80535,7.16276 19.08427,8.58711 26.82825,12.82336 27.21405,14.88714 0.70046,3.74697 -6.29085,2.08463 -28.34923,-6.74068 -19.88329,-7.95508 -19.19898,-5.55305 1.89533,6.65282 21.91633,12.68154 22.96167,13.49143 20.28289,15.71462 -0.8822,0.73217 -6.61706,-1.37923 -20.17243,-7.42688 -18.53028,-8.26717 -23.03512,-9.72438 -22.25787,-7.19988 0.21166,0.6875 6.66166,5.37581 14.33333,10.41847 7.67166,5.04266 15.74559,10.45965 17.94206,12.03775 4.09064,2.93902 5.8052,6.29378 3.21664,6.29378 -0.79003,0 -10.15335,-4.29655 -20.80736,-9.54788 -12.72275,-6.27101 -19.5114,-9.12651 -19.78019,-8.32012 -0.47283,1.41847 0.74536,2.46194 18.69817,16.01636 13.42005,10.13217 15.55712,12.38198 13.16556,13.86004 -1.79506,1.10942 -2.33826,0.84247 -18.34368,-9.01479 -18.80393,-11.58076 -22.5747,-13.46636 -24.0117,-12.00716 -0.84596,0.85903 0.75929,2.82651 6.36898,7.80622 13.16507,11.68658 25,23.52385 25,25.00493 0,2.54735 -3.23772,0.77494 -21.30196,-11.66126 -9.69577,-6.67499 -18.09428,-12.13634 -18.66335,-12.13634 -1.61412,0 -1.24658,2.10005 1.58569,9.06039 2.14166,5.26316 2.71215,8.58338 3.1227,18.17408 0.45658,10.66593 0.26382,12.49945 -2.11692,20.13529 -3.0479,9.77568 -8.18284,17.34983 -17.4411,25.72602 l -6.18506,5.59579 v 10.56247 c 0,21.08169 4.32916,46.29859 12.09784,70.46874 8.47885,26.37966 22.48682,53.02232 41.48725,78.90725 6.60067,8.99233 33.25283,36.49999 44.41491,45.84057 8.62956,7.22134 26.21912,18.88698 40.84349,27.08796 12.85524,7.20889 40.43668,18.43529 45.30117,18.4388 2.00457,10e-4 6.58274,-0.90484 10.17373,-2.01398 z m -15.66294,-9.16651 c -9.95662,-3.48649 -42.61802,-20.24469 -53.65545,-27.53002 -30.54709,-20.16281 -59.63189,-50.25489 -79.2925,-82.03862 -20.9843,-33.92364 -35.40912,-81.35563 -36.02102,-118.44512 l -0.18648,-11.30311 27.5,0.26769 c 23.05061,0.22439 27.68159,0.5102 28.62231,1.76651 0.61728,0.82435 1.42225,5.20389 1.78883,9.73231 3.69141,45.6002 18.92612,82.5941 47.89513,116.30202 12.95456,15.07373 30.08808,29.92997 37.49623,32.51246 5.20111,1.81312 9.9949,-0.36873 12.31022,-5.60291 4.03085,-9.11239 3.16489,-19.07652 -2.65624,-30.56396 -4.34003,-8.56464 -5.22743,-8.29453 25.17241,-7.662 17.29095,0.35978 26.96073,0.9375 27.67679,1.65356 0.80079,0.80079 0.15995,2.93427 -2.35254,7.83206 -3.30052,6.43395 -3.45314,7.20258 -3.45314,17.39034 0,9.25177 0.26402,10.9521 2,12.88016 4.94565,5.49285 10.29306,4.43607 21.13027,-4.17586 36.50124,-29.00619 59.20845,-63.98935 69.94922,-107.76506 1.95778,-7.97926 4.1017,-20.17642 4.79474,-27.27818 0.82578,-8.46193 1.74364,-13.31659 2.68966,-14.22595 1.20257,-1.15597 5.9081,-1.21729 28.93611,-0.3771 15.125,0.55185 27.8928,1.37603 28.37289,1.83152 1.24967,1.18564 -1.92521,30.26737 -4.82501,44.19684 -6.41217,30.80147 -19.48341,61.77851 -37.43283,88.71063 -3.08828,4.63379 -6.69031,10.03379 -8.00453,12 -10.3979,15.55642 -39.08919,43.32529 -59.15925,57.2573 -20.18574,14.01231 -56.50282,31.6099 -70.45127,34.13745 -1.77877,0.32232 -5.37917,-0.28949 -8.84455,-1.50296 z M 326.28624,533.40898 c -19.11789,-0.46365 -23.47339,-0.8333 -24.32857,-2.06476 -1.14947,-1.65523 -0.39079,-139.37183 0.77822,-141.26332 0.82555,-1.33576 96.55705,-0.18483 106.83726,1.28446 13.73324,1.96281 24.02178,9.41363 30.90061,22.3778 2.37162,4.46967 2.59939,5.9234 2.59939,16.59039 V 442.025 l -5,8.31922 c -2.75,4.57557 -5,8.4878 -5,8.69384 0,0.20603 2.91981,3.10595 6.48848,6.44426 9.3533,8.74955 12.79954,16.12852 13.34373,28.57113 0.40026,9.15154 0.31292,9.61215 -3.14782,16.60173 -6.59646,13.32274 -16.93771,20.63992 -32.00675,22.64711 -8.00405,1.06613 -49.88897,1.11499 -91.46455,0.10669 z m 78.9411,-33.19125 c 11.90955,-2.55414 14.64569,-12.76194 5.37147,-20.03952 l -2.97433,-2.33399 h -37.02567 -37.02566 l -0.25394,9.5 c -0.13967,5.225 0.18078,10.175 0.71211,11 0.79996,1.24212 5.22767,1.59187 25.75394,2.03437 13.63334,0.2939 28.25324,0.6314 32.48867,0.75 4.23543,0.11859 10.06446,-0.29129 12.95341,-0.91086 z m 1.92794,-57.80283 c 4.85299,-5.81309 4.42101,-11.89289 -1.26159,-17.75584 l -3.21287,-3.31484 h -34.28478 -34.28479 l -0.56222,2.25 c -0.30923,1.2375 -0.4303,6.525 -0.26905,11.75 l 0.29317,9.5 17,0.6 c 9.35,0.33001 25.29382,0.51668 35.43071,0.41483 l 18.43072,-0.18518 z M 210.77471,338.43696 c 7.81724,-9.31209 12.2698,-16.93001 15.48568,-26.49454 2.55917,-7.6114 2.73702,-9.5982 0.85917,-9.5982 -0.91804,0 -24.04641,40.4016 -24.04641,42.00527 0,2.30974 2.24787,0.58404 7.70156,-5.91253 z m 203.32467,-27.11038 c 22.54087,-2.70698 52.05193,-8.71685 52.72546,-10.73743 0.6348,-1.9044 -7.45387,-4.93729 -25.96807,-9.73688 -20.28732,-5.25924 -38.08388,-7.63636 -40.3329,-5.38734 -2.06718,2.06717 -3.29776,23.15374 -1.47911,25.34509 1.49854,1.80563 3.69355,1.88094 15.05462,0.51656 z m -59.72225,-2.3766 c 1.09675,-1.50843 -0.21475,-21.79332 -1.50993,-23.35391 -0.59494,-0.71686 -3.32414,-1.25185 -6.38622,-1.25185 -16.07304,0 -59.90783,10.23778 -59.90783,13.9917 0,2.51374 36.88235,10.62212 56,12.31128 5.29522,0.46787 10.80588,-0.32448 11.80398,-1.69722 z m 147.81765,-33.23374 c 4.41089,-9.07671 8.10047,-17.71111 8.19908,-19.18756 0.15853,-2.37365 -0.57329,-3.04656 -6.32071,-5.81192 -10.72364,-5.15966 -38.52714,-14.14266 -55.07785,-17.79503 -28.48492,-6.28599 -45.72675,-8.06816 -76.42215,-7.89921 -29.76284,0.16382 -43.54405,1.48311 -66.98049,6.41213 -29.47297,6.19858 -59.21377,16.06449 -60.78726,20.16495 -0.88884,2.31627 13.30393,34.91715 16.95988,38.95692 2.0761,2.29407 4.30787,2.29691 4.30787,0.005 0,-0.98022 -2.7,-8.42904 -6,-16.55293 -6.12591,-15.08067 -6.95539,-18.64825 -4.75,-20.42964 3.0261,-2.44431 39.03375,-12.77841 54.75,-15.71312 34.06402,-6.36078 86.69539,-7.0224 118.5,-1.48963 24.04581,4.18304 63.61157,15.5345 70.98478,20.36561 1.46861,0.96227 2.50159,2.57469 2.48245,3.87498 -0.018,1.22482 -2.90452,8.70298 -6.41444,16.61812 -3.50992,7.91515 -6.15019,14.9944 -5.86727,15.73169 1.27288,3.31708 4.85714,-1.65486 12.43611,-17.25084 z m -21.15681,14.69372 c 1.79299,-3.35024 1.19474,-5.93369 -1.71482,-7.40514 -15.14233,-7.65793 -70.44603,-20.19321 -74.84603,-16.96479 -1.46563,1.07538 -2.49761,5.53464 -1.61234,6.96704 0.38962,0.63043 10.41788,2.97568 22.285,5.21167 14.45153,2.72294 26.50463,5.69354 36.49998,8.99574 8.20787,2.71167 15.69506,4.97518 16.63821,5.03002 0.94315,0.0549 2.18065,-0.7707 2.75,-1.83454 z m -197.84055,-2.61531 c 12.73211,-4.5088 28.24275,-8.03849 52.60159,-11.97029 7.95389,-1.28386 14.71174,-2.5844 15.01744,-2.89011 0.30571,-0.3057 0.12622,-2.02602 -0.39887,-3.82293 l -0.95469,-3.2671 -8.94487,0.18957 c -10.40751,0.22056 -30.70979,3.99357 -47.51159,8.82963 -17.20637,4.95252 -18.93328,5.79437 -18.93328,9.22977 0,2.96691 1.55476,5.25103 3.57427,5.25103 0.64585,0 3.14335,-0.69731 5.55,-1.54957 z m 235.87573,-49.49822 c 0,-1.44388 -1.53855,-2.65785 -5.70219,-4.49921 -7.02122,-3.10511 -8.79781,-2.89271 -8.79781,1.05185 0,2.67433 0.55642,3.19927 5.46543,5.1562 5.99316,2.38911 9.03457,1.81385 9.03457,-1.70884 z m -268.14722,-4.40699 c 0.8448,-0.82571 1.08753,-2.15792 0.64642,-3.54775 -0.58991,-1.85865 -1.23689,-2.13944 -3.92455,-1.7033 -4.7671,0.7736 -11.00318,3.97694 -11.3612,5.83601 -0.17234,0.89489 0.40247,2.34289 1.27737,3.21778 1.45429,1.45429 2.03748,1.41613 6.79995,-0.44491 2.86508,-1.11959 5.81798,-2.63062 6.56201,-3.35783 z m 240.57579,-3.11665 c 0.86429,-0.86428 1.57143,-2.20273 1.57143,-2.97432 0,-2.20481 -5.90303,-4.69645 -11.44602,-4.8313 -4.4283,-0.10773 -5.05398,0.12465 -5.05398,1.87705 0,1.42813 1.57263,2.77714 5.5,4.7179 6.45066,3.18769 7.33766,3.30159 9.42857,1.21067 z m -220.10787,-3.02218 c 5.35316,-1.824 6.07084,-2.59739 5.13793,-5.53675 -0.59575,-1.87703 -1.1808,-2.0425 -5.24959,-1.48481 -7.44835,1.02091 -11.05972,4.36449 -8.00904,7.41517 1.56272,1.56271 2.51462,1.51658 8.1207,-0.39361 z m 145.09751,-13.01338 c 2.61574,-1.00375 1.95754,-5.29965 -0.98331,-6.41776 -3.36761,-1.28037 -7.15224,-1.24162 -7.97003,0.0816 -1.22218,1.97754 0.48279,5.79378 2.78678,6.23765 3.73147,0.71888 4.51723,0.73143 6.16656,0.0985 z m -68.98964,-1.96444 c 0.86429,-0.86428 1.57143,-2.19845 1.57143,-2.96482 0,-1.5053 -2.87338,-3.36732 -4.5,-2.91609 -0.55,0.15257 -2.18786,0.53788 -3.6397,0.85624 -3.05257,0.66937 -4.40554,3.23419 -2.75511,5.22285 1.54583,1.86261 7.38675,1.73845 9.32338,-0.19818 z m 20.98964,-0.0356 c 0.91863,-0.35251 1.58179,-1.77501 1.58179,-3.39301 0,-3.97975 -4.67472,-5.42077 -8.50332,-2.62123 -1.7974,1.31429 -1.80526,1.50134 -0.16807,4 1.68637,2.57372 3.95325,3.21777 7.0896,2.01424 z m 27.11692,-0.44985 c 1.26999,-2.05488 -0.52569,-5.90269 -3.05036,-6.53634 -3.91134,-0.98168 -7.38095,0.33133 -8.06368,3.05157 -0.91262,3.63616 0.19963,4.54161 5.57891,4.54161 2.68508,0 5.17589,-0.47558 5.53513,-1.05684 z M 256.57315,683.92686 c -4.45091,-1.9867 -8.49747,-6.79219 -9.16061,-10.87867 -0.68962,-4.2496 1.58583,-8.53831 9.9237,-18.70397 5.4175,-6.60511 8.12963,-7.90984 10.06483,-4.84192 0.83972,1.33124 -0.0408,3.00676 -4.46713,8.5 -7.77072,9.64384 -9.05001,11.84316 -8.68345,14.92839 0.40336,3.39496 4.81485,6.86817 7.60058,5.98401 1.11005,-0.35231 5.47208,-4.70145 9.6934,-9.66475 7.55352,-8.88119 10.56796,-10.65581 11.33499,-6.67296 0.43162,2.2412 -4.83914,9.82952 -11.81995,17.01723 -6.04203,6.22111 -8.565,6.97569 -14.48636,4.33264 z m 200.12418,-6.61743 c -2.79319,-3.31952 -3.37795,-6.38132 -1.4467,-7.5749 1.58925,-0.98221 6.97331,5.56222 6.60734,8.03136 -0.45491,3.06928 -2.33376,2.90309 -5.16064,-0.45646 z m 38.16378,-3.71521 c -5.85987,-6.07377 -16.78796,-19.59138 -16.78796,-20.76603 0,-1.45157 2.10668,-3.48397 3.61131,-3.48397 0.66622,0 4.86794,4.275 9.33715,9.5 4.46922,5.225 8.6001,9.5 9.17975,9.5 0.57964,0 3.68363,-1.84466 6.89776,-4.09924 5.52114,-3.87286 7.97403,-4.34964 7.97403,-1.54995 0,1.809 -13.91355,14.64919 -15.87378,14.64919 -0.39618,0 -2.34839,-1.6875 -4.33826,-3.75 z m -271.02309,-15 c -5.1115,-3.91395 -8.76487,-8.65576 -8.76487,-11.37616 0,-3.02755 20.78116,-23.87384 23.79925,-23.87384 2.27672,0 10.44712,8.62108 12.91202,13.62425 2.07772,4.21728 0.68903,8.14864 -4.01829,11.37575 -2.00569,1.375 -4.95367,4.56884 -6.55106,7.09743 -3.22354,5.10268 -4.58487,5.90257 -10.04557,5.90257 -2.54277,0 -4.88979,-0.88035 -7.33148,-2.75 z m 10.01262,-4.8067 c 3.00052,-2.10164 2.79566,-4.61823 -0.6787,-8.33754 -3.49871,-3.74539 -5.03099,-3.87128 -8.04678,-0.66112 -2.86663,3.05139 -2.23972,6.37218 1.65728,8.77875 3.46865,2.14205 4.28759,2.16753 7.0682,0.21991 z m 11.24485,-11.2603 c 1.98214,-1.60505 2.09673,-2.10082 0.98228,-4.25 -3.20617,-6.18302 -7.13991,-7.65097 -10.51341,-3.92328 -1.60598,1.77458 -1.65792,2.31027 -0.44391,4.57865 1.19577,2.23434 5.17965,5.25182 7.09192,5.37159 0.35156,0.022 1.64897,-0.77761 2.88312,-1.77696 z m 265.20649,3.50153 c -5.62586,-5.71702 -10.22883,-11.05577 -10.22883,-11.86387 0,-1.97995 13.52987,-15.82066 15.46537,-15.82066 2.72829,0 1.63805,3.75886 -2.46537,8.5 -4.13189,4.77402 -4.87101,7.22899 -2.8,9.3 1.95141,1.95141 3.8283,1.40715 7.93168,-2.3 4.20089,-3.79525 6.32094,-4.36883 7.24523,-1.96018 0.36823,0.9596 -0.91028,3.16838 -3.39302,5.86183 -2.19114,2.3771 -3.98389,4.65015 -3.98389,5.05122 0,0.40106 1.59294,2.59019 3.53986,4.86473 3.85033,4.49825 4.23836,7.99928 0.93897,8.47196 -1.43829,0.20606 -4.97103,-2.7081 -12.25,-10.10503 z m 31.6527,-21.35452 c -12.62971,-8.67532 -19.88153,-14.51429 -19.88153,-16.00805 0,-0.87963 2.51561,-4.67414 5.59024,-8.43226 4.344,-5.30967 6.35135,-6.97572 9.00441,-7.47343 4.33392,-0.81305 8.04273,1.47161 10.0023,6.16151 1.15149,2.75591 1.98217,3.42222 4.26643,3.42222 2.78159,0 11.13662,5.16445 11.13662,6.88383 0,0.4792 -0.59373,1.36403 -1.31939,1.96628 -0.97573,0.80978 -2.71487,0.56476 -6.67693,-0.94071 -5.28526,-2.00824 -5.39226,-2.00991 -7.93061,-0.12366 -3.99847,2.97127 -3.86676,6.49571 0.36905,9.87547 3.74936,2.99162 4.46169,5.3438 2.18941,7.22963 -1.06421,0.88321 -2.56501,0.31384 -6.75,-2.56083 z M 539.6209,608.6982 c 2.98123,-3.2168 3.1359,-6.42531 0.42787,-8.87604 -1.96458,-1.77793 -2.10193,-1.77413 -4.65022,0.12844 -1.44421,1.07826 -3.27439,2.93724 -4.06706,4.13106 -1.31338,1.97805 -1.21538,2.39643 1.10477,4.71658 3.19874,3.19874 4.13957,3.18564 7.18464,-0.10004 z m -339.35425,17.43952 c -1.84802,-1.84803 -1.44629,-3.43599 1.8065,-7.14072 3.3316,-3.79448 3.78685,-7.08439 1.4433,-10.43027 -2.02184,-2.88658 -3.99626,-2.80431 -8.55746,0.35661 -3.11353,2.15768 -4.07174,2.39176 -5.86408,1.43252 -1.17833,-0.63062 -2.00025,-1.88482 -1.82648,-2.78711 0.36502,-1.89537 22.32907,-17.86951 25.27464,-18.38187 1.48578,-0.25845 3.14235,1.37766 6.74063,6.65734 6.39017,9.37619 6.95435,12.48894 2.98336,16.45994 -2.29313,2.29313 -3.98032,3.0534 -6.86699,3.09436 -3.42666,0.0486 -4.14068,0.5371 -6.82692,4.6705 -3.67787,5.65929 -6.58903,7.78617 -8.3065,6.0687 z m 15.87224,-16.82868 c 2.47738,-1.32585 2.45682,-4.59549 -0.0548,-8.71482 -2.2158,-3.63418 -3.54433,-3.96557 -6.78845,-1.6933 -2.91982,2.04513 -2.80821,4.59378 0.36639,8.36657 2.82469,3.35697 3.57629,3.59388 6.47684,2.04155 z m 349.26046,-14.67388 c -1.16075,-1.53502 -5.759,-6.81455 -10.21833,-11.7323 -4.45933,-4.91776 -8.10787,-9.7054 -8.10787,-10.63922 0,-0.93382 0.7875,-2.62597 1.75,-3.76033 l 1.75,-2.06247 13.5,2.42614 c 7.425,1.33438 13.97649,2.43764 14.55887,2.45169 0.58238,0.014 1.91539,0.65185 2.96225,1.41734 1.61719,1.18252 1.7027,1.6336 0.56869,3 -0.74632,0.89926 -2.83012,1.60821 -4.72695,1.60821 -2.749,0 -3.77265,0.61628 -5.39829,3.25 -3.03394,4.91532 -3.44379,7.56299 -1.50273,9.70783 2.2347,2.46932 1.65537,6.45378 -0.99351,6.83311 -1.27733,0.18292 -2.81527,-0.74532 -4.14213,-2.5 z m 0.4738,-13.49094 c 1.79938,-1.79938 1.46065,-5.59184 -0.55,-6.15796 -8.97071,-2.52579 -10.75581,-1.42665 -6.16842,3.79809 3.31967,3.7809 4.78329,4.295 6.71842,2.35987 z m -395.19876,0.29115 c -2.53068,-4.89986 -4.60124,-9.84825 -4.60124,-10.99642 0,-1.67378 2.29814,-3.20082 11.59412,-7.70394 6.37676,-3.089 12.99098,-5.67811 14.69826,-5.75358 2.90546,-0.12843 3.41762,0.42476 8.00147,8.64252 4.93958,8.8555 5.38623,11.72027 1.82734,11.72027 -1.34997,0 -2.98437,-1.90442 -5.36384,-6.25 -2.71384,-4.95622 -3.97564,-6.31561 -6.09549,-6.56697 -4.00475,-0.47485 -4.35365,2.13895 -1.17366,8.79227 1.52386,3.18828 2.46085,6.29813 2.08221,6.91078 -1.5501,2.50812 -4.22729,0.90636 -7.42734,-4.44376 -2.81365,-4.70412 -3.71715,-5.51043 -5.88277,-5.25 -4.48545,0.5394 -4.89476,2.84435 -1.79869,10.1291 1.53626,3.61469 2.525,7.27111 2.19718,8.12537 -1.28364,3.34512 -3.64344,1.19089 -8.05755,-7.35564 z m 408.89876,-30.10465 c -11.29804,-4.83163 -13.92776,-4.99377 -16,-0.9865 -1.74937,3.3829 -5.5,4.18241 -5.5,1.17241 0,-1.95652 3.9871,-12.26007 7.12881,-18.42241 2.95389,-5.79394 7.11548,-4.15294 4.81472,1.89854 -1.41969,3.73404 0.45037,5.40089 10.93488,9.74666 11.26897,4.67092 12.97935,5.90326 11.51441,8.29623 -1.64788,2.69179 -3.04326,2.50726 -12.89282,-1.70493 z M 155.7082,548.83554 c -0.89191,-2.32426 0.67718,-5.40966 6.35246,-12.49132 6.81462,-8.50333 7.60853,-10.00128 5.29768,-9.99564 -0.98185,0.002 -4.88451,1.08955 -8.67258,2.41589 -7.62529,2.6699 -9.61261,2.47965 -9.61261,-0.92025 0,-2.56727 -0.55719,-2.28016 14.73928,-7.59492 13.49559,-4.68903 15.97605,-4.88748 16.86411,-1.34918 0.48613,1.93691 -0.0737,3.45055 -2.31165,6.25 -7.36375,9.21136 -10.26563,13.42732 -9.78142,14.21079 0.44441,0.71908 10.45119,-1.52708 15.57947,-3.49702 1.87998,-0.72216 4.35635,1.87532 3.61923,3.79624 -0.56112,1.46225 -25.90761,10.68409 -29.36555,10.68409 -1.17122,0 -2.39001,-0.67891 -2.70842,-1.50868 z m 427.86495,-25.328 c -10.9651,-3.10351 -13.04669,-4.00495 -13.29826,-5.75889 -0.44374,-3.09374 1.96855,-4.67038 5.24172,-3.42593 4.22127,1.60493 8.52486,1.26762 9.29073,-0.72818 0.36927,-0.96233 0.69265,-3.72885 0.71861,-6.14784 0.0472,-4.39767 0.0466,-4.39834 -4.9528,-6.08606 -5.25983,-1.77561 -6.63502,-3.82955 -4.01815,-6.00136 1.30634,-1.08417 3.68863,-0.75586 14.29289,1.96971 16.88135,4.33895 17.22526,4.48684 17.22526,7.40715 0,3.16605 -1.29511,3.50937 -7.6584,2.03018 -6.48196,-1.50678 -8.06772,-0.58725 -9.42802,5.46703 -0.99166,4.41353 -0.0621,7.10398 2.45886,7.11645 2.92192,0.0145 8.48805,2.18849 8.99668,3.51395 0.97339,2.53662 -0.45406,4.48431 -3.22611,4.40185 -1.45365,-0.0432 -8.49301,-1.73436 -15.64301,-3.75806 z M 144.14641,508.93248 c -1.70128,-2.04991 -0.75878,-3.20719 4.98053,-6.11552 4.91747,-2.49187 6.54911,-5.07501 5.77558,-9.14365 -0.28597,-1.50414 -1.58971,-1.91792 -7.33856,-2.32909 -6.23981,-0.44629 -7.02418,-0.73444 -7.30149,-2.68234 -0.18828,-1.32256 0.40267,-2.55696 1.5,-3.13324 2.7781,-1.45895 27.13742,-5.37419 29.25496,-4.70211 2.48172,0.78767 2.81948,1.89199 3.6286,11.86386 0.66686,8.21872 0.60765,8.56421 -1.89681,11.06867 -2.75949,2.75949 -7.26923,3.40844 -10.74802,1.54665 -1.51391,-0.81022 -2.87338,-0.50203 -6.18426,1.40196 -5.76736,3.31663 -10.0818,4.13911 -11.67053,2.22481 z m 23.99999,-10.17651 c 1.61925,-1.95108 1.56045,-7.94326 -0.0975,-9.94103 -1.63066,-1.96481 -4.28686,-1.85686 -6.87186,0.27928 -1.87256,1.54741 -1.99659,2.18092 -1.07142,5.47234 1.48732,5.29129 5.42406,7.3424 8.04082,4.18941 z m 428.04735,-28.12209 c -3.70894,-1.82715 -6.1206,-6.30181 -6.1206,-11.35633 0,-3.90922 4.69095,-8.59712 9.50675,-9.50057 5.15946,-0.96792 5.68514,-0.15112 4.91736,7.64061 -0.5781,5.8668 -0.43518,6.98515 0.96114,7.52097 3.22609,1.23797 4.77317,-1.47821 4.06597,-7.1385 -0.75197,-6.01854 0.44944,-7.55518 3.51231,-4.49231 1.45392,1.45392 2.03647,3.34254 2.03647,6.60221 0,5.9086 -1.19062,7.9807 -5.9936,10.43099 -4.75077,2.42367 -8.39254,2.50645 -12.8858,0.29293 z m 3.46819,-8.78742 c 0.78877,-3.1427 -0.0784,-5.50224 -2.02222,-5.50224 -2.31036,0 -3.85062,3.60073 -2.56657,6 1.47776,2.76123 3.83502,2.50553 4.58879,-0.49776 z m -459.36552,5.88363 c -2.19005,-0.97837 -5.22327,-8.12053 -5.22327,-12.29898 0,-9.218 3.42588,-11.47394 19.9299,-13.12388 10.03946,-1.00366 11.51163,-0.95005 12.93265,0.47096 1.22751,1.22752 1.34844,2.00954 0.51567,3.33479 -0.80735,1.28481 -3.03514,1.89174 -8.63936,2.35365 -13.33343,1.09896 -16.60268,1.84509 -18.22345,4.15906 -2.05491,2.93379 -1.9045,5.32944 0.48459,7.71853 1.79317,1.79317 3.33334,2 14.89302,2 10.24434,0 13.00549,0.29313 13.44055,1.42689 1.17698,3.06715 -2.31519,4.01787 -15.70706,4.27616 -7.21958,0.13925 -13.70104,-0.003 -14.40324,-0.31718 z m 470.4434,-23.05254 c -1.2552,-1.25519 -0.66773,-4.11895 0.97421,-4.74902 2.16698,-0.83154 5.35912,0.23054 5.35912,1.78308 0,2.70667 -4.48994,4.80934 -6.33333,2.96594 z m -447,-13 c -0.36667,-0.36666 -0.67356,-2.05416 -0.68198,-3.75 -0.0284,-5.7175 -0.74355,-6.03789 -14.69531,-6.58333 -11.95604,-0.46742 -12.78938,-0.63032 -12.78938,-2.5 0,-1.86667 0.83334,-2.03333 12.5,-2.5 6.875,-0.275 13.0625,-0.86406 13.75,-1.30902 0.6875,-0.44496 1.2569,-2.01996 1.26532,-3.5 0.0205,-3.59884 1.42514,-5.61968 3.38376,-4.86808 1.33302,0.51153 1.60092,2.44665 1.60092,11.56393 0,6.02228 -0.27314,11.6614 -0.60698,12.53138 -0.62379,1.62556 -2.54428,2.0972 -3.72635,0.91512 z m 419.8461,-0.31266 c -1.62929,-2.63625 1.71325,-4.84016 11.47603,-7.56674 5.66401,-1.58187 9.90722,-3.27794 9.71115,-3.88168 -0.19153,-0.58974 -4.52165,-2.46735 -9.62251,-4.17248 -8.80891,-2.94467 -11.45447,-4.64779 -10.71781,-6.89977 0.80659,-2.46577 12.06639,0.29295 26.31883,6.44827 10.06526,4.34697 7.79783,7.41574 -9.56007,12.93874 -13.33117,4.24175 -16.56503,4.81735 -17.60562,3.13366 z m 27.70909,-25.19881 c -2.54754,-2.54754 -0.2152,-5.52401 3.27814,-4.18349 1.2907,0.49529 2.24964,4.36163 1.08179,4.36163 -0.23002,0 -1.03018,0.23483 -1.77815,0.52186 -0.74796,0.28702 -1.90976,-0.028 -2.58178,-0.7 z m -56.7513,-128.8695 c -0.68158,-1.10281 0.18118,-2.46896 6.6009,-10.45236 5.13208,-6.38212 12.52807,-21.30047 11.21232,-22.61622 -0.61617,-0.61617 -2.65879,-0.50835 -5.68062,0.29987 -5.93565,1.58755 -8.47051,0.35792 -13.83124,-6.70934 -4.91789,-6.48345 -10.34617,-19.32027 -9.0623,-21.43054 3.31779,-5.45337 27.34409,-19.79627 31.14213,-18.59082 2.70793,0.85946 9.59049,14.5444 11.19163,22.25287 3.23592,15.57891 -2.89509,32.22592 -17.32505,47.04125 -8.56162,8.79027 -13.10918,12.04757 -14.24777,10.20529 z m 17.97404,-41.2882 c 1.55893,-1.13991 1.72346,-2.16348 1.1218,-6.97903 -0.96723,-7.74142 -5.91551,-17.48366 -9.31347,-18.3365 -3.96742,-0.99576 -6.63926,2.81614 -5.87617,8.3835 0.75283,5.4925 4.82241,13.49277 8.22495,16.16922 3.14201,2.4715 3.45097,2.51183 5.84289,0.76281 z m 31.22207,36.66917 c -0.36667,-0.36666 -0.67281,-10.37916 -0.68032,-22.25 -0.008,-11.87083 -0.28763,-22.60588 -0.62248,-23.85567 -0.52816,-1.97128 -1.05518,-2.1886 -3.97798,-1.64028 -2.91289,0.54647 -3.48942,0.31249 -4.25714,-1.72766 -0.60456,-1.60657 -0.44953,-3.15765 0.48571,-4.85972 2.24323,-4.08252 19.20157,-21.51719 20.07809,-20.64204 0.4441,0.4434 0.93761,15.38401 1.09669,33.20135 l 0.28924,32.39516 -5.28924,5.00322 c -5.46685,5.17122 -5.99967,5.49855 -7.12257,4.37564 z m -418.28995,-2.36783 c -3.16366,-1.20286 -12.10766,-10.51778 -14.38482,-14.98139 -1.09554,-2.14744 -1.9919,-4.97984 -1.9919,-6.29423 0,-2.46491 4.07604,-8.74217 7.85361,-12.09487 1.18051,-1.04774 2.14639,-2.28087 2.14639,-2.74028 0,-0.45942 -2.025,-3.79311 -4.5,-7.40822 -2.475,-3.61511 -4.5,-7.46683 -4.5,-8.55938 0,-6.92263 16.41631,-23.88713 23.11525,-23.88713 3.47985,0 8.6297,4.3609 12.72745,10.77763 5.56942,8.72125 5.42094,12.26529 -0.83081,19.83077 -4.37542,5.29487 -4.89821,7.41688 -2.34516,9.51916 0.9167,0.75484 2.9417,3.12746 4.5,5.27248 5.50013,7.571 2.77389,16.54508 -7.41401,24.40499 -6.67946,5.15316 -11.54336,7.23747 -14.376,6.16047 z m 10.18316,-14.41654 c 2.09301,-3.19434 1.2297,-5.73706 -3.80083,-11.19454 -4.61733,-5.00921 -5.90433,-5.30782 -8.14404,-1.8896 -2.45836,3.75193 -1.98699,5.83101 2.46998,10.89439 4.58367,5.20732 7.11447,5.79222 9.47489,2.18975 z m 0.81311,-34.66824 c 1.263,-3.59132 0.14923,-7.21635 -3.49103,-11.36238 -3.59046,-4.08931 -5.17259,-4.36919 -7.32525,-1.29583 -2.46418,3.51811 -1.8585,6.15306 2.57115,11.1854 4.5075,5.12079 6.81712,5.53335 8.24513,1.47281 z m -47.88012,44.86928 c -0.2444,-0.6875 -0.56777,-11.45091 -0.71861,-23.9187 -0.15084,-12.46778 -0.56994,-22.96346 -0.93133,-23.32373 -0.36138,-0.36028 -2.0898,0.0859 -3.84092,0.99139 -2.97458,1.53822 -3.30934,1.53288 -5.09293,-0.0812 -1.04999,-0.95023 -1.90908,-2.24385 -1.90908,-2.87472 0,-1.76566 23.84442,-23.75718 24.99071,-23.04873 0.66699,0.41222 0.79904,11.22129 0.38868,31.81504 l -0.62153,31.1907 -5.09477,5.25 c -5.30382,5.46542 -6.42661,6.09179 -7.17022,4 z"
       style="fill:#ffffff;fill-opacity:0.98392286;stroke:#fbffff;stroke-opacity:1" />
  </g>
</svg>
