<?xml version="1.0" encoding="UTF-8" standalone="no"?>
<!-- Created with Inkscape (http://www.inkscape.org/) -->

<svg
   xmlns:dc="http://purl.org/dc/elements/1.1/"
   xmlns:cc="http://creativecommons.org/ns#"
   xmlns:rdf="http://www.w3.org/1999/02/22-rdf-syntax-ns#"
   xmlns:svg="http://www.w3.org/2000/svg"
   xmlns="http://www.w3.org/2000/svg"
   xmlns:sodipodi="http://sodipodi.sourceforge.net/DTD/sodipodi-0.dtd"
   xmlns:inkscape="http://www.inkscape.org/namespaces/inkscape"
   width="719.22357"
   height="795.50305"
   id="svg3822"
   version="1.1"
   inkscape:version="0.92.3 (2405546, 2018-03-11)"
   sodipodi:docname="logo_kontur.svg">
  <defs
     id="defs3824" />
  <sodipodi:namedview
     id="base"
     pagecolor="#ffffff"
     bordercolor="#666666"
     borderopacity="1.0"
     inkscape:pageopacity="0.0"
     inkscape:pageshadow="2"
     inkscape:zoom="0.63418639"
     inkscape:cx="353.18646"
     inkscape:cy="388.20964"
     inkscape:document-units="px"
     inkscape:current-layer="layer1"
     showgrid="false"
     inkscape:window-width="1502"
     inkscape:window-height="858"
     inkscape:window-x="912"
     inkscape:window-y="179"
     inkscape:window-maximized="0"
     units="px"
     fit-margin-top="100"
     fit-margin-left="100"
     fit-margin-right="100"
     fit-margin-bottom="100" />
  <metadata
     id="metadata3827">
    <rdf:RDF>
      <cc:Work
         rdf:about="">
        <dc:format>image/svg+xml</dc:format>
        <dc:type
           rdf:resource="http://purl.org/dc/dcmitype/StillImage" />
        <dc:title></dc:title>
      </cc:Work>
    </rdf:RDF>
  </metadata>
  <g
     inkscape:label="Logo"
     inkscape:groupmode="layer"
     id="layer1"
     transform="translate(39.611799,-91.753518)">
    <path
       style="fill:#000000"
       d="m 294.26412,780.67282 c -24.5574,-8.43349 -32.0576,-11.44089 -49.99963,-20.04851 -14.05069,-6.74076 -33.21121,-18.41308 -46.79365,-28.50601 -28.24706,-20.99002 -62.5562,-56.36229 -80.59757,-83.09503 -33.277684,-49.30907 -49.473534,-93.66751 -55.314664,-151.5 -1.82037,-18.02336 -1.39931,-303.99763 0.44933,-305.17292 0.69093,-0.43926 117.356234,-0.69256 259.256184,-0.56287 l 258,0.23579 0.2802,138 c 0.2918,143.76846 -0.2616,172.94593 -3.6796,194 -3.3465,20.61409 -10.3494,44.24898 -19.522,65.88666 -16.8332,39.70874 -38.7827,72.43808 -70.0605,104.46892 -40.3133,41.28386 -81.8083,66.54011 -146.0181,88.875 -7.1992,2.50419 -12.2406,3.5917 -18,3.88288 -7.7507,0.39187 -8.623,0.19049 -28,-6.46391 z m 44.5,0.10513 c 34.5562,-11.62945 68.0153,-27.30567 90.5,-42.40093 27.3943,-18.39132 57.9493,-46.41567 77.7972,-71.35375 34.9574,-43.92258 58.3585,-95.19161 66.916,-146.605 2.2294,-13.39411 2.2296,-13.40533 2.5322,-169.54765 l 0.3028,-156.15265 -128.2741,-0.34735 c -70.5507,-0.19104 -185.9386,-0.19022 -256.41758,0.002 l -128.143534,0.34917 -0.68736,20.15083 c -0.37806,11.08296 -0.50807,78.65083 -0.28893,150.15083 0.38792,126.56846 0.45518,130.39595 2.54781,145 7.54143,52.62995 21.96022,89.81299 52.737914,136 10.92324,16.39211 20.58899,27.96101 38.72427,46.34886 42.96355,43.56192 80.7595,66.87098 140.25331,86.49533 23.1178,7.6255 24.3497,7.68221 41.5,1.91049 z m -39.7599,-12.74233 C 278.50802,761.5155 266.53962,756.55928 247.26417,746.60957 227.11334,736.20802 219.74811,731.59449 201.80833,718.13634 130.04655,664.30175 85.872346,588.96425 73.038026,498.52327 c -1.59212,-11.21939 -1.74805,-20.18368 -1.52199,-87.5 0.36574,-108.91042 1.97703,-210.46841 3.36579,-212.14176 1.57444,-1.89708 81.216604,-1.85044 206.382294,0.12086 53.35,0.84024 140.0761,1.87473 192.7246,2.29887 59.9657,0.48308 96.0403,1.13554 96.5697,1.74659 1.0798,1.24617 -0.4169,224.91973 -1.7228,257.47544 -1.1229,27.99411 -3.9192,52.08739 -8.0792,69.6127 -3.1031,13.07266 -9.7066,34.22573 -13.7006,43.8873 -4.658,11.26762 -15.5469,34.99897 -16.2889,35.5 -0.4073,0.275 -1.9754,2.975 -3.4848,6 -4.8063,9.63268 -24.9791,39.15952 -33.4768,49 -11.2653,13.04532 -29.8225,31.7558 -40.0412,40.37182 -31.8451,26.85083 -68.5831,47.38683 -109.4705,61.19255 -22.8119,7.70246 -26.6774,7.86872 -45.2894,1.94798 z m 31.85,-0.415 c 13.2171,-3.39376 34.9833,-12.03039 54.4099,-21.58947 42.1284,-20.72964 73.7843,-45.54388 106.5322,-83.50788 8.5752,-9.94106 26.119,-35.51875 32.5804,-47.5 2.0763,-3.85 4.0605,-7.225 4.4094,-7.5 0.9818,-0.77385 13.8307,-29.47962 17.4567,-39 8.6759,-22.7796 13.7752,-43.36261 17.0943,-69 3.1234,-24.12552 3.9676,-57.85886 4.9581,-198.12917 l 0.6824,-96.62917 -55.3567,-0.6453 c -30.4462,-0.35492 -99.6818,-1.16715 -153.8568,-1.80495 -54.175,-0.6378 -139.97094,-1.31519 -190.6577,-1.50531 l -92.157744,-0.34567 -0.61019,8.27979 c -0.85071,11.54344 -2.5735,159.68891 -2.57394,221.33709 -4.4e-4,61.1776 0.69915,69.49099 8.83121,104.94269 9.05327,39.46767 34.469124,90.72936 61.479964,124 7.19148,8.85812 14.15936,15.9121 13.17744,13.34026 -0.34853,-0.91286 0.0482,-2.97833 0.88157,-4.58993 2.01296,-3.89265 22.35045,-23.25033 24.42715,-23.25033 0.89588,0 4.45564,3.0375 7.9106,6.75 9.07056,9.74671 9.67635,15.99708 2.0555,21.20804 -2.04464,1.39808 -5.0245,4.6108 -6.62189,7.13939 -3.35153,5.30528 -4.49479,5.90257 -11.29794,5.90257 -4.68779,0 -5.36933,-0.34893 -11.16822,-5.71786 l -6.17575,-5.71786 5.49999,5.82597 c 15.12702,16.02357 42.53639,38.6624 61.5,50.79606 10.50373,6.7207 38.60425,21.14709 50.49995,25.92599 17.0597,6.85339 36.8167,12.72793 43.0901,12.81242 3.0745,0.0414 8.9245,-0.78091 13,-1.82737 z m -53.9438,-13.09464 c -5.0135,-1.18477 -10.9593,-4.07317 -11.5492,-5.61041 -0.8101,-2.11093 1.4804,-7.78859 12.3616,-30.6423 1.2439,-2.6125 2.8481,-4.75 3.5648,-4.75 2.3509,0 14.8923,7.67625 16.8706,10.32602 2.1559,2.88755 3.2403,11.47898 2.1694,17.18729 -0.7476,3.9852 -6.3242,10.79446 -10.6886,13.05143 -2.9928,1.5476 -7.3926,1.69899 -12.7286,0.43797 z m 15.8604,-6.75271 c 5.2531,-5.28544 6.7443,-10.45399 5.0701,-17.57311 -1.1632,-4.9461 -2.901,-6.77155 -10.0979,-10.60748 l -5.9095,-3.14974 -3.0907,6.12271 c -3.9675,7.85954 -10.9787,23.78191 -10.9787,24.93259 0,1.57356 10.3562,4.91929 15.3929,4.97292 4.5362,0.0483 5.237,-0.29415 9.6138,-4.69789 z m -16.3718,-0.32258 c -2.5713,-2.02255 -3.7288,-6.92742 -1.6349,-6.92742 0.55,0 1,-0.46746 1,-1.0388 0,-2.22595 7.2999,-16.86228 8.6728,-17.38914 2.4571,-0.94285 7.4049,2.36952 8.906,5.96224 1.8922,4.52852 1.7613,8.12017 -0.4751,13.0443 -3.5826,7.88817 -10.9172,10.7157 -16.4688,6.34882 z m 10.7175,-2.82706 c 5.1662,-4.45017 6.2963,-13.54265 2.1931,-17.64581 -1.35,-1.35 -2.8417,-2.45455 -3.3148,-2.45455 -1.664,0 -9.5908,18.60828 -8.6058,20.20209 0.8686,1.40534 4.6696,2.60645 6.3751,2.01451 0.825,-0.28633 2.3336,-1.23864 3.3524,-2.11624 z m 65.8309,-4.35036 c -15.451,-15.93688 -16.3479,-17.5963 -10.6758,-19.75283 3.2945,-1.25257 4.7629,-0.31504 11.0217,7.03712 2.7238,3.19962 5.0211,5.73833 5.1051,5.6416 0.084,-0.0967 -0.566,-3.91794 -1.4443,-8.49156 -1.8139,-9.44595 -1.2232,-11.51783 3.4109,-11.96256 2.4817,-0.23818 3.6015,0.59541 7.7768,5.78896 2.6828,3.33696 5.1091,5.83581 5.3919,5.553 0.2829,-0.28281 -0.039,-3.12298 -0.716,-6.3115 -1.7503,-8.24777 -1.1866,-11.49409 2.2016,-12.67868 1.7932,-0.62692 3.1014,-0.61695 3.747,0.0286 0.5454,0.54549 2.112,8.14653 3.4812,16.89119 2.2485,14.36069 2.3433,16.12232 0.98,18.20304 -2.8497,4.3492 -5.9866,2.4947 -14.6636,-8.66913 l -2.6992,-3.4728 1.9497,8.92214 c 1.0724,4.90717 1.9497,9.02529 1.9497,9.15136 0,0.12608 -0.7071,0.93638 -1.5714,1.80066 -3.2666,3.26667 -5.9385,1.92097 -15.2453,-7.67857 z m 13.8167,5.20506 c 0,-0.45702 -0.631,-3.67138 -1.4022,-7.14301 -2.8275,-12.72696 -2.8892,-13.81205 -0.7859,-13.81205 1.1537,0 4.3252,2.95187 8.0581,7.5 9.4544,11.51925 10.1821,10.53237 7.0812,-9.603 -1.5113,-9.81345 -2.711,-14.897 -3.5157,-14.897 -2.0992,0 -2.3054,2.45606 -0.8057,9.5971 1.5899,7.5705 1.4956,11.54356 -0.2876,12.12841 -0.6369,0.20886 -3.9863,-2.90643 -7.4431,-6.92288 -3.4569,-4.01645 -6.7608,-7.30263 -7.3421,-7.30263 -1.5759,0 -1.8947,4.35849 -0.7315,10 2.3773,11.5304 2.4091,12.5 0.4095,12.5 -1.0503,0 -4.3787,-2.92981 -7.6684,-6.75 -6.2781,-7.29056 -8.0275,-8.70116 -9.5921,-7.73423 -1.32,0.81585 1.0925,3.83535 12.1369,15.19027 5.8035,5.96671 9.4705,9.00792 10.4214,8.64301 0.807,-0.30967 1.4672,-0.93696 1.4672,-1.39399 z m -124.99995,-9.95506 c -1.76294,-1.76294 -2.00002,-3.33344 -2.00013,-13.25 l -1.4e-4,-11.25 -4.96557,7.75 c -2.73107,4.2625 -5.55588,7.75 -6.27736,7.75 -1.95476,0 -5.7568,-2.92227 -5.7568,-4.42471 0,-1.41681 13.24869,-23.94706 15.77435,-26.82529 2.02477,-2.30743 4.3528,-2.21184 7.03709,0.28896 1.96848,1.83391 2.18856,3.04064 2.18856,12 0,5.47857 0.41742,9.96104 0.9276,9.96104 0.51017,0 2.53952,-2.65352 4.50966,-5.89672 1.97014,-3.2432 4.31609,-6.1784 5.21329,-6.52269 1.8881,-0.72452 6.3582,1.88266 6.3309,3.69246 -0.022,1.45247 -11.87923,22.01194 -14.98175,25.97695 -2.54565,3.25332 -5.24345,3.50625 -7.9997,0.75 z m 6.50589,-3.25 c 4.30574,-6.05775 13.50896,-22.917 12.97846,-23.77524 -1.1743,-1.90008 -2.3807,-0.90707 -5.86365,4.82654 -4.10079,6.75063 -7.28122,9.96455 -8.53519,8.62507 -0.47698,-0.5095 -1.06407,-6.02705 -1.30464,-12.26121 -0.43114,-11.17261 -1.29576,-13.76203 -4.27936,-12.81607 -1.38735,0.43986 -15.59674,23.86521 -15.19935,25.05738 0.92162,2.76486 3.04605,0.89423 7.77731,-6.84819 2.87639,-4.70706 5.77015,-8.55828 6.43056,-8.55828 1.32659,0 2.47117,9.25831 2.48286,20.08333 0.004,3.62084 0.30711,6.88334 0.67378,7.25 1.28816,1.28816 3.25581,0.64437 4.83922,-1.58333 z m 157.20356,-7.47356 c -3.1322,-0.46817 -8.9895,-7.30028 -15.0684,-17.57602 -4.2985,-7.26625 -4.5145,-9.34532 -1.1312,-10.88688 2.1645,-0.98622 2.8684,-0.81125 5.1149,1.27144 1.4327,1.32826 4.7966,5.64735 7.4753,9.59797 6.0533,8.92756 8.4786,10.83732 11.3536,8.94039 3.728,-2.45979 3.0381,-5.74771 -3.3995,-16.19931 -3.3298,-5.40609 -6.0542,-10.4027 -6.0542,-11.10359 0,-1.71977 4.649,-4.66913 6.3381,-4.02096 0.7444,0.28566 2.7611,2.69764 4.4814,5.35995 1.7204,2.66232 3.5957,5.39044 4.1675,6.06251 0.5717,0.67207 2.1585,3.32659 3.5263,5.89894 2.826,5.315 3.2066,11.08648 1.011,15.33224 -2.6591,5.1421 -10.5916,8.40301 -17.8148,7.32332 z m 10.2969,-4.27971 c 4.7347,-2.41545 5.9936,-4.52912 5.9936,-10.06295 0,-3.67218 -2.7706,-10.20971 -5.0576,-11.93378 -0.3648,-0.275 -1.3919,-1.85 -2.2825,-3.5 -2.7964,-5.18123 -5.6089,-7.95096 -6.8319,-6.72796 -0.7896,0.7896 0.6067,3.84113 5.0399,11.01418 6.7737,10.96003 7.409,14.02786 3.6776,17.75923 -5.0126,5.01264 -9.3225,2.91693 -16.5455,-8.04545 -5.6649,-8.59773 -10,-12.52769 -10,-9.06553 0,2.02752 11.652,19.20835 14.2713,21.04297 2.9665,2.07781 7.0477,1.91063 11.7351,-0.48071 z m -114.5064,-1.87458 c -5.5,-2.09868 -13.2254,-5.23471 -17.1676,-6.96896 -3.9422,-1.73426 -7.6225,-3.15319 -8.1785,-3.15319 -0.5561,0 -1.6056,-0.57194 -2.3324,-1.27098 -0.7268,-0.69904 -4.2465,-2.71267 -7.8215,-4.47472 -24.92561,-12.28539 -53.82393,-35.36244 -78.36599,-62.58001 -24.22144,-26.862 -43.98622,-60.79251 -55.00103,-94.42108 -10.23318,-31.24223 -14.5918,-57.24992 -14.62303,-87.25493 l -0.01,-9.50171 4.44846,-2.35991 c 13.94484,-7.39772 22.92444,-25.49237 21.10092,-42.52014 -0.78088,-7.29181 -5.52065,-18.21535 -10.28003,-23.69198 -1.63683,-1.8835 -3.51946,-4.45868 -4.18362,-5.72264 -1.41948,-2.70136 -1.57373,-2.39294 23.22974,-46.44885 11.39687,-20.24312 16.69376,-28.74785 17.90601,-28.75 0.94681,-0.002 4.32181,1.16172 7.5,2.58532 11.22885,5.02973 10.63198,5.28083 6.84567,-2.87992 -1.83946,-3.96465 -7.27014,-15.30845 -12.06818,-25.20845 -4.79804,-9.9 -8.94626,-19.60446 -9.21826,-21.56546 -0.4893,-3.52756 -0.42997,-3.59443 5.58284,-6.29282 19.225,-8.62767 51.46339,-19.08646 56.88796,-18.45562 2.39279,0.27827 2.98577,1.16526 5.22383,7.8139 3.0909,9.18216 2.64905,9.08215 23.02465,5.21145 l 14.49996,-2.75453 -0.4423,-4.97846 c -0.2432,-2.73815 -0.4682,-6.96782 -0.5,-9.39925 -0.053,-4.08224 0.1721,-4.48364 2.9423,-5.24148 10.7005,-2.92723 69.3528,-3.40515 90.9487,-0.74109 14.4622,1.78407 13.9622,1.33374 13.2122,11.89976 l -0.6341,8.93372 3.7366,0.99151 c 10.3996,2.75956 27.6757,6.02832 28.2743,5.3497 0.3741,-0.42423 1.9448,-4.30215 3.4903,-8.61759 1.5456,-4.31544 3.4253,-8.0823 4.1771,-8.3708 2.9489,-1.13162 59.9775,19.91352 65.7488,24.26316 1.9319,1.45594 1.9323,1.53624 0.041,7.10109 -1.0522,3.09568 -2.4441,6.15951 -3.0931,6.80851 -1.2525,1.25245 -19.4015,39.31138 -19.4015,40.68536 0,0.44475 3.6307,-0.53005 8.0683,-2.16621 10.2128,-3.76559 11.3427,-3.7421 13.2336,0.27515 37.9479,80.6202 35.1616,72.58005 27.9832,80.75 -9.3662,10.65984 -13.1737,22.53398 -11.3397,35.36473 1.5089,10.55674 2.718,13.9916 6.8351,19.4174 4.1403,5.45628 8.8382,9.71475 14.4695,13.11603 3.7388,2.2582 3.75,2.2851 3.75,9.00972 0,34.07097 -12.2528,82.79688 -29.3809,116.83921 -13.5842,26.99866 -30.5049,50.30085 -52.5345,72.34703 -22.932,22.94937 -43.8496,37.72937 -75.5846,53.40679 -20.9521,10.35059 -40.6564,17.53981 -47.8767,17.46805 -1.7178,-0.0171 -7.6233,-1.74814 -13.1233,-3.84681 z m 27.5,-2.38378 c 16.9274,-4.92043 51.116,-22.06742 69,-34.60635 21.8687,-15.3326 45.4782,-37.60289 60.8258,-57.37553 34.125,-43.96383 53.9718,-95.95609 58.1204,-152.25649 l 0.958,-13 -2.8996,-2.5 c -1.5948,-1.375 -4.8357,-4.01399 -7.2021,-5.86442 -11.1844,-8.74587 -15.3025,-18.4704 -15.3025,-36.13558 0,-10.78434 0.1924,-11.9045 3.091,-18 1.7,-3.575 5.4226,-9.2 8.2724,-12.5 2.8498,-3.3 5.0057,-6.675 4.7908,-7.5 -1.0739,-4.12315 -33.3334,-71.30743 -34.4482,-71.74263 -0.7118,-0.27784 -4.8515,0.90059 -9.1994,2.61873 -9.8124,3.87751 -12.4573,4.05611 -11.6365,0.78579 0.7369,-2.93602 19.5918,-42.98311 20.5568,-43.66189 0.391,-0.275 1.4923,-2.48397 2.4475,-4.90883 2.2207,-5.63787 2.0942,-5.76187 -11.8744,-11.63857 -11.5711,-4.86812 -46.9717,-17.4526 -49.0947,-17.4526 -0.6825,0 -2.4287,3.56624 -3.8803,7.92497 -1.4516,4.35874 -3.1866,8.37925 -3.8556,8.93446 -1.0921,0.90637 -7.959,-0.27876 -31.8969,-5.50497 -4.1957,-0.916 -4.5978,-2.12591 -3.5665,-10.72946 0.5221,-4.35517 0.5622,-8.25688 0.09,-8.72938 -0.4699,-0.46991 -4.4411,-1.40855 -8.825,-2.08587 -9.2905,-1.43543 -73.5502,-1.78561 -85.7942,-0.46753 l -7.8236,0.84221 0.6919,9.75909 0.6919,9.75909 -8.8683,1.61997 c -24.16881,4.41492 -28.35117,4.93653 -29.81837,3.71886 -0.79048,-0.65604 -2.41829,-4.19625 -3.61735,-7.86712 -1.19905,-3.67088 -2.4778,-7.00522 -2.84166,-7.40964 -0.98594,-1.09586 -16.97078,3.43773 -34.07135,9.66324 -14.42409,5.25112 -27.01962,10.46288 -27.01962,11.18013 0,0.71833 5.1619,11.82498 15.43631,33.2137 5.89743,12.27696 10.46406,22.99549 10.14807,23.81895 -0.68754,1.7917 -2.26024,1.4222 -12.34778,-2.90103 -4.50542,-1.93089 -7.61605,-2.75724 -8.19217,-2.17627 -0.94661,0.95458 -20.2372,34.94678 -32.50815,57.28302 l -6.7828,12.34642 2.14625,2.65358 c 9.50199,11.74806 13.10028,20.83583 13.10028,33.08576 0,10.83011 -2.48254,19.60863 -7.76946,27.47362 -3.65094,5.43126 -12.19149,12.81225 -16.35357,14.13325 -2.01302,0.63891 -2.06292,1.08647 -1.42823,12.81149 1.39227,25.72028 2.68481,36.56233 6.15746,51.64946 9.01784,39.17864 23.08221,70.46332 46.56948,103.58887 11.22283,15.82824 36.64447,42.29648 53.32431,55.51965 13.79189,10.93372 36.43825,25.37297 45.24995,28.85124 1.7875,0.70558 3.25,1.67829 3.25,2.16156 0,0.48327 0.4542,0.87868 1.0093,0.87868 0.555,0 5.3091,1.83715 10.5646,4.08255 17.1411,7.32347 26.8434,10.68239 29.4261,10.18724 1.375,-0.26361 7.225,-1.85275 13,-3.53142 z m -24.5,-8.10954 c -20.3446,-7.49948 -32.5541,-13.58991 -52.99995,-26.43804 C 233.93666,670.8255 224.43108,662.9067 205.2275,643.3623 182.46953,620.20042 169.93843,602.84959 156.38986,575.7406 139.08974,541.12529 130.09768,505.4653 129.48115,469.02822 c -0.18031,-10.65661 0.0365,-12.90095 1.28303,-13.28412 2.62465,-0.80676 15.49016,-14.53917 18.20048,-19.42686 5.00068,-9.01807 6.26887,-14.42476 6.28475,-26.79397 0.0136,-10.55667 -0.26113,-12.26586 -3.34871,-20.83652 -5.14929,-14.29361 -3.86641,-14.31335 16.36347,-0.2518 7.15,4.96988 15.25,10.44883 18,12.17544 l 5,3.1393 -3,-3.22764 c -2.86489,-3.08228 -20.48609,-19.38333 -27.36096,-25.31113 -3.78356,-3.26235 -3.79538,-6.05095 -0.0275,-6.48989 2.56958,-0.29934 16.17986,7.07178 32.23681,17.45897 7.59268,4.91168 12.69157,5.77996 6.64578,1.1317 -25.04699,-19.25719 -31.51918,-24.55603 -31.80426,-26.03843 -0.66575,-3.462 4.82045,-1.75595 21.98054,6.83532 27.76656,13.90145 28.61001,13.47598 4.47519,-2.25744 -17.97102,-11.71526 -20.6456,-13.85307 -20.6456,-16.50219 0,-3.15851 3.55543,-2.14539 23.7213,6.75939 10.69304,4.72179 19.70982,8.31714 20.03729,7.98966 0.86167,-0.86167 -1.36854,-2.32916 -20.13947,-13.25186 -10.41988,-6.06327 -17.27569,-10.68566 -17.91244,-12.07711 -1.36238,-2.97713 -0.39222,-3.75843 3.01126,-2.42504 1.53013,0.59946 7.05706,2.70273 12.28206,4.67393 5.225,1.9712 10.4,4.01593 11.5,4.54384 3.69351,1.77257 13.79445,4.9615 15.71557,4.9615 1.15414,0 1.62908,-0.44234 1.20745,-1.12455 -0.73077,-1.18242 -26.83292,-13.85195 -36.67302,-17.80045 -5.1789,-2.07812 -5.75,-2.60025 -5.75,-5.25688 0,-5.47681 3.5712,-8.71094 6.55,-5.93179 1.39039,1.2972 32.49442,11.56586 45.64146,15.06804 13.88564,3.69893 34.26459,7.58111 50.06309,9.537 6.5307,0.80852 12.3447,1.76093 12.9199,2.11646 2.67,1.65014 -2.824,18.57208 -11.6947,36.02047 l -7.1828,14.12829 5.1015,0.61301 c 6.7616,0.81249 58.8533,0.80367 70.3433,-0.0119 l 9.0491,-0.64232 -5.3462,-10.10768 c -5.5078,-10.41332 -13.4039,-32.04401 -13.4299,-36.79029 -0.018,-3.35845 0.013,-3.36745 18.4852,-5.34809 34.041,-3.64988 66.121,-11.47216 95.7761,-23.35376 9.2645,-3.71191 11.0286,-3.82973 12.96,-0.86554 3.4469,5.29024 24.7639,52.89698 24.7639,55.30476 0,1.45408 -1.5574,5.18661 -3.461,8.29451 -1.9036,3.1079 -4.9389,9.02573 -6.7451,13.15073 -3.1812,7.26539 -3.2785,7.889 -3.1106,19.93526 0.1723,12.35732 0.1985,12.48581 4.1823,20.5 4.7764,9.60879 13.6665,20.71404 18.0286,22.52088 4.092,1.69497 4.508,3.7032 3.8153,18.4199 -1.4248,30.27507 -10.0724,61.83103 -25.7938,94.12396 -10.8955,22.38029 -15.3617,29.45337 -30.8874,48.91563 -26.8211,33.62158 -62.5197,61.05864 -100.8415,77.50424 -13.8102,5.92657 -27.2102,10.60178 -32.7919,11.44097 -2.9627,0.44542 -6.0489,-0.20847 -12.8949,-2.73201 z m 22.1599,-2.52006 c 59.4013,-19.42753 111.7182,-61.99033 144.5612,-117.60877 8.5,-14.39445 18.9652,-38.49528 24.0995,-55.5 6.4875,-21.48648 11.6609,-54.27263 10.1517,-64.33652 -0.5201,-3.46817 -1.1864,-4.49138 -3.6289,-5.57253 -4.1683,-1.84506 -12.9842,-12.86801 -17.9966,-22.50201 -4.2011,-8.07461 -4.2093,-8.11198 -4.6435,-21.08894 -0.4236,-12.65951 -0.3533,-13.21126 2.6826,-21.066 1.7147,-4.4363 4.914,-11.04443 7.1095,-14.68472 2.5961,-4.30434 3.7672,-7.25348 3.3491,-8.434 -0.7147,-2.01838 -18.1114,-39.82541 -22.1169,-48.06528 -1.4036,-2.8875 -3.1374,-5.25 -3.8528,-5.25 -0.7154,0 -3.6799,0.94502 -6.5877,2.10003 -31.2067,12.39546 -64.3122,20.52226 -97.2871,23.8822 -15.0653,1.53507 -16.5,1.87303 -16.5,3.88698 0,4.32515 6.6341,22.18005 12.5356,33.73838 4.629,9.06596 6.1995,13.05761 5.4377,13.82016 -1.136,1.13706 -83.4484,2.1664 -87.7233,1.097 -3.1743,-0.79408 -2.8361,-2.67486 1.9511,-10.85028 8.7938,-15.01797 17.4315,-37.51658 15.2084,-39.61339 -0.5002,-0.47175 -6.9845,-1.61264 -14.4095,-2.53531 -25.93502,-3.22282 -50.29575,-9.14431 -79.95441,-19.43494 -7.94995,-2.75838 -14.54467,-4.91975 -14.65493,-4.80304 -0.11026,0.11672 -0.35575,1.05252 -0.54554,2.07957 -0.41425,2.24173 -1.38366,1.68244 19.53591,11.27102 19.26979,8.83239 23.11902,11.14694 23.11902,13.90145 0,3.94864 -10.59623,2.73877 -22,-2.51194 -3.61963,-1.66661 -17.63683,-7.02828 -18.32556,-7.00964 -0.37094,0.01 4.05056,2.76679 9.82556,6.12613 23.58829,13.72138 25.13999,14.8293 24.80619,17.71168 -0.20428,1.76398 -0.97183,2.72898 -2.30619,2.89945 -1.1,0.14054 -10.52155,-3.56291 -20.93678,-8.22988 -10.41523,-4.66697 -19.11433,-8.30786 -19.33132,-8.09086 -0.45609,0.45608 10.4682,7.9079 22.7681,15.53086 9.94232,6.16184 14,9.70404 14,12.22146 0,3.57639 -5.67741,1.87943 -24.15625,-7.22018 -10.08906,-4.96821 -17.37019,-8.23071 -16.18029,-7.25 1.1899,0.9807 7.4899,5.81395 14,10.74057 14.79474,11.19613 17.33654,13.48665 17.33654,15.62262 0,1.71807 -1.90962,2.9199 -4.6395,2.9199 -0.81176,0 -8.31245,-4.21136 -16.66821,-9.35857 -16.58223,-10.21478 -23.70922,-14.1039 -23.66137,-12.91175 0.017,0.42367 1.96268,2.22448 4.32371,4.00178 2.36104,1.77731 9.82271,8.54846 16.5815,15.04701 8.9471,8.6026 12.18703,12.34349 11.9148,13.75705 -0.68537,3.55887 -3.51257,2.6201 -14.26499,-4.73663 -5.86732,-4.01439 -11.75438,-7.97389 -13.08234,-8.79889 -1.32796,-0.825 -5.14228,-3.44667 -8.47624,-5.82594 l -6.06176,-4.32594 3.13544,8.32594 c 2.83315,7.52323 3.13971,9.43466 3.17972,19.82594 0.0475,12.33073 -1.64077,19.9152 -6.43331,28.90169 -2.78198,5.21649 -15.11381,18.73069 -17.89839,19.61448 -1.73506,0.55069 -1.94905,1.57257 -1.94905,9.30735 0,10.3827 2.23666,30.67121 4.98176,45.18898 6.60177,34.91419 24.47464,73.37982 49.71125,106.9875 7.46399,9.93982 38.8092,41.53774 48.30698,48.69644 9.99768,7.53548 32.32565,21.28758 43.49995,26.79223 13.5825,6.69092 33.0925,14.38499 36.6599,14.45737 1.4629,0.0297 6.6379,-1.24709 11.5,-2.83727 z m -16.6599,-5.71598 c -8.853,-2.97408 -44.6935,-21.28239 -54.99995,-28.0955 -37.10151,-24.52597 -70.08869,-61.61937 -89.89157,-101.08121 -8.23337,-16.40694 -18.05975,-45.43146 -21.67577,-64.02456 -2.34875,-12.07695 -4.43265,-31.0755 -4.43265,-40.41166 v -8.77986 h 20.34638 c 27.48609,0 38.46983,0.81441 39.08844,2.8983 0.2615,0.88094 0.97063,7.13145 1.57583,13.89003 3.08217,34.41995 13.22752,63.49116 32.18306,92.21955 6.4857,9.82951 22.26123,28.50337 29.99323,35.50369 10.6207,9.6156 20.757,16.48843 24.3179,16.48843 4.6927,0 6.3594,-0.8368 8.005,-4.01909 4.4057,-8.51968 3.7998,-16.94967 -2.1515,-29.93434 -1.8789,-4.09939 -3.173,-8.08718 -2.8758,-8.86175 0.7451,-1.94177 56.7267,-1.37556 58.6959,0.59366 1.013,1.01299 0.5424,2.6761 -2.4028,8.49063 -4.0585,8.01253 -5.4064,15.50921 -4.2719,23.75822 0.8525,6.19825 3.2499,8.9741 7.7462,8.96893 4.1342,-0.005 8.0975,-2.445 18.7214,-11.52677 23.7123,-20.27037 40.1497,-41.40171 51.3995,-66.07721 10.2138,-22.40314 15.784,-42.44656 17.7073,-63.71687 1.2911,-14.27901 1.5556,-15.42439 3.7202,-16.1114 3.014,-0.95663 57.4379,1.27227 58.5641,2.39847 0.7083,0.70831 0.6359,5.44979 -0.2312,15.14171 -2.626,29.35045 -8.1577,51.76725 -19.0543,77.21597 -7.6256,17.80961 -15.1685,31.1035 -30.9825,54.60492 -6.5848,9.78582 -28.5494,32.8211 -42.6807,44.76132 -19.8261,16.75202 -53.3537,35.70915 -78.3099,44.27795 -9.9633,3.42093 -11.7526,3.5621 -18.1039,1.42844 z m 18.2429,-4.35839 c 23.8534,-8.41923 53.1646,-24.90561 73.7571,-41.48547 14.5367,-11.70404 38.0016,-35.98967 45.0945,-46.67173 1.323,-1.99254 4.2572,-6.26754 6.5202,-9.5 7.0999,-10.14105 19.2642,-32.8348 24.9919,-46.62496 6.3695,-15.33526 11.439,-32.07933 14.4028,-47.57032 2.3435,-12.24936 5.0766,-38.34613 4.1174,-39.31484 -0.3447,-0.3481 -13.0872,-0.94635 -28.3165,-1.32944 l -27.6898,-0.69653 -0.5085,3.32944 c -0.2797,1.8312 -0.775,7.13367 -1.1007,11.78328 -1.4901,21.27649 -9.5281,48.21984 -21.4647,71.95028 -10.1627,20.20381 -29.3668,43.15499 -51.5391,61.59528 -10.7756,8.96186 -16.6179,11.04622 -22.4738,8.018 -4.0966,-2.11843 -5.334,-6.82999 -4.8644,-18.52163 0.3439,-8.56282 0.7839,-10.55216 3.4984,-15.81543 3.0665,-5.9458 3.0785,-6.02704 0.9687,-6.54263 -3.3897,-0.82837 -48.256,-1.99765 -50.0618,-1.30468 -1.448,0.55564 -1.3578,1.16117 0.8098,5.43883 6.0571,11.95303 7.1286,24.38198 2.8287,32.8105 -2.2556,4.42138 -5.5544,6.41765 -10.6051,6.41765 -9.9017,0 -40.54703,-28.86432 -56.73723,-53.4399 -18.87083,-28.64461 -28.7602,-56.82652 -32.28035,-91.98989 -0.81456,-8.13681 -1.61813,-14.90646 -1.7857,-15.04367 -0.16757,-0.13721 -12.61623,-0.54411 -27.6637,-0.90422 l -27.35902,-0.65474 0.67929,10.26621 c 2.81665,42.56846 15.87634,85.08402 36.25569,118.02968 19.65104,31.76826 48.74434,61.86696 79.28302,82.02293 10.1675,6.71062 40.5859,22.49256 51.2615,26.59586 7.1255,2.73879 10.1878,2.60885 19.9814,-0.84786 z m -66.2429,-138.08968 c -9.62495,-0.38559 -17.61245,-0.75589 -17.74995,-0.82289 -0.54262,-0.26443 -0.21056,-98.24199 0.40995,-120.9599 l 0.65994,-24.16193 39.09006,0.0191 c 48.1576,0.0235 70.8565,1.1421 78.8156,3.88395 6.5185,2.2456 7.345,2.80435 13.8741,9.3801 9.5252,9.59333 12.8131,19.48415 11.4197,34.35344 -0.5947,6.34673 -1.3282,8.38997 -5.5086,15.3455 -4.0118,6.67511 -4.5686,8.16598 -3.3121,8.86915 3.6822,2.06065 11.3278,10.72119 14.1663,16.04686 3.8144,7.15644 5.4787,17.34597 4.1584,25.45843 -1.8141,11.14652 -9.9617,22.57075 -19.9896,28.02859 -9.3607,5.09475 -14.7651,5.59521 -58.5338,5.42042 -22,-0.0879 -47.875,-0.47523 -57.5,-0.86081 z m 94.3525,-1.95836 c 9.8061,-0.81244 12.9225,-1.49269 18.0505,-3.94004 7.5636,-3.60977 13.3679,-9.29839 17.7731,-17.41898 3.1035,-5.72102 3.3239,-6.75875 3.3239,-15.64907 0,-8.70559 -0.2762,-10.08289 -3.2233,-16.06851 -2.9121,-5.91467 -8.3958,-12.30065 -15.2767,-17.79001 -2.1238,-1.69438 -2.3144,-2.26717 -1.2665,-3.8071 0.6784,-0.99696 3.1534,-4.95079 5.5,-8.7863 4.2231,-6.90261 4.27,-7.08228 4.6021,-17.63831 0.313,-9.95195 0.1524,-11.03857 -2.404,-16.25948 -2.3842,-4.86904 -9.8605,-13.71405 -14.6222,-17.29906 -0.8551,-0.64377 -4.6495,-2.14169 -8.432,-3.32871 -6.2218,-1.95248 -10.2613,-2.24133 -42.3774,-3.03019 -19.525,-0.47959 -43.2267,-0.89417 -52.6705,-0.92129 l -17.17054,-0.0493 -0.52469,2.75 c -1.00885,5.28764 -1.76126,135.71205 -0.79113,137.137 0.75455,1.10832 7.34521,1.52678 32.80056,2.0826 49.2749,1.07592 63.8862,1.07912 76.7088,0.0168 z m -60.3525,-30.90809 -19.5,-0.57827 -0.2807,-12.25 -0.2808,-12.25 38.2808,0.0149 38.2807,0.0149 3.9026,3.30173 c 3.5231,2.98073 3.9486,3.85732 4.3764,9.01666 0.5246,6.32546 -0.6196,8.41861 -6.2766,11.48296 -3.412,1.84823 -23.6704,2.28011 -58.5024,1.24717 z m 55.6291,-3.19746 c 4.6685,-1.42648 6.6161,-4.12724 6.5552,-9.09043 -0.043,-3.53394 -0.5969,-4.7471 -3.1395,-6.88081 -3.0853,-2.58908 -3.1,-2.59079 -27.8158,-3.24784 -13.6009,-0.36157 -30.3031,-0.65837 -37.116,-0.65956 l -12.387,-0.002 0.7154,9.74499 c 0.3934,5.35974 0.9019,9.93162 1.13,10.15973 0.5566,0.55654 57.5909,1.68399 63.9286,1.26373 2.75,-0.18235 6.4081,-0.76179 8.1291,-1.28764 z m -71.9076,-51.61098 -3.7786,-0.39397 0.2786,-13.18793 0.2785,-13.18793 35.1164,-0.26264 35.1164,-0.26265 4.078,3.95752 c 6.4518,6.26133 6.8229,13.99862 0.9899,20.64205 l -3.0078,3.42572 -32.6464,-0.1681 c -17.9556,-0.0925 -34.3468,-0.34539 -36.425,-0.56207 z m 70.6897,-5.34656 c 4.3166,-5.13006 2.9494,-13.49135 -2.8249,-17.27477 -2.2082,-1.44692 -6.5376,-1.6485 -35.4043,-1.6485 h -32.8885 l -0.6467,7.65088 c -0.3557,4.20798 -0.6468,9.15798 -0.6468,11 v 3.34912 h 34.9112 34.9111 z m -206.41114,-94.2039 c 0,-1.57959 24.25503,-44.40298 26.31838,-46.46633 1.87592,-1.87593 3.68161,-0.83084 3.68161,2.13082 0,2.90284 -4.0518,14.83719 -6.998,20.61223 -6.67122,13.07667 -23.00199,29.91954 -23.00199,23.72328 z m 16.95216,-19.08221 c 3.81457,-5.60578 10.47832,-20.93476 9.8483,-22.65456 -0.16526,-0.45111 -5.13865,7.80576 -11.05198,18.3486 -8.8407,15.76202 -10.04366,18.36904 -6.76866,14.6688 2.19057,-2.475 5.77813,-7.13828 7.97234,-10.36284 z m 180.79778,-15.18498 c -0.9136,-0.95686 -0.8612,-18.22441 0.074,-24.45218 l 0.6759,-4.5 4.9749,-0.31397 c 14.5982,-0.92133 62.6402,10.83662 65.946,16.13985 1.5445,2.47764 0.3168,2.99752 -14.2535,6.03563 -27.6274,5.76068 -55.4112,9.1918 -57.4174,7.09067 z m 16.75,-2.98522 c 13.2518,-1.08099 50.5,-8.08663 50.5,-9.49803 0,-0.38347 -1.9125,-1.39318 -4.25,-2.2438 -20.4301,-7.43457 -57.8735,-14.76136 -59.7684,-11.69528 -0.407,0.65856 -1.0531,5.61287 -1.4357,11.00958 -0.8199,11.56489 0.065,14.37658 4.2737,13.58452 1.4742,-0.27742 6.2804,-0.79807 10.6804,-1.15699 z m -75,1.8538 c -18.1281,-2.29364 -32.94001,-5.2179 -52.74995,-10.41419 -5.58693,-1.4655 -4.98496,-3.99703 1.5,-6.30809 20.86459,-7.43557 60.23235,-14.56484 64.64295,-11.70646 1.7929,1.16192 2.9721,8.44548 3.0474,18.8228 0.052,7.13367 -0.1949,8.35105 -1.8746,9.25 -1.8599,0.99539 -8.2731,1.15211 -14.5658,0.35594 z m 13.7045,-11.82076 c -0.4583,-13.95739 -0.6533,-14.5 -5.2116,-14.5 -4.7689,0 -16.9127,1.58554 -27.4929,3.58955 -9.43857,1.78779 -32.49995,8.42464 -32.49995,9.3532 0,0.98309 21.88648,6.17625 36.49995,8.66062 7.2006,1.22414 16.5689,2.14015 21,2.05335 l 8,-0.15672 z m 135.0643,-7.75 c 0.2917,-1.7875 3.2756,-9.45138 6.6308,-17.03085 3.3552,-7.57947 6.1004,-14.38655 6.1004,-15.12685 0,-3.95202 -40.0559,-16.25856 -72.5,-22.27443 -12.7145,-2.35757 -16.9705,-2.63857 -46.3526,-3.06036 -33.7479,-0.48446 -45.7767,0.19588 -67.1474,3.79783 -18.6928,3.15062 -55.7629,13.5807 -58.98471,16.59601 -1.63594,1.53109 -1.82687,0.84694 4.9812,17.84865 6.51543,16.27089 7.23991,18.44171 6.65945,19.95436 -0.91321,2.37978 -4.00582,1.83809 -6.87597,-1.20436 -2.31546,-2.45446 -13.33386,-25.68703 -16.85744,-35.54433 -2.29627,-6.42388 -0.57971,-7.71314 19.478,-14.62933 51.27037,-17.67879 106.60407,-22.41958 163.82657,-14.03606 22.4542,3.28972 63.1858,14.97331 80.1329,22.98564 4.7163,2.2298 4.8454,2.40636 4.367,5.97331 -0.5279,3.93564 -14.6851,34.19207 -17.405,37.19755 -0.8976,0.99177 -2.7461,1.80322 -4.1078,1.80322 -2.2354,0 -2.4243,-0.31563 -1.9454,-3.25 z m 13.2587,-18.25 c 9.5317,-19.83197 9.2844,-18.7371 4.73,-20.93948 -9.157,-4.42813 -40.2629,-14.67795 -54.7719,-18.04808 -26.2517,-6.09772 -48.426,-8.51549 -77.9119,-8.49511 -26.615,0.0184 -36.8032,0.75067 -56.0737,4.03028 -29.58365,5.03482 -71.49995,18.11133 -71.49995,22.30566 0,3.47646 14.74285,35.40571 17.32391,37.51917 2.43183,1.99128 2.12616,0.17398 -1.28062,-7.61364 -1.6262,-3.71734 -4.56431,-10.94517 -6.52914,-16.06185 -4.85874,-12.65274 -4.46998,-13.42925 8.98585,-17.94859 25.49682,-8.56348 51.33135,-13.87549 79.49995,-16.34652 19.9547,-1.75049 63.796,-0.61126 80,2.07882 26.4334,4.3883 64.3533,14.80083 75.7698,20.80587 5.0603,2.66169 4.8263,4.81684 -2.2573,20.79139 -3.1515,7.10714 -6.1335,14.04708 -6.6267,15.42208 l -0.8967,2.5 2.1645,-2.5 c 1.1905,-1.375 5.4087,-9.25 9.3739,-17.5 z m -38.5275,15.31096 c -9.1139,-3.10953 -21.1861,-6.23684 -32.5,-8.41912 -29.6614,-5.72128 -28.9564,-5.51793 -29.2979,-8.45058 -0.1639,-1.40731 0.1625,-3.76981 0.7252,-5.25 0.9363,-2.46257 1.4816,-2.69126 6.417,-2.69126 11.4059,0 44.7511,7.28975 60.6557,13.26024 15.4899,5.8148 16.5535,6.79871 13.5,12.48901 -1.1,2.04993 -2.675,3.79054 -3.5,3.86801 -0.825,0.0775 -8.025,-2.08536 -16,-4.8063 z m 16.9649,0.25478 c 2.1586,-4.03346 1.1927,-4.70244 -14.9649,-10.36492 -16.3203,-5.71953 -55.5109,-13.86995 -59.4409,-12.36187 -0.9184,0.35244 -1.5591,1.7954 -1.5591,3.51158 0,2.90094 0.041,2.9206 9.75,4.63314 24.213,4.27101 35.6698,6.94131 49.2081,11.46925 7.9981,2.67497 14.8636,4.90486 15.2568,4.95533 0.3931,0.0505 1.1806,-0.77867 1.75,-1.84251 z m -205.2542,0.50206 c -1.84065,-1.84066 -3.1452,-7.05567 -2.16267,-8.64543 2.60171,-4.20965 40.97417,-14.11832 65.75077,-16.97837 6.3995,-0.73873 11.1484,-0.87938 11.657,-0.34527 0.4721,0.4957 1.3487,2.70127 1.9479,4.90127 1.4682,5.39016 0.6591,5.86222 -13.6707,7.97684 -22.549,3.32749 -47.95996,9.26008 -60.84951,14.20626 -0.61906,0.23756 -1.82181,-0.26433 -2.67279,-1.1153 z m 13.42074,-5.06617 c 10.77523,-3.4834 30.95656,-7.80977 50.78656,-10.88738 5.7299,-0.88927 10.58,-1.77886 10.778,-1.97687 0.198,-0.198 -0.091,-1.54741 -0.6432,-2.99869 -1.2056,-3.17089 -2.8288,-3.27351 -17.8988,-1.13146 -19.06743,2.71024 -54.02263,11.85323 -55.70132,14.56941 -0.72736,1.17689 0.25133,5.92336 1.22135,5.92336 0.34974,0 5.50557,-1.57427 11.45741,-3.49837 z m 220.10696,-44.00777 c -2.8939,-1.31502 -5.5326,-3.09718 -5.8639,-3.96036 -0.7888,-2.05563 1.5043,-7.5335 3.1536,-7.5335 2.4909,0 14.5164,5.95225 15.1004,7.47421 0.8874,2.31247 -2.3125,6.53515 -4.9015,6.46818 -1.2248,-0.0317 -4.5947,-1.13352 -7.4886,-2.44853 z m 9.5096,-2.22273 c 0.4507,-1.3689 -10.4129,-6.59626 -11.8555,-5.70465 -2.071,1.27993 -0.6077,3.64332 3.3575,5.423 4.6503,2.08712 7.8684,2.19378 8.498,0.28165 z m -282.30783,-0.72217 c -2.56621,-3.91654 -1.09579,-5.97575 6.35434,-8.8987 8.069,-3.16577 8.83059,-3.21938 10.17036,-0.716 2.48269,4.63895 1.38811,6.6159 -5.21482,9.41859 -7.71206,3.27349 -9.27574,3.3006 -11.30988,0.19611 z m 10.42653,-2.68229 c 5.39849,-2.24351 5.64028,-2.51755 4.21196,-4.77372 -0.74772,-1.1811 -1.86936,-1.04108 -6.98469,0.87193 -5.598,2.09351 -7.15855,3.63716 -5.42725,5.36845 1.08796,1.08796 2.78195,0.78498 8.19998,-1.46666 z m 234.9531,-4.52951 c -6.4585,-2.878 -7.554,-4.56761 -5.2458,-8.09042 1.4335,-2.18781 2.0912,-2.396 5.7302,-1.81409 2.261,0.36154 6.0425,1.5118 8.4034,2.55612 3.6115,1.59756 4.2924,2.35186 4.2924,4.755 0,5.85772 -4.0614,6.65687 -13.1802,2.59339 z m 10.1439,-0.79336 c 1.7745,-2.1382 0.5954,-3.26538 -5.3895,-5.15195 -5.158,-1.62591 -8.5742,-1.44677 -8.5742,0.44962 0,0.76228 10.2099,5.89159 12.1276,6.09271 0.3452,0.0362 1.1714,-0.58947 1.8361,-1.39038 z M 205.43084,252.8566 c -0.36667,-0.36666 -0.66667,-2.1778 -0.66667,-4.02475 0,-4.1197 2.81326,-5.58196 11,-5.71751 5.49859,-0.091 5.50008,-0.0902 5.81396,3.16705 0.2914,3.02388 -0.0201,3.40132 -4.3329,5.25 -4.57852,1.96258 -10.51152,2.62808 -11.81439,1.32521 z m 8.79506,-3.21933 c 8.10416,-3.0778 7.03464,-6.15225 -1.43352,-4.12077 -4.6144,1.10698 -6.72403,3.07189 -5.47244,5.09701 0.7691,1.24443 1.23043,1.17922 6.90596,-0.97624 z m 137.78822,-11.14516 c -1.8118,-0.72826 -2.25,-1.68968 -2.25,-4.93662 v -4.03222 h 4.4349 c 8.5156,0 11.3913,2.71922 8.53,8.06574 -1.1311,2.11341 -6.5645,2.57136 -10.7149,0.9031 z m 8.75,-3.96884 c 0,-1.1 -0.6187,-2 -1.375,-2 -0.7562,0 -2.7812,-0.28125 -4.5,-0.625 -2.6489,-0.52979 -3.125,-0.32667 -3.125,1.33333 0,2.77141 0.8167,3.29167 5.1667,3.29167 3.1667,0 3.8333,-0.34783 3.8333,-2 z m -79.75,3.33772 c -1.6446,-0.66363 -1.6091,-5.79476 0.05,-7.17142 2.1772,-1.80691 9.5051,-2.57328 11.195,-1.1708 2.1797,1.80901 1.9158,6.71453 -0.4288,7.96932 -1.9739,1.05638 -8.5592,1.28343 -10.8158,0.3729 z m 10.0817,-3.26934 c 2.5482,-2.54822 -3.4388,-4.1518 -7.462,-1.99864 -1.6524,0.88438 -1.7807,1.3325 -0.7402,2.5862 1.3073,1.57522 6.4045,1.21008 8.2022,-0.58756 z m 12.7035,0.99736 c -2.6433,-4.93911 -0.5249,-8.06574 5.4648,-8.06574 4.7457,0 6.5,1.34949 6.5,5 0,3.67986 -1.7597,5 -6.6648,5 -3.193,0 -4.5249,-0.48609 -5.3,-1.93426 z m 8.9648,-3.10905 c 0,-0.99552 -0.7875,-1.97884 -1.75,-2.18514 -2.9435,-0.63093 -5.25,0.3671 -5.25,2.27176 0,0.99552 0.7875,1.97884 1.75,2.18514 2.9436,0.63093 5.25,-0.3671 5.25,-2.27176 z m 14,1.24331 c 0,-4.95342 1.4075,-6.2 7,-6.2 5.5926,0 7,1.24658 7,6.2 v 3.8 h -7 -7 z m 12,0.37143 c 0,-2.01453 -2.7966,-4.57143 -5,-4.57143 -2.2033,0 -5,2.5569 -5,4.57143 0,1.04762 1.3334,1.42857 5,1.42857 3.6667,0 5,-0.38095 5,-1.42857 z M 198.26417,707.65257 c -5.22032,-3.24222 -7.69803,-6.70659 -8.24085,-11.52253 -0.5921,-5.25305 0.74007,-7.9535 9.07669,-18.39943 7.62084,-9.54904 7.93278,-9.75245 11.61777,-7.57567 1.67551,0.98975 3.04639,2.33799 3.04639,2.99609 0,0.6581 -3.15476,5.17358 -7.01059,10.0344 -8.56373,10.7958 -9.27469,12.83554 -5.58124,16.01251 3.49102,3.00285 4.70945,2.34719 11.85474,-6.37924 8.69874,-10.62364 10.23835,-11.8437 13.2272,-10.48189 3.78502,1.72457 3.12334,4.52047 -2.99318,12.64742 -8.31384,11.0465 -12.57975,14.53985 -17.74981,14.5353 -2.39716,-0.002 -5.55386,-0.81532 -7.24712,-1.86696 z m 16.53817,-6.86144 c 5.59528,-6.12213 10.96183,-13.56259 10.96183,-15.19804 0,-2.5245 -2.41112,-0.5023 -10.05154,8.43018 -9.04345,10.57278 -11.40838,11.58895 -16.5927,7.12959 -4.82666,-4.15172 -3.9347,-7.8917 4.35185,-18.2473 5.18017,-6.47358 6.83076,-9.21828 6.0867,-10.12128 -1.37845,-1.67288 -1.96012,-1.19975 -8.31173,6.76083 -7.95043,9.96438 -9.61017,13.09019 -8.88252,16.72844 1.18876,5.94381 10.02449,11.83873 15.65816,10.44663 0.96701,-0.23896 4.01799,-2.90703 6.77995,-5.92905 z m 185.26108,1.48214 c -4.6079,-5.05913 -5.2459,-9.78901 -1.5136,-11.22126 2.0923,-0.80287 7.8235,5.0657 8.8184,9.02974 1.1523,4.59102 -3.7733,6.06875 -7.3048,2.19152 z m 4.7007,-1.53777 c 0,-0.43328 -1.3317,-2.34578 -2.9593,-4.25 -3.4495,-4.03567 -4.3244,-1.864 -0.9681,2.40291 2.0089,2.55393 3.9274,3.45621 3.9274,1.84709 z m 31.3504,-4.53148 c -7.3085,-8.01509 -16.3504,-19.27855 -16.3504,-20.36776 0,-1.30258 4.3476,-5.31299 5.7597,-5.31299 0.6219,0 5.0112,4.50713 9.754,10.01585 l 8.6233,10.01585 5.7249,-4.01585 c 3.1488,-2.20872 6.403,-4.01585 7.2316,-4.01585 1.9803,0 3.9255,2.00505 3.8322,3.95 -0.1038,2.16267 -15.281,15.05 -17.7242,15.05 -1.1424,0 -4.0817,-2.28213 -6.8511,-5.31925 z m 21.2189,-9.79282 c 1.1932,-1.93058 -1.8095,-0.71202 -6.4364,2.61207 -2.6794,1.925 -5.8138,3.5 -6.9651,3.5 -1.4079,0 -4.7625,-3.12046 -10.2437,-9.52856 -6.5967,-7.71222 -8.417,-9.30721 -9.5495,-8.36732 -1.1246,0.93333 -1.1562,1.47866 -0.1612,2.77856 3.3326,4.35359 11.5865,14.07298 15.1363,17.82368 l 3.9811,4.20637 6.8449,-6.06843 c 3.7646,-3.33764 7.0918,-6.468 7.3936,-6.95637 z m -4.4076,-16.31048 c -6.1389,-6.2824 -11.1617,-11.89075 -11.1617,-12.463 0,-1.28831 7.0332,-9.27503 12.824,-14.56269 3.4668,-3.16556 4.6562,-3.74002 6,-2.89788 3.0981,1.94157 2.4463,4.82924 -2.2756,10.08114 -4.9639,5.52106 -5.2902,6.4044 -3.0519,8.26207 1.2392,1.02845 2.1967,0.60941 5.5691,-2.43732 8.2146,-7.42146 13.9444,-1.8813 6.0385,5.83867 l -3.9816,3.88792 3.9388,4.67118 c 2.1663,2.56914 3.9387,5.35997 3.9387,6.20183 0,1.89979 -3.1391,4.84063 -5.1671,4.84063 -0.8302,0 -6.5323,-5.14015 -12.6712,-11.42255 z m 14.5522,6.78084 c 0.1864,-0.5592 -1.4729,-3.07512 -3.6875,-5.59095 -2.2145,-2.51583 -4.0264,-4.93815 -4.0264,-5.38294 0,-0.44478 1.8518,-2.69549 4.115,-5.00157 5.6929,-5.80065 4.564,-7.73066 -1.4681,-2.5099 -2.6227,2.26989 -5.1304,4.12707 -5.5728,4.12707 -1.7826,0 -6.0741,-4.26682 -6.0741,-6.0392 0,-1.04172 2.025,-4.17408 4.5,-6.9608 2.475,-2.78672 4.5,-5.54835 4.5,-6.13697 0,-1.34361 -6.2655,4.08086 -11.3622,9.83692 l -3.8622,4.36192 10.317,10.48415 c 9.6778,9.83466 11.7892,11.30882 12.6213,8.81227 z m 9.0361,-33.83079 c -7.0125,-5.21676 -12.75,-10.1893 -12.75,-11.05007 0,-1.59076 8.4828,-12.53577 12.1893,-15.72743 5.1151,-4.40454 15.6887,-0.38388 15.7789,6 0.027,1.87924 0.5839,2.25 3.3818,2.25 4.6507,0 11.65,5.12942 11.65,8.53766 0,3.51728 -2.3921,4.08313 -8.4937,2.00913 -5.8899,-2.00202 -9.0823,-1.45797 -10.0908,1.71968 -0.5501,1.73305 0.1785,2.90948 3.6571,5.90551 3.9757,3.42415 4.2612,3.97815 3.3673,6.53468 -1.8058,5.16475 -4.7492,4.19162 -18.6899,-6.17916 z m 16.25,5.25941 c 0,-0.60228 -1.8,-2.63579 -4,-4.51891 -4.7394,-4.05679 -5.1031,-6.89215 -1.3636,-10.63164 3.0243,-3.02433 5.5803,-3.27945 10.8397,-1.08194 2.0461,0.85494 4.4636,1.40236 5.3721,1.2165 2.922,-0.59777 -6.6493,-6.77092 -10.4982,-6.77092 -2.2629,0 -3.35,-0.4715 -3.35,-1.45295 0,-4.91091 -5.2528,-9.0782 -9.9084,-7.86073 -2.8778,0.75255 -13.5968,14.20839 -12.3287,15.47649 2.9051,2.90519 23.8145,17.5984 24.4684,17.19424 0.4228,-0.26129 0.7687,-0.96786 0.7687,-1.57014 z m -17.8256,-15.10136 c -1.1959,-1.27295 -2.1744,-3.20967 -2.1744,-4.30383 0,-2.43704 5.9317,-8.38172 8.3634,-8.38172 5.1737,0 7.7376,4.97038 5.1475,9.97898 -2.7677,5.35218 -7.7366,6.53849 -11.3365,2.70657 z m 8.3854,-3.13638 c 3.3879,-5.17069 -0.6607,-8.68185 -5.149,-4.46536 -2.6876,2.52492 -2.9873,3.93965 -1.2108,5.71619 1.9244,1.92432 4.6277,1.39263 6.3598,-1.25083 z M 142.43085,650.8566 c -1.6455,-1.6455 -0.48153,-6.4746 2.33333,-9.68055 3.34774,-3.81286 3.49659,-4.46878 1.83949,-8.10573 -1.44996,-3.1823 -2.57936,-3.19007 -6.83949,-0.0471 -1.86371,1.375 -4.41576,2.5 -5.67123,2.5 -2.57622,0 -5.68816,-3.96609 -4.79341,-6.1091 0.91637,-2.1948 25.56405,-18.89135 27.88103,-18.88685 1.51021,0.003 3.52838,2.2489 7.3336,8.16128 6.10822,9.4907 6.63872,13.03082 2.66111,17.75794 -2.13124,2.53283 -3.32849,3.07673 -6.7726,3.07673 -3.77343,0 -4.37274,0.35104 -6.11151,3.57975 -3.25709,6.04804 -9.4907,10.12321 -11.86032,7.75358 z m 6.78075,-5.45321 c 1.44386,-1.71593 3.318,-4.45961 4.16476,-6.09706 1.3861,-2.68042 1.88352,-2.91265 4.99031,-2.32981 2.96113,0.55551 3.88249,0.2156 6.4938,-2.39571 2.30269,-2.30269 2.88216,-3.59225 2.38172,-5.3003 -0.73966,-2.52448 -9.18098,-15.75724 -10.05172,-15.75724 -1.30799,0 -16.38806,9.93681 -25.36677,16.71509 -0.24226,0.18289 0.20774,0.97843 1,1.76785 1.25208,1.2476 2.01603,1.0483 5.84096,-1.52381 5.37327,-3.61329 7.37805,-3.70917 9.51036,-0.45485 3.25198,4.96313 3.06746,7.734 -0.82525,12.39328 -1.97208,2.36042 -3.58559,4.69909 -3.58559,5.19705 0,1.95045 2.95296,0.75001 5.44742,-2.21449 z m 2.62538,-14.60796 c -3.679,-4.46328 -3.82516,-6.21673 -0.75835,-9.09785 3.30539,-3.10525 7.09432,-2.81336 9.62561,0.74153 3.34699,4.70041 3.6901,8.52936 0.93712,10.45763 -3.68945,2.58419 -6.42556,1.99778 -9.80438,-2.10131 z m 8.92345,-1.55734 c -0.002,-0.66815 -0.92111,-2.71955 -2.04236,-4.55866 -1.89758,-3.11249 -2.18757,-3.24494 -4.19145,-1.91442 -3.11998,2.07159 -3.15571,3.13743 -0.2221,6.62383 2.16021,2.56727 2.96157,2.93619 4.54136,2.0907 1.05507,-0.56465 1.91661,-1.5733 1.91455,-2.24145 z m 348.30399,-9.42388 c -1.1749,-1.53502 -6.2227,-7.29094 -11.2171,-12.79094 -4.9944,-5.5 -9.0813,-10.52603 -9.082,-11.16896 0,-2.22166 3.5041,-7.31842 5.0391,-7.32472 2.6678,-0.011 29.9144,5.02595 32.4953,6.00719 3.0133,1.14567 3.1263,2.89899 0.3768,5.85016 -1.4792,1.58781 -2.9977,2.15273 -5.2106,1.93857 -2.756,-0.26673 -3.3984,0.19297 -5.468,3.91291 l -2.3452,4.21515 2.282,3.08647 c 2.1203,2.86796 2.175,3.27749 0.7722,5.78485 -2.0817,3.72099 -5.0245,3.90941 -7.6425,0.48932 z m 5.3268,-1.76154 c 0.3104,-0.80883 -0.3866,-2.67954 -1.5489,-4.15713 -2.3749,-3.0192 -2.1149,-4.76636 1.5805,-10.62227 2.0714,-3.28252 2.8502,-3.75 6.2469,-3.75 2.4095,0 4.0848,-0.53239 4.4194,-1.40446 0.4167,-1.08593 -1.9971,-1.8801 -10.643,-3.50163 -19.2431,-3.60904 -20.3058,-3.66531 -21.6537,-1.14675 -1.2927,2.41545 -1.8607,1.59888 12.4717,17.92861 3.85,4.3865 7.3517,8.00893 7.7814,8.04985 0.4298,0.0409 1.0354,-0.58739 1.3457,-1.39622 z m -12.5421,-15.17019 c -5.7154,-6.49308 -5.4734,-7.78231 1.3292,-7.08022 6.5089,0.67178 9.5858,2.15516 9.5858,4.62134 0,2.30722 -3.7042,7.09967 -5.4875,7.09967 -0.7384,0 -3.1807,-2.08836 -5.4275,-4.64079 z m 7.915,-1.91427 c 0,-1.30385 -0.7823,-1.6559 -6.5,-2.92487 l -3,-0.66582 3.4245,3.55051 c 2.626,2.72261 3.7336,3.29399 4.75,2.45043 0.7291,-0.60504 1.3255,-1.68965 1.3255,-2.41025 z M 117.5032,613.24772 c -2.77055,-4.2284 -9.73902,-18.66905 -9.73902,-20.18202 0,-0.82609 2.3625,-2.85558 5.25,-4.50999 7.83841,-4.49107 24.43249,-11.3733 25.93512,-10.75634 0.72318,0.29693 3.78988,5.28625 6.81488,11.08738 5.39886,10.35357 5.46322,10.57573 3.5,12.08201 -3.51513,2.69697 -5.67882,1.46674 -9.57733,-5.44549 -3.52668,-6.25294 -6.00892,-8.28749 -7.38825,-6.05569 -0.35863,0.58027 0.78973,3.76009 2.55189,7.06626 3.10367,5.82307 3.14761,6.07347 1.40383,8.00032 -3.02765,3.34553 -5.07667,2.43137 -8.99014,-4.01089 -3.64449,-5.99948 -4.75452,-6.75766 -7.42196,-5.06939 -1.18155,0.74782 -0.86174,2.18487 1.89152,8.49957 3.20576,7.35253 3.25508,7.66412 1.51697,9.5847 -2.34143,2.58726 -3.91404,2.50779 -5.74751,-0.29043 z m 1.27191,-9.20008 c -3.3203,-7.40033 -3.2064,-10.18622 0.45401,-11.10493 4.464,-1.12039 6.90801,-0.0462 9.28413,4.08056 1.26673,2.2 2.68214,4.62568 3.14536,5.3904 0.46322,0.76472 1.33821,1.08385 1.94443,0.70919 0.73975,-0.45719 0.0431,-2.83307 -2.11832,-7.22468 l -3.22054,-6.54348 2.41928,-1.96308 c 3.75842,-3.04971 6.18287,-2.02709 9.79546,4.13165 1.7744,3.025 3.60482,6.14138 4.06759,6.92529 0.46276,0.78391 1.37386,1.09621 2.02465,0.694 0.83743,-0.51756 -0.0288,-2.98001 -2.96382,-8.42529 -6.2537,-11.60237 -4.93576,-11.21614 -17.999,-5.27461 -17.0839,7.77025 -16.27134,6.39361 -10.42359,17.65968 5.57632,10.74315 8.30919,11.46268 3.59036,0.9453 z m 407.98901,-26.64915 c -4.7593,-2.20077 -14.8021,-5.87522 -16.0577,-5.87522 -0.4096,0 -1.674,1.575 -2.8098,3.5 -2.2142,3.75283 -5.0334,4.52923 -7.1566,1.97092 -1.0451,-1.25923 -0.7755,-2.80342 1.5273,-8.75 1.538,-3.97151 3.8757,-9.38622 5.1948,-12.0327 2.0813,-4.17573 2.7555,-4.77056 5.1002,-4.5 2.1249,0.24521 2.7707,0.91187 3.0241,3.12225 0.1772,1.54576 -0.1345,3.36085 -0.6928,4.03354 -1.7141,2.06535 0.1167,3.48714 9.8437,7.64452 14.4149,6.16104 16.152,7.77826 12.1981,11.35648 -2.3945,2.16698 -4.6993,2.06053 -10.1713,-0.46979 z m 9,-2.47734 c 0,-0.63103 -7.7303,-4.3254 -13.7037,-6.54907 -8.9406,-3.32825 -10.5502,-4.65369 -10.0454,-8.27224 0.236,-1.69211 0.6136,-3.52657 0.8391,-4.07657 0.2255,-0.55 -0.026,-1.225 -0.5591,-1.5 -0.8606,-0.444 -7.2535,12.87847 -8.9974,18.75 -1.0227,3.44353 1.0157,2.67928 3.334,-1.25 1.1422,-1.93585 2.8622,-3.49448 3.8488,-3.48764 0.9811,0.007 6.5087,1.95914 12.2837,4.33853 7.1729,2.95535 10.8961,4.02167 11.75,3.3652 0.6875,-0.52854 1.25,-1.12173 1.25,-1.31821 z M 98.799356,573.58901 c -2.25289,-4.20956 -1.19148,-6.37367 9.676844,-19.73015 l 3.38863,-4.1644 -7.30033,2.87998 c -9.860804,3.8901 -12.441554,3.85878 -13.324604,-0.16172 -0.91024,-4.14429 0.0962,-4.91485 11.524284,-8.82368 5.225,-1.78713 10.91801,-3.88303 12.65113,-4.65755 9.62875,-4.30302 13.97295,2.52927 7.08916,11.1494 -1.78216,2.23169 -4.6911,5.88168 -6.46431,8.1111 l -3.22402,4.05349 8.42332,-2.52563 c 9.4191,-2.8242 11.90029,-2.22877 11.32528,2.71782 -0.27481,2.36405 -1.54301,3.03087 -14.80056,7.78207 -7.975,2.85806 -15.27167,5.22056 -16.21482,5.25 -0.94315,0.0294 -2.180644,-0.81689 -2.750004,-1.88073 z m 17.354894,-5.62267 c 7.21046,-2.50632 13.52268,-4.96657 14.02715,-5.46722 2.1319,-2.11579 -2.63127,-1.90506 -10.86374,0.48061 -4.82747,1.39895 -8.95187,2.54354 -9.16535,2.54354 -1.67312,0 0.46376,-4.58172 4.66394,-10 7.10974,-9.17166 8.86128,-12.06223 8.25945,-13.63057 -0.58045,-1.51264 -5.87207,-1.88949 -6.74306,-0.48021 -0.30226,0.48907 -1.67938,1.17279 -3.06026,1.51937 -7.44422,1.86838 -19.508204,6.93064 -19.508204,8.18598 0,1.97666 1.87805,1.76714 9.811394,-1.09457 7.83142,-2.82495 11.18861,-3.15136 11.18861,-1.08784 0,0.77668 -3.14315,5.38918 -6.98478,10.25 -6.44441,8.15411 -8.727784,13.33784 -5.87515,13.33784 0.62704,0 7.03954,-2.05062 14.25,-4.55693 z m 418.10987,-18.02635 c -19.6656,-5.32445 -22.5,-6.37439 -22.5,-8.33472 0,-1.02324 0.8273,-2.88203 1.8384,-4.13065 1.7154,-2.11852 2.1459,-2.19274 6.4428,-1.11078 6.4532,1.62495 6.5045,1.6068 7.8145,-2.7655 1.5934,-5.31823 0.8625,-6.59636 -4.5513,-7.9596 -5.0294,-1.2664 -6.1154,-2.70403 -5.0997,-6.75078 0.628,-2.50223 0.8998,-2.60247 5.5606,-2.05048 2.6951,0.3192 10.1132,2.0148 16.4845,3.76799 12.4995,3.43944 14.2786,4.7668 12.5351,9.35233 -1.1183,2.94144 -1.3888,2.98181 -9.187,1.37111 -3.1803,-0.65689 -6.0194,-0.95741 -6.309,-0.66781 -0.2896,0.2896 -0.9187,2.62544 -1.3979,5.19076 l -0.8714,4.66421 4.1202,1.03775 c 7.3497,1.85113 8.6202,2.69832 8.6202,5.74801 0,2.90001 -1.5934,5.27773 -3.45,5.14817 -0.5775,-0.0403 -5.1,-1.16981 -10.05,-2.51001 z m 10.8494,-1.88469 c 0.6914,-1.80177 0.5499,-1.88537 -6.7293,-3.97528 l -5.88,-1.68818 0.6287,-5.3492 c 1.1191,-9.5216 2.2935,-10.40976 11.1454,-8.42879 3.024,0.67674 5.776,0.95262 6.1155,0.61306 1.8708,-1.87079 -1.6053,-3.63764 -12.7777,-6.49472 -15.6214,-3.99479 -16.2053,-4.06822 -16.6138,-2.08975 -0.2439,1.18091 0.8588,1.91962 4.074,2.72922 6.2763,1.58039 7.09,2.90544 5.7425,9.35193 -1.7101,8.18191 -1.9378,8.36788 -8.4582,6.90868 -5.607,-1.2548 -8.0152,-0.86512 -7.3313,1.18637 0.312,0.93605 24.8929,8.41378 28.3779,8.6328 0.6286,0.0395 1.3965,-0.58876 1.7063,-1.39614 z M 86.148216,533.08168 c -1.13721,-2.96353 0.27969,-5.13343 5.02854,-7.70092 5.52761,-2.98853 6.73937,-4.56041 5.92281,-7.68296 -0.51439,-1.96702 -1.22551,-2.17453 -7.45202,-2.17453 h -6.88337 v -3.98095 c 0,-4.52481 -1.4338,-3.86895 15.30076,-6.99892 14.255274,-2.66625 18.294374,-2.64516 19.765234,0.10318 0.625,1.16782 1.37683,6.48718 1.67073,11.82081 0.53312,9.675 0.52793,9.70254 -2.23604,11.87668 -2.98759,2.35005 -9.21777,2.93616 -12.50573,1.1765 -1.29335,-0.69218 -2.08542,-0.65994 -2.55763,0.10412 -1.13011,1.82855 -8.708394,4.85312 -12.218714,4.87662 -1.95158,0.0131 -3.50556,-0.56225 -3.83457,-1.41963 z m 10.11596,-3.1581 c 1.65,-0.74805 3.747774,-1.90429 4.661714,-2.5694 1.30286,-0.94815 2.49062,-0.93651 5.5,0.0539 4.39146,1.44522 8.60495,0.37275 10.16333,-2.58692 0.9954,-1.89046 0.0398,-17.08957 -1.20069,-19.09667 -0.76329,-1.23503 -0.52656,-1.25908 -18.374354,1.86593 -8.55907,1.49862 -12.25,2.55169 -12.25,3.49506 0,0.98241 1.97482,1.43022 7.25,1.644 l 7.25,0.29381 0.30282,5.2662 c 0.28673,4.9863 0.13732,5.35834 -2.81117,7 -7.52276,4.18852 -9.05253,5.32628 -8.45699,6.28988 0.66768,1.08032 2.99945,0.59562 7.96534,-1.65577 z m 7.977354,-7.79454 c -0.86282,-1.31683 -1.84302,-4.0843 -2.17823,-6.14995 -0.74743,-4.60586 1.23462,-6.45582 6.91676,-6.45582 3.25843,0 3.99271,0.41261 4.8939,2.75 1.29835,3.36745 0.52368,10.23278 -1.28395,11.37881 -2.65081,1.6806 -6.73793,0.93497 -8.34848,-1.52304 z m 7.10444,-0.60577 c 0.87605,0 0.37198,-8.91053 -0.5358,-9.47158 -0.52471,-0.32428 -2.14868,-0.28977 -3.60882,0.0767 -2.3871,0.59912 -2.59829,1.01456 -2.09438,4.11982 0.67837,4.1803 2.4759,6.5586 4.39921,5.82056 0.78187,-0.30002 1.60977,-0.5455 1.83979,-0.5455 z m 427.73295,-26.40824 c -1.7519,-0.79244 -3.8894,-2.80241 -4.75,-4.46662 -1.7628,-3.4087 -2.0672,-10.31775 -0.5774,-13.1015 1.657,-3.09614 7.431,-6.02364 11.8807,-6.02364 h 4.1319 v 8.05902 c 0,5.11803 0.365,7.83347 1,7.44098 0.55,-0.33992 1,-3.48992 1,-7 0,-7.12202 0.9555,-8.41441 4.5027,-6.09024 5.7692,3.78015 5.3646,15.41241 -0.686,19.72081 -3.8984,2.77589 -12.0079,3.49396 -16.5019,1.46119 z m 12.3546,-2.52871 c 2.2931,-1.04116 4.6556,-2.80169 5.25,-3.91229 1.6345,-3.05412 1.2962,-8.66242 -0.6694,-11.09538 -1.7032,-2.10832 -1.741,-1.99126 -1.415,4.38165 0.3221,6.29478 0.2326,6.58679 -2.3151,7.55541 -5.5208,2.09903 -5.7567,1.77005 -5.3725,-7.49258 0.3922,-9.45435 0.1836,-9.69982 -5.8211,-6.85038 -4.7477,2.25291 -6.6788,5.42684 -5.8165,9.55988 1.0277,4.9255 3.1304,7.62924 6.7454,8.67321 4.5481,1.31341 4.7564,1.29527 9.4142,-0.81952 z m -13.1127,-5.28556 c -2.0996,-2.99769 -1.9601,-6.10239 0.3689,-8.21016 3.0584,-2.76779 5.5239,-1.65762 5.8823,2.64865 0.5671,6.81519 -3.0925,10.07109 -6.2512,5.56151 z m 3.5066,-6.11422 c -1.3313,-1.33131 -2.5147,1.74899 -1.5701,4.08673 0.6172,1.52726 0.8256,1.44205 1.6375,-0.66952 0.5938,-1.54425 0.5694,-2.78043 -0.067,-3.41721 z M 89.264176,492.7929 c -6.23042,-0.66052 -7.49809,-1.34557 -9.40435,-5.08214 -3.20061,-6.27371 -3.5371,-10.4011 -1.26644,-15.53429 1.83122,-4.13978 2.49598,-4.69187 7.34781,-6.10233 3.01005,-0.87505 10.125,-1.65972 16.328714,-1.80082 l 10.99427,-0.25005 v 3.99279 3.9928 l -12,1.15603 c -6.600004,0.63581 -12.743164,1.45769 -13.651464,1.82638 -2.055,0.83415 -2.79537,3.44343 -1.76636,6.22511 1.06537,2.87998 5.32311,3.64389 15.757214,2.82712 10.79956,-0.84537 14.43756,0.24547 13.97699,4.19096 -0.25803,2.2104 -0.96186,2.83464 -3.81638,3.38485 -4.43839,0.8555 -18.555044,1.59182 -22.500004,1.17359 z m 17.420854,-3.11853 c 2.98147,-0.3581 5.60647,-1.2136 5.83333,-1.9011 0.31566,-0.95659 -2.60636,-1.25 -12.44834,-1.25 -15.157334,0 -17.315234,-0.84949 -17.290534,-6.8067 0.008,-2.03132 0.35508,-4.22765 0.77035,-4.88074 1.29907,-2.04301 6.02421,-3.28707 15.0267,-3.9563 9.798614,-0.72842 13.652174,-1.79562 12.604564,-3.49069 -0.8544,-1.38245 -18.951764,-0.5576 -24.665324,1.1242 -4.06892,1.1977 -6.7516,4.96952 -6.7516,9.49269 0,3.40318 2.63797,9.69557 4.72372,11.26754 1.77262,1.33598 12.7606,1.53453 22.197134,0.4011 z m 446.26519,-23.84048 c 0.307,-3.72673 0.402,-3.81062 4.3139,-3.81062 3.9048,0 4,0.0833 4,3.5 0,3.41112 -0.1095,3.50789 -4.3139,3.81062 l -4.314,0.31063 z m 6.1901,0.15153 c 0.342,-0.89117 -0.062,-1.78803 -0.9602,-2.13279 -1.8674,-0.71657 -3.9108,1.06102 -2.9698,2.58351 0.9813,1.58774 3.2475,1.32783 3.93,-0.45072 z m -451.98734,-9.22746 c -0.61117,-0.40408 -1.4184,-2.81989 -1.79385,-5.36846 -0.82326,-5.5883 -1.6391,-5.86623 -17.219954,-5.86623 h -10.375 v -3.5 -3.5 l 5.25,-0.006 c 2.8875,-0.003 8.97083,-0.29564 13.51851,-0.64965 7.880124,-0.61342 8.294374,-0.76579 8.819204,-3.244 1.15983,-5.47656 2.35582,-7.2477 4.67196,-6.91864 2.17774,0.30939 2.24817,0.69519 2.52103,13.80925 0.24579,11.81295 0.0665,13.64756 -1.44113,14.75 -1.97952,1.44746 -2.42421,1.50303 -3.95077,0.49372 z m 3.49621,-15.23469 c 0.0948,-9.55048 -1.30159,-13.90352 -2.38369,-7.43081 -0.36143,2.16194 -0.83296,4.49331 -1.04785,5.18081 -0.28729,0.91917 -3.97202,1.25 -13.922094,1.25 -11.36123,0 -13.53138,0.24057 -13.53138,1.5 0,1.25521 2.08889,1.5 12.8,1.5 8.622224,0 13.191674,0.39167 14.000004,1.2 0.66,0.66 1.2,2.835 1.2,4.83333 0,1.99834 0.33541,3.96875 0.74536,4.37869 1.24209,1.2421 2.05068,-3.44849 2.13965,-12.41202 z m 415.11493,12.52305 c 0,-4.4076 1.7451,-5.52298 13.4011,-8.56527 l 8.9011,-2.32324 -8.4011,-2.63239 c -11.5605,-3.62237 -12.9011,-4.4608 -12.9011,-8.06872 0,-5.0662 1.1794,-4.99759 18.4361,1.07251 12.524,4.40531 16.5639,6.61504 16.5639,9.05984 0,3.00614 -4.187,6.64302 -9.135,7.93472 -2.4007,0.62673 -8.5328,2.458 -13.6269,4.0695 -12.2817,3.88528 -13.2381,3.84577 -13.2381,-0.54695 z m 12.3321,-1.95629 c 3.9424,-1.33829 9.1929,-2.94992 11.6679,-3.5814 5.3941,-1.37628 9,-3.53392 9,-5.38527 0,-0.74459 -2.2086,-2.30395 -4.9081,-3.46525 -7.4832,-3.21918 -23.1045,-8.2973 -24.2991,-7.8991 -2.2686,0.7562 2.2905,3.5085 9.3582,5.64947 10.4842,3.17595 11.849,3.85212 11.849,5.87023 0,1.43493 -2.1327,2.38237 -10.5543,4.68866 -7.1429,1.95612 -10.8713,3.48274 -11.5352,4.72312 -1.3536,2.52928 0.5613,2.40724 9.4216,-0.60046 z m 15.0575,-21.99403 c -0.3013,-0.785 -0.3996,-2.4725 -0.2186,-3.75 0.4111,-2.90161 5.7554,-3.82127 7.8112,-1.34418 2.1769,2.62298 -0.2096,6.52145 -3.9921,6.52145 -1.722,0 -3.2916,-0.6222 -3.6005,-1.42727 z m 5.6104,-2.57273 c 0,-0.55 -0.9265,-1 -2.059,-1 -1.1324,0 -1.7809,0.45 -1.441,1 0.34,0.55 1.2665,1 2.0591,1 0.7925,0 1.4409,-0.45 1.4409,-1 z M 496.43082,301.8566 c -1.4567,-1.45675 -0.4392,-3.46663 4.7915,-9.46424 5.1716,-5.92985 13.5418,-20.4071 13.5418,-23.42212 0,-1.08689 -0.57,-1.18073 -2.5651,-0.42222 -1.4108,0.53639 -4.2975,0.97525 -6.415,0.97525 -3.3312,0 -4.4048,-0.63043 -7.969,-4.67954 -5.2121,-5.92129 -11.2797,-18.10401 -11.4333,-22.95618 -0.1065,-3.36479 0.4182,-4.14979 5.5609,-8.3207 8.8016,-7.13837 22.0902,-14.24042 25.9339,-13.86032 2.7564,0.27257 3.671,1.1534 6.5585,6.31674 5.5535,9.9304 7.6352,18.21554 7.1463,28.44216 -0.3839,8.02804 -0.8378,9.663 -5.1725,18.62901 -4.1594,8.60337 -5.9734,11.0503 -14.5519,19.62872 -7.1305,7.13058 -10.4755,9.80011 -12.2797,9.80011 -1.3639,0 -2.7797,-0.3 -3.1464,-0.66667 z m 14.0306,-11.69769 c 7.4285,-7.52563 10.0244,-10.97918 13.2206,-17.58847 5.3867,-11.13906 6.6257,-17.49734 5.1641,-26.50013 -1.1648,-7.17361 -6.3707,-19.69291 -9.4833,-22.80556 -2.0906,-2.09053 -4.4105,-1.28765 -15.0987,5.22527 -9.5145,5.79776 -15.5,10.80312 -15.5,12.96188 0,5.09372 9.6017,21.45382 14.4591,24.6365 2.3012,1.50783 2.8702,1.51068 7.198,0.0361 2.5846,-0.88066 5.2941,-1.60119 6.0211,-1.60119 4.4807,0 -4.0428,19.52198 -12.8261,29.37661 -8.1337,9.12583 -3.1869,6.42235 6.8452,-3.74097 z m -1.3914,-31.03171 c -6.0664,-5.10453 -10.5631,-20.17924 -7.2207,-24.20659 2.0742,-2.49916 5.7543,-3.55365 8.0724,-2.31303 5.1401,2.75093 11.0911,23.50135 7.8573,27.39783 -1.8429,2.22051 -5.4598,1.85578 -8.709,-0.87821 z m 6.951,-5.86079 c -0.2844,-5.56434 -5.3571,-17.46065 -7.8539,-18.41876 -2.8502,-1.09372 -5.576,3.21113 -4.7877,7.561 1.4239,7.85604 7.2641,16.41935 10.8481,15.90621 1.7636,-0.2525 2.004,-0.92933 1.7935,-5.04845 z m 30.4098,44.59019 c -0.3667,-0.36666 -0.6716,-9.92916 -0.6777,-21.25 -0.01,-11.32083 -0.285,-22.2409 -0.62,-24.26683 -0.5468,-3.30722 -0.8015,-3.56335 -2.4925,-2.5073 -3.9371,2.45879 -8.4799,-4.01683 -5.9854,-8.53207 0.6919,-1.25242 5.9466,-7.22713 11.6772,-13.27713 8.4174,-8.88665 10.6096,-10.71182 11.4101,-9.5 0.6051,0.91578 0.997,14.74238 1.0063,35.5 l 0.015,34 -6.0855,5.25 c -6.1406,5.29759 -7.0359,5.79515 -8.2477,4.58333 z m 12.2466,-39.33333 c -0.034,-15.125 -0.3656,-29.42844 -0.7374,-31.78543 l -0.6759,-4.28543 -9.25,10.05791 c -5.0875,5.53185 -9.25,10.92123 -9.25,11.97641 0,2.41881 1.8247,3.61191 3.2872,2.14941 1.6181,-1.61815 4.4031,-1.36237 5.1059,0.46892 0.3338,0.86998 0.6069,12.14813 0.6069,25.06255 v 23.48077 l 5.4874,-4.81255 5.4874,-4.81256 -0.062,-27.5 z m -433.52573,33.95835 c -7.99444,-6.25497 -13.38751,-14.41999 -13.38751,-20.26847 0,-3.38758 3.4602,-9.19793 7.73366,-12.98632 2.01818,-1.78911 2.00856,-1.82314 -2.3536,-8.32826 -4.91146,-7.32428 -5.39401,-10.49748 -2.45825,-16.16514 1.9163,-3.69951 11.35858,-13.44471 16.0507,-16.56561 1.35987,-0.9045 4.13785,-1.64455 6.17327,-1.64455 4.64841,0 8.34637,2.98979 13.80085,11.15794 3.28431,4.91828 4.05337,6.95093 4.05337,10.7131 0,4.0236 -0.60044,5.37512 -4.5,10.12896 -2.475,3.0172 -4.5,5.73823 -4.5,6.04674 0,0.30851 1.56943,2.08208 3.48763,3.94127 8.35969,8.10253 8.1081,17.32102 -0.71348,26.1426 -5.41452,5.41452 -14.10932,10.84545 -17.38664,10.86001 -1.16188,0.005 -3.86188,-1.35936 -6,-3.03227 z m 11.49446,-2.15686 c 12.93236,-7.85839 18.63045,-17.01911 15.00124,-24.11723 -0.61424,-1.20134 -2.94327,-4.08183 -5.17564,-6.40107 -4.66415,-4.84568 -4.5565,-5.69449 1.66609,-13.13584 4.48831,-5.36739 5.17855,-7.8982 3.34248,-12.25533 -1.95124,-4.63043 -9.32435,-13.75639 -12.15684,-15.04696 -3.5057,-1.5973 -8.46115,1.24765 -15.8898,9.12241 -9.82855,10.41878 -10.09767,13.12766 -2.31392,23.29118 2.00443,2.61726 3.64442,5.11649 3.64442,5.55384 0,0.43734 -1.60469,2.34595 -3.56597,4.24134 -1.96128,1.8954 -4.48809,4.93311 -5.61512,6.75047 -1.98084,3.19416 -1.9925,3.45265 -0.34965,7.75438 2.0209,5.29166 12.6968,16.44132 15.74271,16.44132 1.12858,0 3.68008,-0.98933 5.67,-2.19851 z m -7.5949,-12.39248 c -2.90789,-3.07505 -5.28707,-6.34558 -5.28707,-7.26787 0,-2.26499 4.75993,-9.14114 6.32784,-9.14114 1.48885,0 8.9583,7.56066 10.55537,10.68426 0.61423,1.20134 1.11679,3.05315 1.11679,4.11514 0,2.56637 -3.72349,7.2006 -5.78551,7.2006 -0.9022,0 -4.01954,-2.51595 -6.92742,-5.59099 z m 8.51293,1.39099 c 2.2637,-2.2637 1.24744,-5.79322 -2.99244,-10.39295 l -4.19244,-4.54826 -1.78533,2.3206 c -2.51136,3.26433 -2.34084,3.95845 2.2552,9.17982 4.41053,5.01063 4.89627,5.25953 6.71501,3.44079 z m -3.04573,-31.1746 c -4.35844,-3.34458 -7.75427,-8.93384 -7.75427,-12.76291 0,-3.85751 2.6342,-7.86249 5.17142,-7.86249 2.02355,0 9.51886,8.60547 10.12088,11.61995 0.67288,3.36922 -2.04124,9.76363 -4.2923,10.11257 -0.825,0.12788 -2.28558,-0.37032 -3.24573,-1.10712 z m 5.24573,-6.38227 c 0,-2.91691 -6.08137,-11.24313 -8.21184,-11.24313 -1.23648,0 -2.92187,5.00813 -2.31603,6.88208 0.28768,0.88986 2.15488,3.3913 4.14933,5.55877 3.44123,3.73977 3.69648,3.84483 5.0024,2.05887 0.75688,-1.03509 1.37614,-2.50056 1.37614,-3.25659 z m -48.491284,50.50687 c -0.23568,-0.6875 -0.55905,-11.67572 -0.71861,-24.41826 -0.15956,-12.74254 -0.58379,-23.46122 -0.94273,-23.81929 -0.35894,-0.35806 -1.52852,-0.10402 -2.59907,0.56455 -2.9493,1.84187 -6.8069,0.40287 -8.24824,-3.07684 -1.21794,-2.94035 -1.11621,-3.14337 3.62341,-7.23192 2.68208,-2.31366 8.56572,-7.76509 13.07475,-12.1143 12.280744,-11.84545 11.705244,-13.23094 10.847484,26.11442 l -0.71357,32.73164 -6.137184,6.25 c -6.33266,6.44907 -7.45458,7.13432 -8.18624,5 z m 12.670414,-43.93074 0.32087,-30.68073 -7.500004,7.19019 c -4.125,3.95461 -9.40235,8.8631 -11.72744,10.90775 -2.72907,2.39992 -4.02029,4.25736 -3.64301,5.24054 0.75521,1.96805 3.32931,1.94053 6.19432,-0.0662 4.88699,-3.42297 5.17502,-2.24039 5.18979,21.30781 0.007,11.97976 0.29632,22.83721 0.6418,24.12767 0.60536,2.26113 0.80189,2.17041 5.41548,-2.5 l 4.787324,-4.84629 z m 73.8018,434.53455 c 2.49322,-0.49864 4.00235,-1.8521 6.60946,-5.92768 1.8582,-2.90482 4.22618,-5.55053 5.26218,-5.87934 3.09065,-0.98094 5.45771,-4.33815 5.36472,-7.6088 -0.0635,-2.23218 -1.6264,-4.82117 -5.73683,-9.50301 -3.10728,-3.53924 -6.0847,-6.43498 -6.6165,-6.43498 -1.6253,0 -22.8713,21.39743 -22.83722,23 0.0563,2.64666 10.74807,13 13.42498,13 0.71405,0 2.75219,-0.29078 4.52921,-0.64619 z m -9.90402,-6.43073 c -1.6923,-1.69231 -3.07692,-3.85404 -3.07692,-4.80384 0,-2.16269 6.03399,-8.11924 8.2248,-8.11924 2.36727,0 7.7752,7.00604 7.7752,10.07286 0,6.26351 -7.79138,7.98192 -12.92308,2.85022 z m 10.62727,-2.53566 c 0.1726,-0.51778 -1.00886,-2.50426 -2.62546,-4.41442 l -2.93928,-3.473 -2.61007,2.56307 c -3.03726,2.98257 -2.61943,5.29078 1.33919,7.39813 2.14436,1.14154 2.99148,1.16639 4.57662,0.13423 1.06986,-0.69663 2.08641,-1.69023 2.259,-2.20801 z m 1.40157,-8.28863 c -1.82259,-1.70255 -3.10576,-3.9029 -3.10576,-5.32569 0,-2.78394 3.77793,-6.7731 6.41445,-6.7731 2.71309,0 8.58555,6.38068 8.58555,9.32857 0,5.99932 -6.75364,7.57227 -11.89424,2.77022 z m 8.89424,-2.28434 c 0,-2.35823 -3.60929,-6.81445 -5.51933,-6.81445 -0.64388,0 -1.96177,0.87413 -2.92864,1.9425 -1.68764,1.86483 -1.65567,2.04477 0.79956,4.5 3.27054,3.27054 7.64841,3.48344 7.64841,0.37195 z"
       id="path3807"
       inkscape:connector-curvature="0" />
  </g>
</svg>
